<?xml version="1.0" encoding="utf-8"?><svg xmlns="http://www.w3.org/2000/svg" xmlns:xlink="http://www.w3.org/1999/xlink"><symbol fill="none" viewBox="0 0 5 10" id="arrow" xmlns="http://www.w3.org/2000/svg"><path d="M.159 9.838a.533.533 0 0 0 .766 0l3.599-3.682a1.69 1.69 0 0 0 0-2.35L.965.162a.533.533 0 0 0-.766 0 .563.563 0 0 0 0 .784l3.56 3.641a.563.563 0 0 1 0 .784L.16 9.054a.563.563 0 0 0 0 .784z" fill="#151618"/></symbol><symbol fill="none" viewBox="0 0 20 22" id="cart" xmlns="http://www.w3.org/2000/svg"><path fill-rule="evenodd" clip-rule="evenodd" d="m14.592 5-.06-.243c-.267-1.056-.689-2.203-1.376-3.107C12.447.718 11.412 0 10 0 8.588 0 7.553.718 6.844 1.65c-.687.904-1.109 2.051-1.377 3.107L5.408 5H3.786C2.184 5 .857 6.225.75 7.8l-.743 11C-.11 20.532 1.282 22 3.042 22h13.916c1.76 0 3.152-1.468 3.035-3.2l-.743-11C19.143 6.225 17.816 5 16.214 5h-1.622zm-8.648 5a.986.986 0 0 0 1.014-1.002 6.786 6.786 0 0 1 .007-.306A18.074 18.074 0 0 1 7.107 7h5.786a18.849 18.849 0 0 1 .149 2s0 1 1.014 1 1.014-1.001 1.014-1.001l-.001-.106A20.05 20.05 0 0 0 14.936 7h1.278c.534 0 .977.408 1.012.933l.744 11A1.006 1.006 0 0 1 16.958 20H3.042c-.587 0-1.05-.49-1.012-1.067l.744-11A1.008 1.008 0 0 1 3.786 7h1.278a20.98 20.98 0 0 0-.133 1.893v.104C4.928 9.567 5.364 10 5.943 10zM7.5 5h5.002c-.234-.847-.553-1.605-.967-2.15C11.102 2.282 10.616 2 10 2s-1.102.282-1.534.85C8.052 3.395 7.734 4.153 7.5 5z" fill="#151618"/></symbol><symbol fill="none" viewBox="0 0 22 16" id="mail" xmlns="http://www.w3.org/2000/svg"><path fill-rule="evenodd" clip-rule="evenodd" d="M19 0a3 3 0 0 1 3 3v10a3 3 0 0 1-3 3H3a3 3 0 0 1-3-3V3a3 3 0 0 1 3-3h16zm-.747 2H3.747l6.633 5.237a1 1 0 0 0 1.24 0L18.253 2zM2 3.169V13a1 1 0 0 0 1 1h16a1 1 0 0 0 1-1V3.169l-7.141 5.637a3 3 0 0 1-3.718 0L2 3.17z" fill="#151618"/></symbol><symbol fill="none" viewBox="0 0 21 21" id="phone" xmlns="http://www.w3.org/2000/svg"><path fill-rule="evenodd" clip-rule="evenodd" d="M15.765 20.724c-2.02-.506-6.156-1.933-9.905-5.682C2.111 11.293.684 7.158.178 5.138-.112 3.977.411 2.856 1.3 2.222L3.627.56a3 3 0 0 1 4.21.734L9.304 3.41a2 2 0 0 1-.481 2.766l-1.17.835c.178.676.728 2.066 2.45 3.789 1.724 1.723 3.113 2.273 3.79 2.45l.835-1.169a2 2 0 0 1 2.766-.482l2.117 1.466a3 3 0 0 1 .733 4.21l-1.663 2.328c-.634.888-1.754 1.412-2.915 1.121zm-8.49-7.096c3.409 3.41 7.171 4.704 8.976 5.156.264.067.583-.036.802-.343l1.663-2.328a1 1 0 0 0-.245-1.404l-2.117-1.466-.896 1.255c-.366.512-1.043.914-1.831.744-.984-.212-2.803-.893-4.938-3.028S5.873 8.26 5.66 7.276c-.17-.789.232-1.466.745-1.832l1.254-.896-1.466-2.117a1 1 0 0 0-1.403-.244L2.462 3.85c-.307.219-.41.538-.344.802.452 1.804 1.747 5.567 5.156 8.976z" fill="#151618"/></symbol><symbol fill="none" viewBox="0 0 18 22" id="user" xmlns="http://www.w3.org/2000/svg"><path fill-rule="evenodd" clip-rule="evenodd" d="M9 11c2.761 0 5-2.462 5-5.5S11.761 0 9 0 4 2.462 4 5.5 6.239 11 9 11zm0-2.2c-1.657 0-3-1.477-3-3.3 0-1.823 1.343-3.3 3-3.3s3 1.477 3 3.3c0 1.823-1.343 3.3-3 3.3zm7.103 4.309a2.608 2.608 0 0 0-3.187-.41c-.19.113-.358.216-.512.312-.41.253-.729.449-1.139.617C10.75 13.84 10.084 14 9 14c-1.073 0-1.75-.15-2.274-.355-.462-.181-.828-.408-1.31-.707-.093-.059-.192-.12-.296-.184a2.628 2.628 0 0 0-3.256.388c-.38.384-.824.88-1.18 1.42C.347 15.079 0 15.765 0 16.5V19a3 3 0 0 0 3 3h12a3 3 0 0 0 3-3v-2.5c0-.746-.355-1.44-.7-1.96a9.699 9.699 0 0 0-1.197-1.431zm-2.166 1.31a.608.608 0 0 1 .75.101c.334.337.685.732.946 1.125.278.42.367.707.367.855V19a1 1 0 0 1-1 1H3a1 1 0 0 1-1-1v-2.5c0-.145.085-.427.356-.839.254-.386.598-.777.93-1.112a.629.629 0 0 1 .788-.09c.083.05.167.103.253.157.482.301 1.022.638 1.671.892.795.31 1.726.492 3.002.492 1.3 0 2.231-.195 3.025-.522.576-.236 1.083-.55 1.53-.827.133-.082.26-.16.382-.232z" fill="#151618"/></symbol></svg>