<svg width="318" height="514" fill="none" xmlns="http://www.w3.org/2000/svg"><path d="M301.537 280.06c2.428 4.54 1.667 9.378.251 14.12a242.033 242.033 0 01-1.591 4.595l-.478 1.345c-5.371 15.005-5.371 15.005-8.903 18.038-1.925.074-3.453-.256-5.361-.668l2.01-.668-.209-1.379c.297-2.785 1.721-4.574 3.56-6.642l1.34-.669c.517-1.341.517-1.341.921-2.966.692-2.444 1.471-4.79 2.429-7.143l.678-1.682c.411-.978.842-1.948 1.304-2.903 1.829-4.032 1.296-7.736.699-12.042 2.01-1.336 2.01-1.336 3.35-1.336z" fill="#0C3E2E" fill-opacity=".1"/><path d="M300.867 241.293c2.133.734 2.641 1.263 3.727 3.3l.963 2.047.99.945c1.225 1.272 1.638 2.371 2.235 4.026 1.013 2.684 2.204 5.16 3.56 7.687 1.718 3.324 2.538 6.31 2.984 10.013l.283 1.392 1.34.668c.225 13.586-.027 25.885-4.691 38.767l-.734 2.029-.802 2.214-.821 2.264a660.823 660.823 0 01-1.64 4.453l-.767 2.079-.69 1.852c-.613 1.934-.958 3.824-1.247 5.83h-1.34l-.67 4.678-1.885.418c-2.714 1.168-2.885 2.359-4.146 4.93-1.801.584-1.801.584-3.35.668v-3.342h1.34l.369-1.298c1.013-3.477 2.144-6.771 3.652-10.065h1.34l.67-5.347h1.34l.243-1.501c.418-1.801.973-2.968 1.893-4.556 7.247-14.185 9.415-32.036 5.235-47.415h-.67l-1.34-8.689-2.011-.669c-.518-1.608-.518-1.608-.921-3.676-.767-3.441-1.851-6.058-3.777-9-.806-1.655-.78-2.885-.662-4.702zm3.35 91.571l.67 1.337-1.34-.669.67-.668zM43.584 272.707l2.01.668a42.68 42.68 0 011.466 4.805l.36 1.338c.688 2.685.98 5.127.855 7.894h1.34c.154.478.31.956.468 1.449 2.597 7.913 5.397 15.394 9.583 22.613l1.063 1.958c2.9 5.229 6.395 9.61 10.329 14.084l1.33 1.574c2.284 2.688 4.63 4.909 7.38 7.115 1.927 1.755 1.927 1.755 3.351 3.342 0 2.005 0 2.005-1.34 4.01l-1.393-1.394a490.73 490.73 0 00-4.125-4.062c-7.803-7.638-16.424-16.317-20.615-26.627v-2.673h-1.34l-.663-1.637-.887-2.165-.872-2.138c-.846-2.039-.846-2.039-1.918-3.611-1.481-2.629-2.232-5.402-3.073-8.287l-.52-1.717c-1.618-5.457-3.038-10.818-2.789-16.539zM33.621 299.443c1.742 2.089 2.64 4.094 3.56 6.643 1.456 3.909 3.123 7.663 4.929 11.422.884 1.97 1.584 3.94 2.232 5.998h1.34c.945 1.326.945 1.326 2.053 3.175 3.902 6.289 8.18 11.918 13.569 17.002 1.13 1.212 1.13 1.212 1.13 2.548h1.34c1.04 1.053 1.04 1.053 2.22 2.465 3.159 3.945 3.159 3.945 7.162 6.893v1.337h1.34l.251 1.295.42 1.378 1.34.669h-1.34l-.671 1.337-1.675-2.047c-1.953-2.278-4.08-4.201-6.36-6.144-5.922-5.136-11.677-11.393-16.088-17.877V334.2h-1.34v-2.005h-1.34c-.864-.977-.864-.977-1.76-2.256l-.905-1.269c-.686-1.154-.686-1.154-.686-2.491h-1.34c-9.766-19.057-9.766-19.057-9.381-26.736zM111.262 72.856h.67c.46 3.997.757 7.98.935 12 .899 20.15 2.158 40.426 6.436 60.187l.456 2.13a1142.008 1142.008 0 003.565 15.917l.421 1.844c2.871 12.544 6.237 24.973 9.714 37.361l.636 2.271c.668 2.12 1.53 3.969 2.586 5.915 3.129 6.139 4.932 12.837 6.745 19.449.358 1.268.72 2.536 1.089 3.801l.445 1.554c.481 1.511.481 1.511 1.817 3.334 2.838-10.553 4.723-21.344 6.701-32.083l.308-1.6c1.138-6.014 1.915-12.068 2.707-18.135.565-4.211 1.243-8.248 2.345-12.349.459-2.259.849-4.53 1.244-6.801.36-1.999.767-3.896 1.434-5.817 3.576-11.085 2.881-24.579 2.892-36.133l.007-1.702c.021-8.897-.211-17.81-3.064-26.33l-.426-1.301c-.803-2.43-1.67-4.834-2.553-7.236l-.567-1.556c-.365-.992-.736-1.982-1.116-2.968-1.531-4.129-1.531-4.129-.531-6.405l.67 2.673h1.34c10.159 17.034 9.72 37.025 9.381 56.146l-.028 1.773c-.174 8.014-1.773 15.787-3.322 23.626-.463 2.353-.925 4.706-1.382 7.06l-.341 1.75c-.77 4.027-1.376 8.058-1.921 12.119-.958 7.066-2.408 13.995-3.919 20.96-.882 4.107-1.724 8.222-2.572 12.335-.322 1.562-.645 3.123-.969 4.684l-.47 2.282a323.592 323.592 0 01-1.045 4.765c-2.721 12.072-1.505 20.588 3.759 31.731 1.188 2.764 2.001 5.613 2.85 8.496.768 2.484 1.705 4.863 2.701 7.263.591 1.43 1.14 2.868 1.676 4.319a69.361 69.361 0 002.01 4.846c.748 1.85 1.206 3.341 1.591 5.264.453 2.215 1.089 4.183 1.969 6.266 1.095 2.611 1.929 5.208 2.68 7.937 1.277 4.612 2.835 9.091 4.463 13.59a288.535 288.535 0 012.482 7.24 275.334 275.334 0 001.562 4.504c1.847 5.268 3.456 10.098 3.638 15.731h1.34a692.3 692.3 0 00.246-1.708l.341-2.219.329-2.209c.425-1.885.425-1.885 1.765-3.222.451-1.314.451-1.314.754-2.757l.586-2.59h1.34l.22-2.311c.39-3.096 1.265-5.905 2.293-8.843l.543-1.583c2.209-6.388 4.489-12.694 7.665-18.678h1.34l-.167-2.297c-.016-2.96.923-4.999 2.214-7.619.871-1.988 1.02-3.985 1.304-6.125l.942-1.838c1.149-2.338 1.753-4.533 2.366-7.06.699-2.776 1.409-5.443 2.681-8.021 3.817-7.976 5.289-17.206 6.742-25.859h1.341A794.36 794.36 0 00221.868 225l.693-4.193.304-1.842c.191-1.1.406-2.196.653-3.284.431-2.429.538-4.858.653-7.318l.083-1.606c.086-1.689.17-3.378.252-5.067.083-1.68.167-3.36.253-5.039.053-1.043.105-2.085.154-3.127.177-3.482.522-6.921.933-10.382l2.011-.669c1.063 10.001.809 19.499-.67 29.41l1.34.668-.293 1.045c-.433 1.757-.433 1.757-.712 4.094-.335 2.214-.335 2.214-1.005 2.882.006 1.644.089 3.278.172 4.919-.172 1.765-.172 1.765-1.127 3.285-1.176 2.029-1.591 3.711-2.037 6.007l-.494 2.435-.979 5.018c-.871 4.303-1.897 8.246-3.641 12.277-.738 1.808-1.183 3.611-1.619 5.509-.606 2.453-1.471 4.825-2.295 7.213-1.333 3.923-2.593 7.838-3.633 11.851-1.01 3.865-2.205 7.561-3.738 11.25-1.308 3.199-2.529 6.398-3.581 9.689-.764 2.259-1.675 4.456-2.581 6.661a62.04 62.04 0 00-1.251 3.452h-1.34l-.209 1.629a35.173 35.173 0 01-1.367 5.104 169.098 169.098 0 00-2.133 6.734l-.512 1.741c-.345 1.183-.689 2.367-1.031 3.551l-.509 1.726-.45 1.549c-.49 1.36-.49 1.36-1.83 3.365a113.945 113.945 0 00-.961 3.331c-.407 1.447-.889 2.853-1.384 4.272-2.645 7.928-1.988 13.407-.081 21.496.428 2.381.487 4.581.416 6.994l1.34.669c-.921 1.003-.921 1.003-2.01 2.005h-1.34l-.67 2.674 2.01 1.337-.67 2.005-.67-1.337-2.011.668v-1.336h-1.34l-.921-2.256c-.905-2.398-.905-2.398-2.429-3.76 3.183-.752 3.183-.752 4.69 0v-1.337h1.341l-.554-2.361c-.677-2.888-1.35-5.777-2.023-8.666-.292-1.251-.584-2.501-.878-3.752-.421-1.796-.839-3.593-1.257-5.39l-.4-1.697-.366-1.581-.324-1.39c-.229-1.231-.229-1.231-.229-3.236l-1.173-.167c-1.946-.647-2.873-1.629-4.188-3.175v-1.337l-1.23-.519c-1.615-.91-2.199-1.668-3.209-3.199-3.632-5.037-8.622-8.846-13.582-12.522-1.411-1.138-1.411-1.138-2.95-2.707-2.128-2.082-4.4-3.813-6.795-5.574l-1.419-1.053a603.485 603.485 0 00-10.523-7.592 208.615 208.615 0 01-6.109-4.473c-2.034-1.536-4.131-2.906-6.308-4.232-2.388-1.461-4.741-2.977-7.101-4.483a81.134 81.134 0 00-3.649-2.162l-1.453-.945v-1.337l-1.398-.501c-2.267-.971-4.31-2.201-6.391-3.509l-1.163-.721a197.24 197.24 0 01-5.12-3.29v-1.337l-1.39-.48c-2.365-1.034-4.416-2.396-6.525-3.864l-1.213-.817a61.738 61.738 0 01-2.933-2.191v-1.337l-1.13-.125c-2.202-.772-3.278-2.216-4.9-3.885a569.275 569.275 0 00-2.021-1.969c-7.635-7.46-16-16.037-20.092-26.104v-2.674h-1.34c-.22-.54-.438-1.08-.663-1.637l-.887-2.164-.872-2.138c-.846-2.04-.846-2.04-1.918-3.611-1.481-2.629-2.232-5.402-3.073-8.288l-.52-1.716c-1.618-5.458-3.038-10.818-2.789-16.539l2.01.668a42.727 42.727 0 011.466 4.804l.36 1.338c.688 2.686.98 5.128.855 7.895h1.34l.468 1.449c2.597 7.912 5.397 15.393 9.583 22.613l1.063 1.958c2.9 5.229 6.395 9.609 10.329 14.084l1.33 1.574c2.284 2.687 4.63 4.908 7.38 7.115l1.55 1.587c3.11 3.031 6.566 5.588 10.159 8.024l1.205.818a252.04 252.04 0 002.387 1.588 60.68 60.68 0 012.792 2.019v1.337h1.34v1.337l1.047.167c4.618 1.417 8.723 4.737 12.678 7.437 2.495 1.684 4.982 3.145 7.718 4.427v1.337l1.41.522c2.161.907 4.139 1.987 6.17 3.154l2.17 1.232 1.641 1.107v1.337l2.68.669v1.336l1.487.525c1.917.835 3.266 1.792 4.879 3.11 2.052 1.639 4.065 3.104 6.366 4.386l2.01 1.337v1.337h1.34v1.337l1.168.216c1.73.517 2.835 1.252 4.277 2.332l1.387 1.016c1.282 1.182 1.799 2.238 2.549 3.788.889.242 1.782.466 2.681.668l.67 2.006c1.7 1.83 3.276 3.292 5.36 4.678v1.337l2.011.669v1.336h1.34c2.01 2.314 2.01 2.314 2.01 4.011h1.34c1.089 1.002 1.089 1.002 2.011 2.005a436.247 436.247 0 00-.88-3.76l-.495-2.115c-.658-2.222-1.592-4.095-2.646-6.156a80.342 80.342 0 01-1.214-3.802 2226.795 2226.795 0 01-1.054-3.527c-.794-2.62-1.633-5.227-2.464-7.835-1.035-3.251-2.062-6.501-3.016-9.776-1.022-3.46-2.275-6.836-3.52-10.222-.793-2.269-.793-2.269-1.44-4.684-.577-2.213-.577-2.213-1.628-3.806-1.607-2.687-2.526-5.576-3.547-8.525l-.65-1.819-.614-1.756-.557-1.59c-.398-1.477-.398-1.477-.398-4.151h-1.341l-.274-1.279c-1.078-4.469-2.716-8.32-4.86-12.358-1.566-2.958-1.566-2.958-1.566-4.41h-1.341l-.67-2.005-1.465-1.379c-2.167-2.042-3.459-4.519-4.882-7.107-1.078-1.623-2.142-2.411-3.704-3.545-.754-1.149-.754-1.149-1.34-2.34-1.087-2.036-2.16-2.968-4.021-4.344a136.397 136.397 0 01-2.01-4.011 67.857 67.857 0 00-2.01-2.005v-1.337l-2.01-.668a159.289 159.289 0 01-2.338-2.849c-1.511-1.734-3.257-3.158-5.004-4.65-5.926-5.153-11.691-11.403-16.111-17.9v-1.337h-1.34v-2.005h-1.34c-.864-.977-.864-.977-1.76-2.256l-.905-1.269c-.686-1.154-.686-1.154-.686-2.491h-1.34c-9.766-19.057-9.766-19.057-9.381-26.736 1.742 2.088 2.64 4.094 3.56 6.642 1.456 3.909 3.123 7.664 4.928 11.423.885 1.97 1.585 3.94 2.233 5.998h1.34c.945 1.326.945 1.326 2.052 3.174 3.903 6.29 8.181 11.918 13.57 17.003 1.13 1.211 1.13 1.211 1.13 2.548h1.34c1.04 1.052 1.04 1.052 2.22 2.465 3.159 3.945 3.159 3.945 7.162 6.893v1.337h1.34l.209 1.295.461 1.378 2.01.669c1.322 1.433 1.322 1.433 2.722 3.216l1.406 1.768c1.038 1.432 1.849 2.768 2.573 4.373h1.34c8.041 8.867 8.041 8.867 8.041 12.7h1.34l-.515-1.374c-1.333-3.594-2.575-7.187-3.633-10.872-1.392-4.599-3.023-9.072-4.814-13.529-3.633-9.233-6.202-18.477-8.337-28.157a274.612 274.612 0 00-2.133-8.898 564.213 564.213 0 01-4.691-20.052l-.487-2.275c-4.592-21.848-7.37-44.236-7.554-66.57l-.055-3.347c-.083-7.27-.083-7.27.725-10.69z" fill="#0C3E2E" fill-opacity=".1"/><path d="M99.172 0h6.701v4.679h2.01l1.34 3.342h2.011v4.01h.67l.628 2.214c.433 1.499.888 2.991 1.382 4.47l1.34.669a106.226 106.226 0 012.01 4.678h1.341l.67 3.342 1.34-2.673c.371 1.387.67 2.569.67 4.01h1.34l-.084 1.504c.087 1.897.466 2.9 1.424 4.512h1.34c2.011 2.93 2.011 2.93 2.011 4.679h1.34v2.005h2.01l.67 1.337 1.34-.669-.67 2.674h1.34l.503 1.587c.968 2.029 1.545 2.203 3.518 3.092l.67 2.005h1.34v2.005h1.34v1.337h1.34c1.089.919 1.089.919 2.011 2.005v1.337h2.01l.544 1.63.796 1.712 2.01.668v1.337h1.34c.964 1 .964 1 2.011 2.298 1.437 1.814 1.437 1.814 3.35 3.05v1.336h2.01a60.14 60.14 0 012.681 2.674l1.842 1.42 1.508 1.253v1.337h1.34c1.089.92 1.089.92 2.01 2.005v1.337h1.341c1.089.92 1.089.92 2.01 2.005v1.337l2.01.669v1.336c-2.417-1.058-4.26-2.538-6.282-4.219l-1.955-1.624-1.814-1.51-1.374-1.09a63.146 63.146 0 01-2.647-2.251v-1.337l-3.35-1.337V70.85l-1.217-.53c-1.551-.855-2.332-1.65-3.432-3.02a59.386 59.386 0 00-7.789-7.812c-1.391-1.17-2.462-2.204-3.602-3.635-1.254-1.554-2.445-2.627-3.979-3.885-2.5-2.119-4.135-4.375-5.863-7.138-1.205-1.81-2.714-3.215-4.272-4.726-.671-1.113-1.34-2.228-2.01-3.342-.686-1-1.38-1.995-2.078-2.987l-1.162-1.658a676.368 676.368 0 00-2.414-3.41l-1.157-1.658-1.056-1.494c-.917-1.62-1.247-3.003-1.514-4.835h-1.34c-5.361-6.855-5.361-6.855-5.361-10.026-2.674-.402-2.674-.402-5.361-.668-1.335 1.332-.778 4.004-.787 5.83a3663.45 3663.45 0 01-.043 3.317L101 20.948c-.28 19.03-2.283 36.955-7.859 55.25-.376 1.27-.751 2.54-1.125 3.812-.797 2.692-1.61 5.38-2.44 8.062a227.587 227.587 0 00-.912 3.07c-1.299 4.46-2.873 8.788-4.527 13.128l-.776 2.058A541.983 541.983 0 0179 117.461a130.693 130.693 0 00-1.53 4.06c-2.86 7.96-6.44 15.531-10.247 23.081a69.186 69.186 0 00-1.848 4.075c-.863 1.964-1.822 3.755-2.91 5.598-1.07 1.916-2.026 3.88-2.995 5.849-1.854 3.756-3.864 7.392-5.973 11.011a95.781 95.781 0 00-3.492 6.534c-1.788 3.669-3.906 7.134-5.998 10.635-2.109 3.548-4.062 7.14-5.812 10.879h-1.34l-.427 1.559c-1.265 3.394-3.034 6.443-4.808 9.595-2.744 4.881-5.26 9.782-7.497 14.914l-.668 1.524c-2.435 5.628-4.67 11.194-6.033 17.191h-1.34l-.199 1.303c-.708 4.269-1.767 8.278-3.151 12.379-1.994 7.022-2.24 13.777-2.222 21.029a475.02 475.02 0 01-.03 5.217c-.04 10.259 1.13 20.224 4.55 29.949l.496 1.413.556 1.566.645 1.845c3.142 8.926 6.638 17.381 11.416 25.559l.688 1.202c3.1 5.39 6.68 10.113 10.704 14.84l1.392 1.762c9.97 12.616 22.982 24.686 38.807 29.052 1.769.527 3.266 1.152 4.906 1.979 6.573 3.05 14.749 3.876 21.903 3.301l1.39-.109c8.748-.772 16.405-3.272 24.523-6.536 2.95-1.179 5.83-2.035 8.931-2.713v-1.337l2.081-.807 2.736-1.073 1.367-.528c1.96-.773 3.719-1.506 5.493-2.655 4.523-2.499 9.774-2.549 14.833-2.582l1.816-.066c4.464-.036 7.021 1.029 10.539 3.701l1.197.824c6.023 4.158 10.719 8.723 14.215 15.217v2.006h1.34l.568 1.227c1.791 3.733 3.817 7.068 6.251 10.417 1.278 1.802 2.445 3.649 3.609 5.525 1.586 2.508 3.229 4.777 5.212 6.982 3.427 3.844 6.619 7.912 9.823 11.942l1.131 1.42c.879 1.254.879 1.254 1.55 3.259h1.34l.544 1.629.796 1.713 2.01.668c.987 1.123.987 1.123 2.052 2.59 2.388 3.173 5.014 6.052 7.714 8.961 1.49 1.666 2.844 3.37 4.18 5.159 1.654 2.187 3.104 3.304 5.486 4.679a180.443 180.443 0 012.406 3.431c1.766 2.332 4.067 4.062 6.306 5.927 1.722 1.47 3.436 2.949 5.151 4.428l1.303 1.115c2.416 2.078 4.723 4.206 6.947 6.488-2.593-.383-4.122-1.597-6.031-3.342v-1.337h-2.01c-1.131-.919-1.131-.919-2.01-2.005v-1.337l-4.021.669.671-2.006-1.341-.668v1.337h-2.68v-2.005h-2.01v-1.337h2.68v-1.337h-2.01v-1.337h-1.34v-2.005h-1.34v-1.337l-2.011-.668v-1.337l-2.01-.668v-1.337l-3.35-1.337v-1.337l-2.011.669-.67-1.337h-1.34v1.337h-3.35v3.342h-2.01v-3.342h-1.341v-2.006h1.341l.125-2.59.071-1.457-.196-1.3-2.011-1.337c-.457-.885-.905-1.776-1.34-2.673l-1.34-.669v-1.336h-2.68l-.67 2.673h-2.011v-2.673l-5.36-.669.67-6.015-.67 1.336h-1.341v-2.005h-2.01v-1.337h-1.34v-2.005h-2.01v-1.337h-1.34v-2.005h-2.011v-3.342h-3.35v-2.005h1.34v-1.337h-2.68v-2.005h-2.01v-3.342h1.34l1.34-4.679h-2.68v3.342h-3.351v-5.347h-2.01v-1.337h-1.34v-2.005h-2.01v-1.337h-1.341v-5.347h-2.01v-2.005h-1.34v-3.342h1.34v-5.347h-1.34l-.67 4.01c-2.68 0-2.68 0-3.853-.919-.838-1.086-.838-1.086-.838-2.423h-1.34v-2.005h-4.02v-1.337h2.01l-.67-5.347h-1.34v3.342h-1.341l-.67-6.684h-1.34v5.347H160.15v-2.005h3.35v-2.005h2.01v2.005h1.34v-2.005h1.341v-2.674l-1.419.047-1.848.036-1.838.047c-1.596-.13-1.596-.13-2.936-1.467l1.34-.668-4.021-.669v1.337l-5.36.668v1.337l-8.041 2.006v1.336h-3.351v1.337l-1.633.251-1.717.418-.67 1.336h-4.021v1.337l-2.303.251-2.387.418-.67 1.336h-4.021v1.337c-2.716.657-5.252.723-8.041.669v1.336l-3.795.392c-1.64.241-1.64.241-3.408.966-2.675.795-5.022.796-7.79.731l-1.495-.018c-1.205-.016-2.41-.04-3.614-.065v-1.337l-5.361-.669v-1.336l-2.22.083c-2.47-.083-2.47-.083-4.48-1.42a50.255 50.255 0 00-3.351-.669v-1.336l-8.041-2.006v-1.336c-3.013-1.503-5.414-1.449-8.711-1.337v-1.337l1.34-.668-2.01-.669v-1.337c-1.657.231-1.657.231-3.35.669l-.67 1.337h-2.011v-1.337h-3.35v-2.006h2.01c.22-.441.442-.882.67-1.336l2.01.668v-1.337h-2.01c-1.131-.919-1.131-.919-2.01-2.005v-1.337h-1.34l-.67-1.336c-.443.661-.885 1.323-1.34 2.005h-2.011v1.336h-2.01v-4.678h-3.35l-.252-1.964-.419-2.047-1.34-.668v6.016h-1.34v-1.337h-3.35v-2.006h3.35v-5.347l-1.34.669c-.44 1.689-.44 1.689-.67 3.342h-1.34v-5.348h1.34v-1.336h-3.35v1.336h-1.341l-.67-4.678-1.34 2.673h-2.01v-1.337h-1.34v-3.342h-2.01v-6.684h1.34c-.443-.661-.885-1.323-1.34-2.005-.085-1.796-.085-1.796 0-3.342h-1.341v6.684h-2.01v-1.337h-1.34v-3.342h1.34v-4.678l-1.34-.669v1.337l-3.35.668v-2.005h1.34v-8.689h1.34c.22.662.442 1.324.67 2.005-.37-2.639-.931-4.912-2.01-7.352h-.67v-4.011h-2.011l-.251-2.047c-.406-2.551-1.003-4.847-1.76-7.31h-1.34c-.22-.662-.442-1.324-.67-2.005.222 1.102.443 2.205.67 3.342h.67v3.342l2.01.668v5.347h-1.34v4.679h1.34v-3.342h1.341v2.005h2.01v1.337h-1.34v10.026h-3.35v-6.684h-2.01v-6.684h-1.34v-3.342H7.37v-3.342H5.36v-3.342H6.7l.67-5.347H5.36v-1.337H4.02c-.74-2.947-.722-5.671-.67-8.689h2.01v-1.337H2.01v-2.005H0v-8.689h2.01v-1.337H0v-2.005h2.01v-1.337H0v-2.005h3.35v2.005h1.34l-.376-1.546c-.294-1.796-.294-1.796.377-3.801H3.35v2.005H2.01v-3.342H0v-2.005h3.35v1.336h1.34c-.08-2.948-.163-5.896-.249-8.844l-.084-3.003c-.039-1.447-.081-2.894-.124-4.34l-.075-2.631c-.143-2.673-.444-5.267-.808-7.918H6.7l.67 4.679h1.341v2.005h-1.34l1.34 3.342-.67.669 1.34.668-.023-1.245-.019-1.637-.023-1.622c.097-2.256.99-4.221 1.782-6.316a3242.849 3242.849 0 00.963-2.548l-1.34.669c-.439 1.689-.439 1.689-.67 3.342h-1.34l-.123-1.784-.17-2.352-.165-2.326a44.074 44.074 0 00-.882-5.57h3.35c-.22 1.544-.442 3.088-.67 4.679h2.01v-10.026h-1.34v-1.337h1.34v-2.005h2.01v2.674h1.34v-9.358h-1.34v-2.005h1.34v-1.337h2.011v1.337h1.34v-4.679h-1.34v-2.005h1.34v-1.337h2.01v1.337h1.34v-8.021h4.021c-.22-1.103-.442-2.206-.67-3.342h-1.34v-2.005h1.34v-2.005h-1.34v-1.337h2.01v1.337h1.34v2.005h1.34v-5.347h-1.34v-1.337h2.01v1.337h1.34v-1.337h1.34v-2.005h2.011c1.61-3.211 1.75-6.504 2.01-10.026h3.35l-.376-1.462c-.307-1.966-.116-3.311.377-5.222h3.35v-6.684h1.34v1.337h2.01v-4.679l2.681-.669.67-6.684h1.34l.67 1.337c1.166-1.163.92-2.803 1.047-4.386l.17-2.05.123-1.585h1.34l.67 1.337h1.34v-4.679h-1.34v-1.336h1.34v-2.006h1.341v2.006h1.34l.67-8.69h2.01l.67 1.337.67-8.021h2.01v1.337h1.341v-8.021h-1.34v-2.005h2.01l1.34 3.342h1.34v-8.021h-1.34v1.337h-1.34c-.22.662-.442 1.324-.67 2.005h-1.34v-2.005h1.34l.67-2.005h1.34v-1.337h1.34v-2.005h-1.34v-1.337h2.01v1.337h1.34v4.01l1.34-.668v-6.016h-1.34v-2.005h1.34v-2.005h-1.34v-4.679h2.011v1.337h1.34l.67 3.342h1.34l-.376-1.462c-.307-1.966-.116-3.311.376-5.222h-2.01v-1.337h2.01v-2.005h1.34v2.005h1.34v-8.69H78.4v-5.346h2.01v2.005h1.341l.67 2.005 1.34.669c-.22-3.089-.442-6.177-.67-9.358h-1.34v-2.005h1.34v-1.337h-1.34V79.54h3.35c.754 3.175.754 3.175 0 4.678h2.01l-.146-1.566c-.353-3.952-.6-7.834-.523-11.802H85.1v-1.336h-1.34v-2.005h1.34v-1.337h3.35l.67 4.678h1.34l-.147-1.227c-.451-4.065-.601-8.052-.523-12.14h-1.34v-1.337h2.01V54.14h3.35v-6.684h-1.34l.338-2.302c.378-3.011.356-5.949.29-8.977-.054-4.412.176-8.505 1.383-12.783h-2.68v-3.342h4.02v-1.337h-2.01v-5.347h2.01v-2.005h-2.01v-1.337h-2.01V8.021h2.01V6.684h3.35V5.347h2.01V3.342h-2.01V1.337h2.01V0zm-3.35 32.083v2.005h2.01l-.67-2.005h-1.34zm0 3.342c.22.662.442 1.324.67 2.005l.67-2.005h-1.34zm0 3.342l-.67 2.005h1.34l-.67-2.005zm-.67 3.342l.67 1.337-.67-1.337zm-1.34 14.037c-1.494 2.892-1.29 4.868-.67 8.02h-1.34v8.021h.67c.22-2.206.442-4.411.67-6.684h1.34V58.82h1.34l-.67-2.005-1.34-.668zM88.45 74.192l.67 2.006-.67-2.005zm1.34 2.006c-1.442 2.157-1.475 2.863-1.34 5.347 1.104-1.171 1.104-1.171 2.01-2.674-.145-1.476-.145-1.476-.67-2.673zm-3.35 10.694v1.337H85.1v3.342l1.34-.668v-2.006h1.34v-2.005h-1.34zm-1.34 7.353l.67 1.336-.67-1.337zm-2.01 2.673c-1.535 2.296-1.46 3.332-1.341 6.016h.67v-3.342l2.01-.669v-2.005h-1.34zM78.4 104.94l.67 2.005-.67-2.005zm1.34 1.337l.67 2.005-.67-2.005zm-1.34 2.005v4.679h.67v-4.679h-.67zm-3.35 6.684l.67 2.005-.67-2.005zm-4.021 10.026c.22 1.544.442 3.088.67 4.679 1.57-1.787 1.57-1.787 2.01-4.011l-2.68-.668zm-3.35 7.352v3.342l1.34.669 1.34-1.337c-.214-1.409-.214-1.409-.67-2.674h-2.01zm-3.351 6.684l.67 2.006 1.34-.669.67 1.337-.67-2.674h-2.01zm.67 2.674l.67 2.005-.67-2.005zm-4.02 4.01v2.006h1.34v-2.006h-1.34zm2.01 1.337l.67 1.337-.67-1.337zm-4.69 5.347l.67 1.337-.67-1.337zm-2.011 8.021l.67 1.337-.67-1.337zm-12.062 16.042l.67 2.005.67-2.005h-1.34zm0 4.679l.67 2.005-.67-2.005zm-3.35 2.005v1.337h1.34v-1.337h-1.34zm-3.35 6.684l.67 1.337-.67-1.337zm-6.701 10.026v1.337h1.34v-1.337h-1.34zm-3.35 6.684l.67 1.337-.67-1.337zm0 4.679l.67 2.005-.67-2.005zm-7.372 14.704v2.006h1.34v-2.006h-1.34zm-3.35 1.337v1.337h1.34v-1.337h-1.34zm2.01 2.674l-2.01.668v5.347h1.34v-3.342h1.34c-.22-.882-.442-1.764-.67-2.673zm-3.35 9.357c-1.089.75-1.089.75-2.01 2.006-.168 2.089-.168 2.089 0 4.01h1.34v-3.342h1.34l-.67-2.674zM3.35 288.081v2.005h1.34v-2.005H3.35zm0 3.342v2.005h2.01v-2.005H3.35zm0 3.342v2.005h2.01v-2.005H3.35zm0 3.342v2.005h2.01v-2.005H3.35zm4.691 7.352l.67 2.674h1.34v3.342h1.34v-5.348l-3.35-.668zm-1.34 3.342l.67 3.342h1.34v-3.342h-2.01zm4.02 10.026v3.342h1.34v-3.342h-1.34zm11.392 19.384l-1.34 4.01h1.34v-1.337h1.34l-1.34-2.673zm1.34 3.342l1.34 2.673v-2.673h-1.34zm2.01 3.342v2.673h1.34v1.337h1.34V346.9c-1.3-1.14-1.3-1.14-2.68-2.005zm2.01 8.02v6.684h1.34l.67-5.347-2.01-1.337zm3.35 4.679l.67 2.005v-2.005h-.67zm3.351.669v1.336l1.34-.668-1.34-.668zm1.34 2.005v1.337h1.34v-1.337h-1.34zm-1.34 1.337v1.336h1.34v-1.336h-1.34zm3.35.668l.67 1.337-.67-1.337zm1.34 1.337v1.337h1.34v-1.337h-1.34zm2.011 2.005l.67 1.337-.67-1.337zm1.34 1.337v1.337h1.34v-1.337h-1.34zm2.01 2.005l.67 1.337-.67-1.337zm1.34 1.337v1.337h1.34v-1.337h-1.34zm2.01 2.005l.67 1.337-.67-1.337zm1.341 2.005l1.34 1.337v-1.337h-1.34zm124.635 6.684l.67 2.674h4.691v1.337c.795 1.183.795 1.183 2.01 2.005 1.45-.152 1.45-.152 2.68-.668l-2.01-.669v-1.337h-2.01l-.67-2.005h-2.68v-1.337h-2.681zm-115.924 1.337v1.337l2.01-.669-2.01-.668zm112.574 2.674v2.005h2.01v-2.005h-2.01zm7.371 0l.67 1.337-.67-1.337zm6.03 2.673l1.341 1.337v-1.337h-1.341zm-2.68.669v2.005h1.34v-2.005h-1.34zm4.691.668v1.337l1.34-.668-1.34-.669zm1.34 2.005l.67 2.006.67-2.006h-1.34zm-2.68.669v2.005h1.34l-.67-2.005h-.67zm4.69.668l.67 2.005-.67-2.005zm1.34 2.674c.334 2.464.738 3.746 2.681 5.347-.351-1.847-.743-3.56-1.341-5.347h-1.34zm3.351 4.679v2.005h-1.34v-1.337h-1.341v6.684h1.341v-3.342h2.01v8.689h1.34c.399-1.74.67-3.307.67-5.096 0-1.588 0-1.588.67-3.593l-1.34-1.337c-.419-1.42-.419-1.42-.67-2.673h-1.34zm3.35 6.015v1.337l1.34-.668-1.34-.669zm2.01 2.005l.67 1.337-.67-1.337zm2.011 3.342l.67 1.337-.67-1.337zm-3.351 1.337v4.679h1.34l.67-4.679h-2.01zm4.021 2.005v2.674h1.34l.67-2.674h-2.01zm2.01 1.337l.67 2.005 1.34-1.336-2.01-.669zm2.01 2.005v1.337l1.34-.668-1.34-.669zm-1.34 3.342v6.016h1.34c.991-1.976.711-3.838.67-6.016h-2.01zm2.68 0l1.34 6.016h1.341l.67-3.342h-1.34l-.671-2.674h-1.34zm3.351 4.679l.67 2.005h1.34l-.67-2.005h-1.34zm2.01 2.005v1.337l1.34-.668-1.34-.669zm-4.021 1.337v1.337h1.341v-1.337h-1.341zm6.031.669v1.336l1.34-.668-1.34-.668zm-2.68.668v4.01h2.01c-.231-1.652-.231-1.652-.67-3.342l-1.34-.668zm6.031 2.674v1.336h1.34v-1.336h-1.34zm-2.011 2.005l-.67 2.673h2.011v-2.673h-1.341zm2.011 2.673l.67 3.342h2.68l.67-4.01c-1.356 0-2.696.397-4.02.668zm-3.351 1.337v2.005h1.34v-2.005h-1.34zm6.701 2.005v6.684h4.691c.812-1.524.812-1.524 1.34-3.342-.514-1.527-.514-1.527-1.34-2.673l-2.681.668.67-2.005c-1.39-.1-1.39-.1-2.68.668zm6.701 5.348v1.336h1.34v-1.336h-1.34zm2.01 2.005l.67 1.337-.67-1.337zm3.351 3.342l.67 1.337-.67-1.337zm1.34 2.005v2.005h1.34v-2.005h-1.34zm2.01 3.342v1.337h-1.34v2.673h2.68v-1.336h1.34v-1.337h-1.34v-1.337h-1.34zm18.092 18.715v1.337h2.01v-1.337h-2.01z" fill="#FEFEFC"/><path d="M99.172 0h6.701v4.679h2.01l1.34 3.342h2.011v4.01h.67l.628 2.214c.433 1.499.888 2.991 1.382 4.47l1.34.669a106.226 106.226 0 012.01 4.678h1.341l.67 3.342 1.34-2.673c.371 1.387.67 2.569.67 4.01h1.34l-.084 1.504c.087 1.897.466 2.9 1.424 4.512h1.34c2.011 2.93 2.011 2.93 2.011 4.679h1.34v2.005h2.01l.67 1.337 1.34-.669-.67 2.674h1.34l.503 1.587c.968 2.029 1.545 2.203 3.518 3.092l.67 2.005h1.34v2.005h1.34v1.337h1.34c1.089.919 1.089.919 2.011 2.005v1.337h2.01l.544 1.63.796 1.712 2.01.668v1.337h1.34c.964 1 .964 1 2.011 2.298 1.437 1.814 1.437 1.814 3.35 3.05v1.336h2.01a60.14 60.14 0 012.681 2.674l1.842 1.42 1.508 1.253v1.337h1.34c1.089.92 1.089.92 2.01 2.005v1.337h1.341c1.089.92 1.089.92 2.01 2.005v1.337l2.01.669v1.336h2.01v1.337c1.563.806 3.013 1.448 4.691 2.005v2.005h2.01v1.337h2.01v1.337l2.681.669v1.336h2.01c1.131.92 1.131.92 2.01 2.005v1.337h2.681v2.005h2.01v1.337h2.01v2.005l1.215.251c1.465.418 1.465.418 3.476 1.755v1.336h2.01v2.006h2.01v1.336h2.01c.908.877 1.801 1.769 2.681 2.674l2.01.668 2.68 2.674 2.011.668v2.006h2.01v1.336h2.01l.67 1.337 2.01.669v1.336h2.011v2.006h2.01v1.336l2.68.669v1.337h2.01a111.01 111.01 0 012.011 2.673l2.01.669v-2.674l-3.35-.668v-2.674l-3.351-.668v-2.674h2.01v1.337l3.351.668v3.342l2.68-.668.67 2.005h1.34v1.337l2.011.668v1.337h1.34c0 2.005 0 2.005-1.005 3.133l-1.005.878 1.34.668v1.337h2.01v2.005h1.34v1.337h2.01c1.801 1.545 1.801 1.545 3.351 3.342v2.005h2.01v1.337l1.089.459c2.16 1.191 3.8 2.536 5.612 4.22v2.005h1.34v2.005h1.34c1.089.919 1.089.919 2.01 2.005v1.337h2.011v2.005h1.34v1.337h1.34c1.089.919 1.089.919 2.01 2.005v1.337h1.34c2.681 3.617 2.681 3.617 2.681 5.347h1.34l1.34 3.342h2.01v2.005h1.34v1.337h1.341l1.34 3.342h1.34v1.337l2.01.668-.67 1.337h1.34c2.681 2.988 2.681 2.988 2.681 4.679h1.34v2.005h1.34v2.005h2.01c1.412 1.931 2.01 2.931 2.01 5.348h1.341l.921 1.963c.86 2.094.86 2.094 2.429 2.715l.67 2.006 2.01-1.337-.67 4.679h1.34v3.342h2.011l.392 1.146.529 1.485.518 1.481c.472 1.36.472 1.36 1.911 1.903v2.674h1.34l.67-1.337-.67 4.679h2.01l.671-1.337-.671 4.679h1.341l.67-1.337-.67 4.679 2.01.668.67 3.342h1.34l.67 4.679 2.01.668-.418 2.131c-.261 2.645.007 3.553 1.089 5.89.251 1.332.482 2.668.67 4.011h1.34l.67 3.342h-1.34l.67 4.678H327c-.062 4.711-.134 9.422-.213 14.132-.025 1.603-.049 3.205-.07 4.808-.03 2.303-.069 4.606-.11 6.909l-.023 2.173-.04 2.027-.027 1.781c-.201 1.707-.724 2.761-1.527 4.264a66.804 66.804 0 00-.419 4.512l-.152 2.37-.099 1.807h-1.34v8.021l-1.341.668.218 1.246.243 1.637.259 1.621c-.05 1.512-.05 1.512-1.042 2.71l-1.018.807-.67-2.005c-1.581 1.577-1.669 2.526-2.01 4.679h-1.34v5.347l-2.011-.668v2.005l2.681.668-.67 2.005h-1.34v1.337h-1.341l-.67 3.342h-1.34v3.342h-1.34l-.67 2.005-2.68 1.337-.671 2.005c-1.34-.668-1.34-.668-2.01-2.005l-2.01.669v2.005a67.042 67.042 0 01-3.35 2.005l-.671 1.337-2.01.668.67 1.337a74.49 74.49 0 01-.67 4.01h-1.34v-2.005h-2.68l-.67 1.337h-3.351v1.337c-.795 1.086-.795 1.086-2.01 2.005-1.801.125-1.801.125-3.35 0v1.337l-1.299.251-1.382.417-.67 1.337h-4.69v1.337l-1.634.251-1.717.417-.67 1.337h-6.031v1.337l-4.69.668v1.337l-1.882.123-2.432.17-2.426.164c-1.895-.005-1.895-.005-2.641.88a68.85 68.85 0 01-3.393.376l-1.866.17-1.442.122v1.337l-1.887.099c-5.136.212-5.136.212-10.133 1.28-2.329.711-4.321.725-6.742.626v1.337l-1.566.099-2.036.152-2.026.141c-1.847.119-1.847.119-3.084 1.613-1.801.181-3.545.059-5.36 0v1.337l-1.969.251-2.052.417-.67 1.337h-1.34l.67 4.011h2.01v2.005h-4.02v7.352h1.34l.67-1.336c.601 1.798.857 3.267 1.047 5.138l.17 1.637.123 1.245h2.011v2.006h1.34v1.336h1.34v2.006l2.01.668v2.674l2.01-.669 1.341 5.347h1.34c1.56 1.183 1.978 1.882 2.471 3.802l.209 1.546h1.34v2.005h1.34l.252 1.295.418 1.378 1.341.669v1.337h1.34v2.005l4.69.668v1.337h-1.34v1.337h1.34v1.337l2.011.668c.46 1.379.46 1.379.67 2.674h1.34v2.005l2.01.668c1.34 2.005 1.34 2.005 1.34 4.011l2.011.668-.671 1.337h2.011v2.005l2.01-.668v2.005h1.34v2.005h1.34v1.337h1.34c1.089.919 1.089.919 2.011 2.005v1.337h1.34l1.34 3.342h1.34v2.005h2.01v1.337c1.563.806 3.013 1.447 4.691 2.005v1.337l1.249.368 1.641.509 1.625.494c1.601.67 2.451 1.289 3.526 2.639v1.337h2.68l.67 1.337 2.011.668v1.337l4.69-.668v1.336h-1.34v1.337l1.508.293 1.842.376 1.508.292 1.173.376.67 1.337 2.01.668v1.337h3.351l.67 2.005h2.68v1.337l2.303.292c2.387.376 2.387.376 3.058 1.045 1.56.245 3.123.469 4.69.668v1.337l2.387.251c2.666.327 5.103.956 7.664 1.754v1.337h6.701c.605 3.436.657 6.482.377 9.984l-.106 1.385a529.063 529.063 0 01-.271 3.336c-2.513.752-2.513.752-4.02 0l-1.634.626c-3.272.974-6.368.819-9.758.711l-.67-1.337a73.288 73.288 0 00-4.69-.669v-1.336l-2.681.668v1.337l6.031.668v1.337h2.01v1.337h-2.01V514h-1.34v-2.005h-2.01V514h-1.341v-3.342h-8.711v-2.005h-1.34v-1.337h-2.01v1.337h-2.01v-4.679h-1.34v1.337h-2.011v-4.679h-3.35v-3.342h-1.34v1.337h-2.01v-5.347h-1.341v5.347h-2.01v-2.005h-1.34v-1.337h-2.01v-5.347h-2.011v2.005h-1.34v-3.342h2.681v-1.337l2.01-.668-1.675-1.254-1.676-1.42v-1.337h-2.01c-1.131-.919-1.131-.919-2.01-2.005v-1.337l-4.021.669.671-2.006-1.341-.668v1.337h-2.68v-2.005h-2.01v-1.337h2.68v-1.337h-2.01v-1.337h-1.34v-2.005h-1.34v-1.337l-2.011-.668v-1.337l-2.01-.668v-1.337l-3.35-1.337v-1.337l-2.011.669-.67-1.337h-1.34v1.337h-3.35v3.342h-2.01v-3.342h-1.341v-2.006h1.341l.125-2.59.071-1.457-.196-1.3-2.011-1.337c-.457-.885-.905-1.776-1.34-2.673l-1.34-.669v-1.336h-2.68l-.67 2.673h-2.011v-2.673l-5.36-.669.67-6.015-.67 1.336h-1.341v-2.005h-2.01v-1.337h-1.34v-2.005h-2.01v-1.337h-1.34v-2.005h-2.011v-3.342h-3.35v-2.005h1.34v-1.337h-2.68v-2.005h-2.01v-3.342h1.34l1.34-4.679h-2.68v3.342h-3.351v-5.347h-2.01v-1.337h-1.34v-2.005h-2.01v-1.337h-1.341v-5.347h-2.01v-2.005h-1.34v-3.342h1.34v-5.347h-1.34l-.67 4.01c-2.68 0-2.68 0-3.853-.919-.838-1.086-.838-1.086-.838-2.423h-1.34v-2.005h-4.02v-1.337h2.01l-.67-5.347h-1.34v3.342h-1.341l-.67-6.684h-1.34v5.347H160.15v-2.005h3.35v-2.005h2.01v2.005h1.34v-2.005h1.341v-2.674l-1.419.047-1.848.036-1.838.047c-1.596-.13-1.596-.13-2.936-1.467l1.34-.668-4.021-.669v1.337l-5.36.668v1.337l-8.041 2.006v1.336h-3.351v1.337l-1.633.251-1.717.418-.67 1.336h-4.021v1.337l-2.303.251-2.387.418-.67 1.336h-4.021v1.337c-2.716.657-5.252.723-8.041.669v1.336l-3.795.392c-1.64.241-1.64.241-3.408.966-2.675.795-5.022.796-7.79.731l-1.495-.018c-1.205-.016-2.41-.04-3.614-.065v-1.337l-5.361-.669v-1.336l-2.22.083c-2.47-.083-2.47-.083-4.48-1.42a50.255 50.255 0 00-3.351-.669v-1.336l-8.041-2.006v-1.336c-3.013-1.503-5.414-1.449-8.711-1.337v-1.337l1.34-.668-2.01-.669v-1.337c-1.657.231-1.657.231-3.35.669l-.67 1.337h-2.011v-1.337h-3.35v-2.006h2.01c.22-.441.442-.882.67-1.336l2.01.668v-1.337h-2.01c-1.131-.919-1.131-.919-2.01-2.005v-1.337h-1.34l-.67-1.336c-.443.661-.885 1.323-1.34 2.005h-2.011v1.336h-2.01v-4.678h-3.35l-.252-1.964-.419-2.047-1.34-.668v6.016h-1.34v-1.337h-3.35v-2.006h3.35v-5.347l-1.34.669c-.44 1.689-.44 1.689-.67 3.342h-1.34v-5.348h1.34v-1.336h-3.35v1.336h-1.341l-.67-4.678-1.34 2.673h-2.01v-1.337h-1.34v-3.342h-2.01v-6.684h1.34c-.443-.661-.885-1.323-1.34-2.005-.085-1.796-.085-1.796 0-3.342h-1.341v6.684h-2.01v-1.337h-1.34v-3.342h1.34v-4.678l-1.34-.669v1.337l-3.35.668v-2.005h1.34v-8.689h1.34c.22.662.442 1.324.67 2.005-.37-2.639-.931-4.912-2.01-7.352h-.67v-4.011h-2.011l-.251-2.047c-.406-2.551-1.003-4.847-1.76-7.31h-1.34c-.22-.662-.442-1.324-.67-2.005.222 1.102.443 2.205.67 3.342h.67v3.342l2.01.668v5.347h-1.34v4.679h1.34v-3.342h1.341v2.005h2.01v1.337h-1.34v10.026h-3.35v-6.684h-2.01v-6.684h-1.34v-3.342H7.37v-3.342H5.36v-3.342H6.7l.67-5.347H5.36v-1.337H4.02c-.74-2.947-.722-5.671-.67-8.689h2.01v-1.337H2.01v-2.005H0v-8.689h2.01v-1.337H0v-2.005h2.01v-1.337H0v-2.005h3.35v2.005h1.34l-.376-1.546c-.294-1.796-.294-1.796.377-3.801H3.35v2.005H2.01v-3.342H0v-2.005h3.35v1.336h1.34c-.08-2.948-.163-5.896-.249-8.844l-.084-3.003c-.039-1.447-.081-2.894-.124-4.34l-.075-2.631c-.143-2.673-.444-5.267-.808-7.918H6.7l.67 4.679h1.341v2.005h-1.34l1.34 3.342-.67.669 1.34.668-.023-1.245-.019-1.637-.023-1.622c.097-2.256.99-4.221 1.782-6.316a3242.849 3242.849 0 00.963-2.548l-1.34.669c-.439 1.689-.439 1.689-.67 3.342h-1.34l-.123-1.784-.17-2.352-.165-2.326a44.074 44.074 0 00-.882-5.57h3.35c-.22 1.544-.442 3.088-.67 4.679h2.01v-10.026h-1.34v-1.337h1.34v-2.005h2.01v2.674h1.34v-9.358h-1.34v-2.005h1.34v-1.337h2.011v1.337h1.34v-4.679h-1.34v-2.005h1.34v-1.337h2.01v1.337h1.34v-8.021h4.021c-.22-1.103-.442-2.206-.67-3.342h-1.34v-2.005h1.34v-2.005h-1.34v-1.337h2.01v1.337h1.34v2.005h1.34v-5.347h-1.34v-1.337h2.01v1.337h1.34v-1.337h1.34v-2.005h2.011c1.61-3.211 1.75-6.504 2.01-10.026h3.35l-.376-1.462c-.307-1.966-.116-3.311.377-5.222h3.35v-6.684h1.34v1.337h2.01v-4.679l2.681-.669.67-6.684h1.34l.67 1.337c1.166-1.163.92-2.803 1.047-4.386l.17-2.05.123-1.585h1.34l.67 1.337h1.34v-4.679h-1.34v-1.336h1.34v-2.006h1.341v2.006h1.34l.67-8.69h2.01l.67 1.337.67-8.021h2.01v1.337h1.341v-8.021h-1.34v-2.005h2.01l1.34 3.342h1.34v-8.021h-1.34v1.337h-1.34c-.22.662-.442 1.324-.67 2.005h-1.34v-2.005h1.34l.67-2.005h1.34v-1.337h1.34v-2.005h-1.34v-1.337h2.01v1.337h1.34v4.01l1.34-.668v-6.016h-1.34v-2.005h1.34v-2.005h-1.34v-4.679h2.011v1.337h1.34l.67 3.342h1.34l-.376-1.462c-.307-1.966-.116-3.311.376-5.222h-2.01v-1.337h2.01v-2.005h1.34v2.005h1.34v-8.69H78.4v-5.346h2.01v2.005h1.341l.67 2.005 1.34.669c-.22-3.089-.442-6.177-.67-9.358h-1.34v-2.005h1.34v-1.337h-1.34V79.54h3.35c.754 3.175.754 3.175 0 4.678h2.01l-.146-1.566c-.353-3.952-.6-7.834-.523-11.802H85.1v-1.336h-1.34v-2.005h1.34v-1.337h3.35l.67 4.678h1.34l-.147-1.227c-.451-4.065-.601-8.052-.523-12.14h-1.34v-1.337h2.01V54.14h3.35v-6.684h-1.34l.338-2.302c.378-3.011.356-5.949.29-8.977-.054-4.412.176-8.505 1.383-12.783h-2.68v-3.342h4.02v-1.337h-2.01v-5.347h2.01v-2.005h-2.01v-1.337h-2.01V8.021h2.01V6.684h3.35V5.347h2.01V3.342h-2.01V1.337h2.01V0zm-3.35 32.083v2.005h2.01l-.67-2.005h-1.34zm0 3.342c.22.662.442 1.324.67 2.005l.67-2.005h-1.34zm0 3.342l-.67 2.005h1.34l-.67-2.005zm-.67 3.342l.67 1.337-.67-1.337zm-1.34 14.037c-1.494 2.892-1.29 4.868-.67 8.02h-1.34v8.021h.67c.22-2.206.442-4.411.67-6.684h1.34V58.82h1.34l-.67-2.005-1.34-.668zM88.45 74.192l.67 2.006-.67-2.005zm1.34 2.006c-1.442 2.157-1.475 2.863-1.34 5.347 1.104-1.171 1.104-1.171 2.01-2.674-.145-1.476-.145-1.476-.67-2.673zm-3.35 10.694v1.337H85.1v3.342l1.34-.668v-2.006h1.34v-2.005h-1.34zm-1.34 7.353l.67 1.336-.67-1.337zm-2.01 2.673c-1.535 2.296-1.46 3.332-1.341 6.016h.67v-3.342l2.01-.669v-2.005h-1.34zM78.4 104.94l.67 2.005-.67-2.005zm1.34 1.337l.67 2.005-.67-2.005zm-1.34 2.005v4.679h.67v-4.679h-.67zm-3.35 6.684l.67 2.005-.67-2.005zm-4.021 10.026c.22 1.544.442 3.088.67 4.679 1.57-1.787 1.57-1.787 2.01-4.011l-2.68-.668zm-3.35 7.352v3.342l1.34.669 1.34-1.337c-.214-1.409-.214-1.409-.67-2.674h-2.01zm168.86 1.337l1.34.669.67 2.005h2.01l-1.34-2.674h-2.68zm-172.211 5.347l.67 2.006 1.34-.669.67 1.337-.67-2.674h-2.01zm.67 2.674l.67 2.005-.67-2.005zm-4.02 4.01v2.006h1.34v-2.006h-1.34zm2.01 1.337l.67 1.337-.67-1.337zm-4.69 5.347l.67 1.337-.67-1.337zm-2.011 8.021l.67 1.337-.67-1.337zm-12.062 16.042l.67 2.005.67-2.005h-1.34zm0 4.679l.67 2.005-.67-2.005zm-3.35 2.005v1.337h1.34v-1.337h-1.34zm-3.35 6.684l.67 1.337-.67-1.337zm-6.701 10.026v1.337h1.34v-1.337h-1.34zm-3.35 6.684l.67 1.337-.67-1.337zm0 4.679l.67 2.005-.67-2.005zm-7.372 14.704v2.006h1.34v-2.006h-1.34zm-3.35 1.337v1.337h1.34v-1.337h-1.34zm2.01 2.674l-2.01.668v5.347h1.34v-3.342h1.34c-.22-.882-.442-1.764-.67-2.673zm-3.35 9.357c-1.089.75-1.089.75-2.01 2.006-.168 2.089-.168 2.089 0 4.01h1.34v-3.342h1.34l-.67-2.674zM3.35 288.081v2.005h1.34v-2.005H3.35zm0 3.342v2.005h2.01v-2.005H3.35zm0 3.342v2.005h2.01v-2.005H3.35zm0 3.342v2.005h2.01v-2.005H3.35zm4.691 7.352l.67 2.674h1.34v3.342h1.34v-5.348l-3.35-.668zm-1.34 3.342l.67 3.342h1.34v-3.342h-2.01zm4.02 10.026v3.342h1.34v-3.342h-1.34zm301.537 16.042l1.34 2.673v-2.673h-1.34zm-290.145 3.342l-1.34 4.01h1.34v-1.337h1.34l-1.34-2.673zm288.805 0v1.336h1.34v-1.336h-1.34zm-1.34 2.005l.67 1.337-.67-1.337zm-286.125 1.337l1.34 2.673v-2.673h-1.34zm284.115.668l.67 2.674-.67-2.674zm-282.105 2.674v2.673h1.34v1.337h1.34V346.9c-1.3-1.14-1.3-1.14-2.68-2.005zm280.094 0v1.336h1.341v-1.336h-1.341zm-278.084 8.02v6.684h1.34l.67-5.347-2.01-1.337zm266.023 2.674l1.34 1.337v-1.337h-1.34zm-262.672 2.005c.22.662.442 1.324.67 2.005v-2.005h-.67zm3.35.669v1.336l1.34-.668-1.34-.668zm1.34 2.005v1.337h1.34v-1.337h-1.34zm-1.34 1.337v1.336h1.34v-1.336h-1.34zm3.35.668l.67 1.337-.67-1.337zm1.34 1.337v1.337h1.34v-1.337h-1.34zm2.011 2.005l.67 1.337-.67-1.337zm1.34 1.337v1.337h1.34v-1.337h-1.34zm2.01 2.005l.67 1.337-.67-1.337zm1.34 1.337v1.337h1.34v-1.337h-1.34zm2.01 2.005l.67 1.337-.67-1.337zm1.341 2.005l1.34 1.337v-1.337h-1.34zm124.635 6.684l.67 2.674h4.691v1.337c.795 1.183.795 1.183 2.01 2.005 1.45-.152 1.45-.152 2.68-.668l-2.01-.669v-1.337h-2.01l-.67-2.005h-2.68v-1.337h-2.681zm-115.924 1.337v1.337l2.01-.669-2.01-.668zm112.574 2.674v2.005h2.01v-2.005h-2.01zm7.371 0l.67 1.337-.67-1.337zm26.133.668v2.005h1.34v-2.005h-1.34zm-20.103 2.005l1.341 1.337v-1.337h-1.341zm-2.68.669v2.005h1.34v-2.005h-1.34zm4.691.668v1.337l1.34-.668-1.34-.669zm1.34 2.005l.67 2.006.67-2.006h-1.34zm-2.68.669v2.005h1.34l-.67-2.005h-.67zm4.69.668l.67 2.005-.67-2.005zm1.34 2.674c.334 2.464.738 3.746 2.681 5.347-.351-1.847-.743-3.56-1.341-5.347h-1.34zm3.351 4.679v2.005h-1.34v-1.337h-1.341v6.684h1.341v-3.342h2.01v8.689h1.34c.399-1.74.67-3.307.67-5.096 0-1.588 0-1.588.67-3.593l-1.34-1.337c-.419-1.42-.419-1.42-.67-2.673h-1.34zm3.35 6.015v1.337l1.34-.668-1.34-.669zm2.01 2.005l.67 1.337-.67-1.337zm2.011 3.342l.67 1.337-.67-1.337zm-3.351 1.337v4.679h1.34l.67-4.679h-2.01zm4.021 2.005v2.674h1.34l.67-2.674h-2.01zm2.01 1.337l.67 2.005 1.34-1.336-2.01-.669zm2.01 2.005v1.337l1.34-.668-1.34-.669zm-1.34 3.342v6.016h1.34c.991-1.976.711-3.838.67-6.016h-2.01zm2.68 0l1.34 6.016h1.341l.67-3.342h-1.34l-.671-2.674h-1.34zm3.351 4.679l.67 2.005h1.34l-.67-2.005h-1.34zm2.01 2.005v1.337l1.34-.668-1.34-.669zm-4.021 1.337v1.337h1.341v-1.337h-1.341zm6.031.669v1.336l1.34-.668-1.34-.668zm-2.68.668v4.01h2.01c-.231-1.652-.231-1.652-.67-3.342l-1.34-.668zm6.031 2.674v1.336h1.34v-1.336h-1.34zm-2.011 2.005l-.67 2.673h2.011v-2.673h-1.341zm2.011 2.673l.67 3.342h2.68l.67-4.01c-1.356 0-2.696.397-4.02.668zm-3.351 1.337v2.005h1.34v-2.005h-1.34zm6.701 2.005v6.684h4.691c.812-1.524.812-1.524 1.34-3.342-.514-1.527-.514-1.527-1.34-2.673l-2.681.668.67-2.005c-1.39-.1-1.39-.1-2.68.668zm6.701 5.348v1.336h1.34v-1.336h-1.34zm2.01 2.005l.67 1.337-.67-1.337zm3.351 3.342l.67 1.337-.67-1.337zm1.34 2.005v2.005h1.34v-2.005h-1.34zm2.01 3.342v1.337h-1.34v2.673h2.68v-1.336h1.34v-1.337h-1.34v-1.337h-1.34zm18.092 18.715v1.337h2.01v-1.337h-2.01zm14.742 11.363v2.005c1.886 1.522 1.886 1.522 4.02 1.337l.671 2.005h1.34l.67 2.674h1.34v1.337h2.01v2.005h1.34v-1.337h1.341l.67 2.005h2.68v-1.337h-2.68c-.222-.661-.443-1.323-.67-2.005h-1.341v-1.337h-2.01v-2.005h-2.01v-1.337c-2.159-1.548-2.159-1.548-4.691-2.005l-.67-2.005h-2.01zm0 2.674l-.67 2.005h2.01v-2.005h-1.34zm16.082 9.357l.67 6.016h1.34l.67-2.674h1.34v2.674l6.701.668v-1.337h-3.35l-.67-2.005h-1.34V501.3h-3.351l-.67-2.005h-1.34zm-2.01.669l-.67 2.005h1.34l-.67-2.005z" fill="#6D9773" fill-opacity=".1"/></svg>