<svg width="456" height="658" fill="none" xmlns="http://www.w3.org/2000/svg"><path d="M218.663 446.537c1.484-.507 1.484-.507 3.266-.733l2.388 2.253c1.317.445 1.317.445 2.789.776 3.012.724 4.921 1.838 7.067 3.9 1.134 1.152 1.134 1.152 2.663 1.85 1.274.683 1.274.683 1.979 2.344l1.185-.054c3.843.295 7.296 2.182 10.659 3.723l2.569 1.16c1.436.65 2.871 1.304 4.304 1.96l1.597.715 1.355.617c1.424.476 2.637.538 4.176.506l.704 1.66 1.26.024c7.824.256 7.824.256 10.655 2.758.96 1.103.96 1.103 1.546 1.957l-1.349 1.879-6.632-.452-.47-1.107-1.843.293c-2.352.15-3.607-.082-5.63-1.04l-.47-1.107-1.212.515-.47-1.107-1.128.083c-2.542-.231-4.606-1.165-6.888-2.111l-1.362-.548c-7.283-2.959-7.283-2.959-7.917-4.454l-1.358-.036c-2.985-.08-2.985-.08-4.43-1.06-1.542-1.173-1.542-1.173-3.838-1.351a44.23 44.23 0 01-2.387-2.253c-1.846-1.563-3.357-2.713-5.753-3.437-2.063-1.233-2.341-1.805-3.092-3.913l-1.213.515-2.72-4.725zM229.046 435.597l3.032-1.287.47 1.107 1.284-.137c2.253.3 2.923 1.399 4.233 3.021l1.213-.515 2.994 1.996c1.711.599 1.711.599 3.525 1.035 6.42 1.753 6.42 1.753 9.094 3.407l.705 1.66 1.212-.514.705 1.66 1.473-.217c1.981.036 2.691.247 4.34 1.057 2.018 1.2 2.018 1.2 4.184.796l1.917 1.146 2.191-1.583.704 1.66 1.213-.515c1.508 1.09 2.128 1.641 2.857 3.36l1.448.039-3.07 4.569c-4.257-.22-6.327-.649-9.291-3.339-1.641-1.214-3.534-1.205-5.616-1.438a235.72 235.72 0 01-2.994-1.995 87.217 87.217 0 00-3.155-1.111c-8.451-2.852-8.451-2.852-11.245-5.842l-2.054.219c-1.096-.673-1.096-.673-2.199-1.598l-1.108-.912c-.998-.889-.998-.889-2.309-2.292l-1.213.515c-2.668-1.026-3.441-1.364-4.54-3.952z" fill="#0C3E2E" fill-opacity=".15"/><path d="M243.113 121.298l1.819-.772.469 1.107-1.212.515.383 1.429c.323 1.651.486 3.077.541 4.752.123 3.08.578 6.057 1.078 9.078.204 1.256.394 2.515.559 3.779.748 5.59 2.105 11.001 3.457 16.451l.486 1.973.446 1.782c.303 1.444.303 1.444.167 2.808.333 1.424.693 2.828 1.082 4.236l.341 1.248c1.175 4.212 2.578 8.333 4.041 12.447l-3.873.991c-2.843-5.842-4.835-11.747-6.375-18.075l-.485-1.986c-.922-3.932-1.633-7.873-2.223-11.879a176.373 176.373 0 00-.988-5.748l-.344-1.843a926.327 926.327 0 00-.703-3.698c-.65-3.511-1.01-6.839-.932-10.447l1.212-.515-.385-1.225c-.255-2.502.377-4.016 1.439-6.408zM134.499 205.944l1.213-.515c3.015 1.472 4.596 3.06 6.336 5.762a54.275 54.275 0 006.164 7.672c7.051 7.34 7.051 7.34 8.812 11.488l1.212-.515.636.879c1.654 2.257 3.362 4.36 5.314 6.394a612.886 612.886 0 013.161 3.708c1.047 1.192 1.047 1.192 2.925 2.201.782 1.146.782 1.146 1.48 2.434l.713 1.297.528.993-2.661.476-.469-1.107-1.213.515-1.546-1.957-1.213.515c-5.254-5.181-10.008-10.477-14.323-16.395-2.011-2.742-4.119-5.16-6.623-7.513-2.258-2.45-3.979-5.273-5.774-8.045-1.135-1.8-1.135-1.8-2.123-2.992-1.223-1.584-1.809-3.458-2.549-5.295zM232.987 141.274l1.213-.515c2.96 6.588 5.458 13.329 6.913 20.434.644 2.876 1.471 5.693 2.297 8.516.513 1.775.918 3.383 1.014 5.251.349 1.197.722 2.386 1.113 3.57l.62 1.888.48 1.441-2.425 1.03c-3.329-2.629-4.17-8.59-5.211-12.486l-.476-1.768c-1.495-5.691-2.76-11.437-3.996-17.197l-.3-1.391a2247.505 2247.505 0 01-1.316-6.224c-.297-1.739-.297-1.739.074-2.549zM168.469 232.024l1.213-.515 1.781 2.511 2.19-1.583c1.752 1.947 3.173 3.662 4.032 6.127-.937.847-.937.847-2.19 1.583-3.135-.677-4.305-2.926-5.851-5.355-.796-1.663-.796-1.663-1.175-2.768zM269.151 243.504l1.213-.514.359 2.215c.283 1.742.578 3.48.891 5.215 1.426 7.952 2.429 15.667 2.009 23.848-.155 3.249.364 6.341.876 9.503.278 1.866.454 3.486.094 5.388-.459 2.615-.011 4.969.362 7.529.504 3.73.915 7.34.678 11.152-.002 1.745.262 3.409.51 5.121.304 2.591.224 5.213.207 7.836a50.74 50.74 0 00.553 7.519c.353 2.532.55 5.086.767 7.639l.148 1.638c.267 3.121.309 6.145.155 9.297.234 1.716.234 1.716.569 3.025l-1.077-.849-3.403 2.097c-.651-2.144-.803-3.575-.396-5.859.45-2.597.191-4.933-.249-7.462-.533-3.427-.808-6.703-.669-10.214.032-1.322-.055-2.565-.209-3.866-.189-1.921-.189-1.921.318-4.096-.207-1.25-.207-1.25-.605-2.478l-.668-2.207 1.213-.515-.701-1.381c-.818-2.238-.825-3.991-.771-6.405.04-4.585-.282-9.078-.725-13.614l-.192-1.974-.373-3.762c-.447-4.558-.801-9.107-.847-13.711-.024-1.984-.161-3.52-.654-5.438-.755-3.08-.488-6.204.058-9.392.476-2.939.191-4.598-1.118-7.224-.741-1.53-.741-1.53-1.157-2.938 1.179-2.174 1.179-2.174 2.698-3.758l.136-1.365zM210.417 366.422l1.213-.514 1.145 1.09c4.245 4.485 4.245 4.485 9.988 6.595 1.027.851 1.027.851 2.194 2.008a131.81 131.81 0 006.125 5.579 53.175 53.175 0 012.383 2.242c.936 1.026.936 1.026 2.448.92 1.02.968 1.02.968 2.116 2.246l1.1 1.261c.952 1.256.952 1.256 1.892 3.47l1.213-.514 1.103 1.124c1.153 1.271 1.153 1.271 2.732 1.167a60.54 60.54 0 012.251 3.617l1.212-.514 3.328 4.466 1.212-.514c7.56 5.878 7.56 5.878 9.55 9.011l1.212-.515c1.026.719 2.048 1.442 3.067 2.169l1.726 1.219c1.43 1.157 1.43 1.157 2.135 2.817l2.053-.219 1.496 1.733c2.362 2.716 5.36 4.358 8.531 6.158 2.426 1.38 4.569 2.865 6.723 4.597l1.525.537c2.79.982 5.133 2.561 7.593 4.085 1.725 1.309 1.725 1.309 3.367.979l1.21-.309.636 1.077c1.462 1.829 3.071 3.166 5.215 4.278l1.801.134c2.617.324 3.936 1.556 5.864 3.106 1.272.999 1.272.999 3.507 1.163a53.985 53.985 0 003.266-.733l.547 1.605c.662 1.788.662 1.788 2.184 2.298l1.203.306.47 1.107 1.212-.514a75.899 75.899 0 012.994 1.995c1.221.658 2.451 1.299 3.69 1.93.986.658.986.658 1.691 2.318-2.643 1.36-2.643 1.36-4.296 1.048-1.259-.649-1.259-.649-2.651-1.61-2.205-1.424-4.606-2.17-7.184-2.911-1.509-.648-2.437-1.61-3.536-2.746l-1.819.772-1.917-1.145-2.054.218-.94-2.214-2.001.237c-2.107.2-2.107.2-2.948-.096a55.556 55.556 0 01-1.175-2.767l-2.66.476-.705-1.661-1.447-.039-.705-1.66-1.213.515-1.546-1.957-2.425 1.029-.624-.837c-1.013-1.23-2.127-2.286-3.31-3.372l-1.214-1.281-1.173-.972-2.054.219a117.33 117.33 0 01-3.229-2.549l-1.299-.428c-1.224-.461-1.224-.461-2.565-1.933l-1.282-1.334-2.054.219c-.867-.798-.867-.798-1.75-1.911-1.893-2.176-3.901-3.356-6.586-4.592-1.115-.591-1.115-.591-1.584-1.698l-1.213.515c-3.376-2.895-3.376-2.895-4.169-4.763l-1.212.515-.604-.864-.814-1.107-.797-1.108-.877-.835-2.054.219c-1.307-1.229-1.307-1.229-2.705-2.894l-1.392-1.641-1.383-1.631c-.868-.94-1.741-1.877-2.622-2.806l-1.213.514-1.732-1.551a92.232 92.232 0 00-4.871-3.99c-3.848-2.945-7.311-5.691-10.089-9.622l-.861-.902-2.054.218c-3.332-2.238-6.084-5.169-8.606-8.179-.95-1.117-1.92-2.207-2.912-3.291l-.93-1.018a495.89 495.89 0 00-1.842-2.002c-1.452-1.596-2.379-2.866-3.225-4.858z" fill="#0C3E2E" fill-opacity=".1"/><path d="M195.653 141.442l1.819-.772c.393 1.412.784 2.825 1.173 4.238l.327 1.173a128.785 128.785 0 011.746 7.2c1.186 5.364 2.81 10.599 4.365 15.856 2.601 8.806 2.601 8.806 3.142 12.037 1.368 8.12 4.318 16.012 6.839 23.803l.443 1.375c2.208 6.831 4.583 13.575 7.203 20.256 1.027 2.621 2.014 5.223 2.808 7.928 1.615 5.337 3.813 10.475 5.873 15.647l1.311 3.311c1.063 2.683 2.129 5.364 3.196 8.045l-1.213.515.679.882c2.417 3.254 4.143 6.584 5.737 10.281l.792 1.796c.564 1.277 1.125 2.556 1.684 3.836 1.509 3.45 3.04 6.89 4.571 10.331l.958 2.154c3.394 7.612 6.906 15.167 10.463 22.705l.916 1.941c4.352 9.207 8.8 18.354 13.687 27.298l-.225-1.298c-3.894-22.792-3.894-22.792-1.49-26.329 1.078-.845 1.078-.845 2.897-1.617.513 5.854.513 5.854.606 8.276.103 1.572.316 3.027.596 4.564.362 2.074.39 3.96.241 6.094.023 2.523.568 4.969.986 7.433.262 1.887.262 1.887.122 4.191-.11 7.48 3.318 14.799 8.055 20.465.933 1.252 1.545 2.617 2.198 4.023 2.517 5.401 5.494 10.514 8.599 15.605l.646 1.063c2.06 3.798 2.06 3.798 4.917 6.986.709 1.23 1.386 2.477 2.048 3.732l1.251 2.35.661 1.249c5.497 10.356 11.067 20.586 18.269 29.938 2.23 2.901 4.308 5.902 6.39 8.903 1.543 2.202 3.132 4.237 5.047 6.168l-.409-2.261-.518-2.979-.271-1.485c-.495-2.889-.574-5.384-.196-8.361.027-1.737-.02-3.467-.061-5.2-.012-.889-.024-1.778-.034-2.667l-.016-1.327-.017-1.326-.017-1.349c-.023-1.853-.038-3.703.003-5.56.042-1.573.042-1.573-.393-3.533-.416-2.829-.037-5.561.303-8.432.43-3.88.447-7.7.386-11.568-.051-3.976.136-7.861 1.058-11.811l1.213-.515-.444-1.363c-.407-2.511-.163-4.682.14-7.235.174-1.714.224-3.374.221-5.085.001-2.829.241-5.606.552-8.438.16-1.59.259-3.167.331-4.757.272-5.685 1.105-11.296 2.058-16.954.137-.86.259-1.722.369-2.584.456-3.423.456-3.423 2.055-4.778l1.349-.614c1.918 1.146 1.918 1.146 2.222 2.283.03 1.371-.065 2.69-.243 4.063l-1.213.515.066 1.143c.145 2.631.269 5.244.192 7.893l-1.213.515.235 1.819c.29 2.853.093 5.696-.114 8.581l-1.212.515-.005 1.423a106.14 106.14 0 01-.254 5.341 113.617 113.617 0 00-.25 7.21c-.019 3.838-.453 7.644-.898 11.481-.325 2.945-.427 5.833-.438 8.773-.03 2.825-.156 5.653-.269 8.481-.138 3.567-.238 7.132-.339 10.698a374.93 374.93 0 01-.391 9.228c-.179 3.517-.16 7.022-.101 10.527l.022 1.41c.016.928.034 1.855.056 2.783.035 2.008-.038 3.728-.506 5.731.163.943.373 1.878.609 2.803.586 2.548.858 4.999.971 7.622.188 4.401.601 8.111 3.475 11.599l1.077.849c.666 1.035 1.315 2.08 1.955 3.131a41.7 41.7 0 006.245 7.76 55.503 55.503 0 012.622 2.806l-.136 1.364-2.425 1.03c-3.447-1.496-5.155-3.743-7.171-6.673-1.633-2.337-3.237-4.548-5.317-6.547-1.653-1.615-2.4-2.837-3.11-4.982l-1.819.772-.305-1.208-.432-1.582-.414-1.57c-.461-1.461-.461-1.461-1.586-2.195-1.763-1.427-2.528-3.369-3.476-5.343l-.601-1.219c-.487-.989-.968-1.981-1.447-2.974l-1.213.515-1.262-2.046c-3.553-5.789-3.553-5.789-7.604-11.256-5.018-6.134-8.931-12.926-12.622-19.867l-.763-1.433-.669-1.273c-.651-1.121-1.399-2.087-2.212-3.103a256.1 256.1 0 01-2.504-4.53c-2.787-5.094-5.661-10.137-8.569-15.165-.487-.842-.972-1.685-1.457-2.528a1147 1147 0 00-2.069-3.578l-.634-1.105c-.849-1.756-.849-1.756-2.403-2.842a41.577 41.577 0 01-1.343-2.321l-.814-1.501-.872-1.629-.895-1.661a299.522 299.522 0 01-6.208-12.276 235.927 235.927 0 00-1.79-3.641l-.644-1.335c-1.193-2.538-1.193-2.538-3.61-3.861l-1.597-.159c-1.62-1.007-1.62-1.007-3.225-2.224l-1.618-1.212c-1.379-1.109-1.379-1.109-2.69-2.512l-1.213.515c-3.685-1.794-6.91-4.48-8.473-8.162l-1.213.515-.839-.797a584.746 584.746 0 00-8.276-7.684 742.758 742.758 0 01-3.07-2.821c-2.922-2.711-2.922-2.711-6.049-5.209-1.757-1.497-2.864-3.175-4.13-5.055-.833-1.125-1.66-1.95-2.755-2.842-1.791-1.644-2.476-3.109-3.257-5.354l-1.212.514-.844-1.31-1.105-1.7-1.096-1.694c-.885-1.426-.885-1.426-2.064-2.273a99.748 99.748 0 01-1.711-3.927l-.896-2.156-.682-1.666-1.212.515c-3.404-6.271-6.15-11.995-7.382-19.077l1.212-.514c10.267 15.594 10.267 15.594 13.332 21.083 3.911 7.606 3.911 7.606 9.921 13.467.914 1.201 1.717 2.45 2.535 3.713 1.225 1.559 2.658 2.636 4.255 3.856 2.754 2.527 5.389 5.163 7.95 7.863 5.206 5.485 10.859 10.029 17.061 14.519 4.528 3.378 4.528 3.378 5.321 5.244l1.212-.515 2.623 2.806-.488-1.02a4243.58 4243.58 0 01-6.227-13.113l-.894-1.888c-4.602-9.74-9.068-19.542-13.49-29.364l-.857-1.902a1070.655 1070.655 0 01-10.818-24.92c-.616-1.469-1.233-2.938-1.851-4.406a2261.11 2261.11 0 01-5.45-13.064 1356.26 1356.26 0 00-2.271-5.439c-.354-.847-.704-1.696-1.051-2.546a316.106 316.106 0 00-1.462-3.508l-.825-1.993c-1.209-2.134-2.559-3.302-4.474-4.887-.884-1.087-.884-1.087-1.582-2.145-1.732-2.534-3.535-5.012-5.366-7.48l-.853-1.16c-1.216-1.638-2.423-3.176-3.848-4.658-1.236-1.367-1.868-2.566-2.529-4.26l-.589-1.48-.422-1.112-1.212.515-1.88-4.428 1.584-1.326c2.289.335 2.289.335 3.269 1.708l1.034 1.896c2.031 3.561 4.369 6.842 6.882 10.102l1.045 1.372.998 1.282.89 1.144c.93 1.112.93 1.112 2.791 2.101l-.723-2.203c-5.575-17.121-11.164-34.34-14.797-52.038a234.832 234.832 0 00-1.172-5.194c-1.393-5.927-2.718-11.729-3.117-17.858-.161-1.84-.518-3.564-.958-5.345z" fill="#0C3E2E" fill-opacity=".1"/><path d="M169.541 64.085l4.85-2.06.47 1.108 4.244-1.802 1.41 3.321-2.425 1.03.705 1.66 2.895.078.47 1.107 1.819-.772-1.175-2.768 1.213-.515 1.174 2.768 1.819-.772.705 1.66-1.819.772.47 1.107-1.819.772 1.175 2.768 1.819-.772.705 1.66-2.426 1.03-1.076-.85 2.115 4.982.742-1.622c3.081 5.322 5.143 10.782 7.049 16.605l1.819-.772 5.737 15.202 1.213-.515.136-1.364.577 1.167c1.642 3.182 3.185 5.527 6.078 7.767l.606-.258 1.175 2.768 1.212-.515-.47-1.107 1.213-.515.253 1.649c.593 2.08 1.139 2.925 2.938 4.183l2.054-.219.743-1.622 2.425-1.029c.098 1.918.098 1.918-.038 3.282l12.361-4.594-.098-1.918 4.244-1.801-1.781-2.51 6.336-5.303.136-1.364-4.615 2.612.47 1.107-1.819.772-1.175-2.767 3.638-1.544-.47-1.107 3.032-1.287.704 1.66 2.191-1.583-.569-3.025 4.244-1.801-1.174-2.768 1.819-.772c2.187 4.671 2.187 4.671 1.606 7.157l1.213-.515-.47-1.107 1.213-.514 2.486 4.17 1.212-.514-2.349-5.535 1.819-.773 1.175 2.768 1.212-.515 1.175 2.768-1.213.514.47 1.107-3.403 2.098 2.251 3.617-1.212.515.568 3.025-1.213.515-1.311-1.403.703 1.965.897 2.541.465 1.296c1.13 3.219 1.13 3.219.717 4.122.678 2.078 1.43 4.126 2.178 6.179l.505 1.827-.978 1.069.597 1.346.777 1.786.773 1.761c.613 1.594.987 3.081 1.241 4.774l-1.213.514.904 2.025c.763 1.788 1.282 3.482 1.544 5.428l-1.212.515c1.816 2.239 1.816 2.239 3.933 4.209l1.819-.772-.47-1.107 1.819-.772 3.054 7.196-1.818.772-.705-1.661-4.01 2.355c.144 1.191.292 2.38.442 3.569l.248 2.008c.257 1.95.257 1.95 1.251 4.052l1.447.038.47 1.107 3.638-1.544.705 1.661 1.213-.515.704 1.661-1.212.514 2.349 5.535-1.819.772-1.174-2.767-1.213.515.47 1.107-1.213.514-1.076-.849c-.651 4.24.953 8.288 3.486 11.585l1.213-.515.47 1.107 1.819-.772 1.175 2.767-1.819.772.704 1.661 1.819-.772.47 1.107 1.213-.515-.47-1.107 1.819-.772.705 1.661-1.819.772.47 1.107-1.213.514.705 1.661 1.213-.515.469 1.107-3.031 1.287.855 1.066c.968 1.51 1.268 2.697 1.494 4.469l-1.819.772 2.524.889c.099 1.918.099 1.918-.038 3.282l1.213-.515.47 1.107 1.819-.772.705 1.661 1.212-.515.705 1.66-2.425 1.03-1.311-1.403 2.114 4.981.978-1.068 2.251 3.617 1.213-.515 2.114 4.982.978-1.068c1.306 1.652 2.005 2.855 2.114 4.981l1.213-.514 1.175 2.767 1.212-.515 1.547 1.957 1.212-.515.705 1.661 2.054-.219c1.078.488 2.156.979 3.222 1.488 2.911 1.305 5.197 1.95 8.572 1.222l1.939-.7.47 1.107c4.483-.361 8.162-2.008 12.285-3.827l2.038-.883c1.65-.715 3.297-1.436 4.943-2.162l-.47-1.107c2.079-1.494 3.975-2.329 6.423-3.094l1.866-.59 1.412-.434-.47-1.107 1.026-.639c1.256-.851 1.256-.851 1.544-2.105 1.117-1.933 2.637-2.268 4.745-3.096l2.187-.875 1.685-.646.136-1.364 1.819-.772-1.683-.593c2.103-1.759 4.509-2.612 7.041-3.642l-.235-.553 4.616-2.613-.099-1.917 1.279-.497 1.669-.673 1.658-.658c1.655-.71 1.655-.71 2.807-2.625 2.367-1.694 4.433-2.488 7.275-3.089l-.704-1.66-1.819.772-1.175-2.768 1.819-.772.47 1.107 1.212-.514a6941.17 6941.17 0 012.251 3.617l3.267-.734a6941.17 6941.17 0 01-2.251-3.617l1.819-.772 1.175 2.768 1.212-.515 2.251 3.617 1.213-.515-.47-1.107 1.819-.772.568 3.025-1.819.772 2.214 6.9-1.584 1.325-1.448-.038-.705-1.661-1.213.515.47 1.107-3.031 1.287.705 1.66-1.819.772.47 1.107-1.584 1.326-.137 1.364-1.819.772.47 1.107-.978 1.069.842.296c.416.912.809 1.834 1.174 2.767l-1.819.772-.333-2.471-1.213.515.47 1.107-1.819.772.705 1.66-1.213.515.705 1.661-1.212.514.333 2.472-1.212.515 2.25 3.617-1.212.514.568 3.025-1.212.515.47 1.107-1.584 1.326-2.289-.335 2.721 4.724-1.213.515-.94-2.214-1.213.514.319 1.172c.329 2.443.191 4.838-.296 7.311l-.977 1.068 1.409 3.321-1.076-.85-1.213.515.94 2.214 2.425-1.029.705 1.66-2.425 1.03-.47-1.107-1.819.772 1.032.746c1.121.953 1.121.953 1.825 2.614l-1.212.514-.47-1.107-1.213.515.569 3.025-1.213.515.94 2.214-1.213.514 1.175 2.768-.978 1.068c-.105 1.275-.105 1.275-.031 2.667l.044 1.433.048 1.1-1.213.515.545 1.81c.487 2.293.438 4.066.084 6.415l-1.212.515 1.174 2.767-1.212.515.389 1.55c.401 1.966.554 3.846.611 5.864l-1.212.515.803 3.579-1.213.514 1.645 3.875-.978 1.068c.081 1.289.081 1.289.334 2.471l-1.213.515.854 1.801c.791 2.074.791 2.074.283 4.249.156 1.015.339 2.026.568 3.025l-1.212.515.754 1.348.967 1.759.968 1.747c.737 1.53.737 1.53.6 2.895l1.213-.515-1.175-2.768 1.311 1.404 1.819-.773-1.175-2.767 1.819-.772 2.35 5.535-1.819.772 1.175 2.768-2.426 1.029-1.174-2.768-1.213.515.9 1.693 1.159 2.21.595 1.114c.898 1.723 1.473 2.967 1.575 4.946l1.819-.772.705 1.661 1.819-.772-1.41-3.321 3.032-1.287 1.644 3.874-1.212.515.47 1.107 4.987-3.423-.235-.554 9.466-4.671-.235-.554 8.86-4.414-.47-1.107 1.819-.772.47 1.107 1.212-.515-.47-1.107 1.819-.772.47 1.107 1.213-.514-.47-1.107c3.146-2.071 3.146-2.071 5.457-2.317l.47 1.107 6.063-2.573-1.076-.85c4.465-2.137 4.465-2.137 6.415-1.743l.959.573.705-1.606c.781-1.638.781-1.638 1.387-1.895l1.175 2.767 6.063-2.573.705 1.66-3.032 1.287.47 1.107-1.819.772-.47-1.107-1.213.515 1.782 2.51-1.213.515.773.978c1.254 1.905 2.038 3.85 2.888 5.96l-2.221.248c-2.689.439-2.689.439-4.684 2.029l-.136 1.365-1.819.772 1.508 5.239-3.032 1.287.47 1.107-1.212.514.704 1.661-1.818.772-.334-2.471-.747 1.296c-.973 1.394-.973 1.394-2.792 2.166l.47 1.107.606-.258c1.088-.249 2.177-.494 3.266-.733l.705 1.661-3.031 1.286.47 1.107-1.819.772.704 1.661-2.19 1.583.334 2.471-1.213.515.47 1.107-1.213.515.289 1.102c.045 1.369.045 1.369-.904 2.507l-1.007.999-.136 1.364-1.213.515-1.311-1.403-.136 1.364-1.584 1.326-.137 1.364 2.054-.219.47 1.107-2.797 1.841.47 1.107 1.213-.515.47 1.107-3.403 2.098-.47-1.107-1.213.515 2.016 3.063-1.212.515.803 3.578-1.213.515.47 1.107-4.479 1.248.47 1.107-1.213.515.705 1.66-1.212.515.705 1.661c-.513 1.32-.513 1.32-1.115 2.432l1.213-.514-.47-1.107 1.213-.515.568 3.025-1.212.514.469 1.107-1.212.515-1.076-.849-.137 1.364-1.447-.039.183 1.065c.152 1.421.064 2.701-.123 4.135l-1.212.515.469 1.107 1.585-1.326.704 1.661-1.212.515.47 1.107-1.213.514.705 1.661-1.213.515-.47-1.107-.481 1.184c-.633 1.248-.633 1.248-1.845 1.763l.803 3.578 1.213-.514.704 1.66-1.212.515.47 1.107c-.452 1.253-.452 1.253-1.114 2.433l-1.213.514-.01 1.556c-.028 1.727-.028 1.727-.164 3.091l-1.213.515-1.311-1.403-.137 1.364-1.212.515.705 1.66-1.213.515-.038 3.282.371-.811 1.213-.514 1.175 2.767-2.425 1.03-.47-1.107-1.819.772 1.032.746c1.12.953 1.12.953 1.825 2.613l-1.213.515 1.175 2.768-1.819.772.099 1.918-1.213.514.47 1.107-1.213.515-.939-2.214-1.213.515.47 1.107c-.376 1.221-.376 1.221-1.114 2.433l-2.426 1.029 3.502-.18.47 1.107-.984.949c-1.199 1.21-1.199 1.21-.873 3.106l-1.213.514.47 1.107-1.212.515.704 1.661-1.212.514.098 1.918-1.212.515.47 1.107-3.032 1.287-.47-1.107-.371.811-2.426 1.029.47 1.107c-.376 1.221-.376 1.221-1.114 2.433l-2.425 1.029.47 1.107 1.447.039-3.637 1.544-.137 1.365c-1.339 1.147-2.753 2.171-4.178 3.222-1.341.928-1.341.928-1.317 2.376l-2.796 1.84-.137 1.365-2.425 1.029.47 1.107-2.797 1.841c.966 1.394 1.924 2.662 3.092 3.913l1.819-.772-1.781-2.51 1.819-.772-.705-1.661 1.819-.772 1.88 4.428 4.244-1.801.705 1.66-4.244 1.802.47 1.107 1.212-.515 1.175 2.767-1.819.773-1.175-2.768-1.212.515-.47-1.107-3.032 1.287 2.683 8.006 1.213-.515 2.016 3.064-.099-1.918 1.819-.772.29 1.168c.827 3.071 1.566 5.257 4.076 7.431l1.584-1.326 1.038 4.132 1.584-1.326.8 1.253.981 1.258 1.448.038.098 1.918 1.213-.515.136-1.364 1.41 3.321 1.114-2.432.594 1.503c.723 1.61 1.523 2.925 2.597 4.328l2.054-.219.94 2.214 1.212-.515 1.781 2.511 1.213-.515.705 1.66 1.584-1.325 1.41 3.321 1.212-.515c1.683.592 1.683.592 2.994 1.995l1.213-.514-1.546-1.957 1.818-.772.162 1.646c.832 2.507 2.109 2.986 4.477 4.224l.47 1.107 1.212-.515 1.781 2.51 1.213-.514.705 1.66 1.819-.772 1.175 2.768 1.212-.515c1.279.274 1.279.274 2.524.888l.94 2.214 2.66-.476-.136 1.365 1.212-.515.607-.257-.334-2.472 1.213-.514.705 1.66 1.212-.515.47 1.107-.978 1.069.099 1.917 1.213-.514.136-1.365.94 2.214c.833.314 1.675.609 2.524.889 1.351 1.182 1.351 1.182 2.387 2.253l1.819-.772a57 57 0 013.365 1.184l1.448.039-1.546-1.957 1.819-.772.704 1.661 4.245-1.802.704 1.661 1.819-.773c1.652 3.721 3.144 7.356 4.093 11.328l1.213-.515-.923-1.119c-.858-1.391-.858-1.391-.351-3.566l.705 1.66 1.819-.772 1.175 2.768-1.819.772.47 1.107-1.819.772 1.187 1.006c1.2 1.247 1.2 1.247 1.299 3.165l-7.882 3.345.94 2.214-3.032 1.287-.47-1.107-5.828 3.127-.705-1.66-3.032 1.287-2.486-4.171-1.212.515-.47-1.107-1.213.515-.705-1.661-1.819.772 1.175 2.768-1.212.514-2.35-5.535-1.819.772 1.175 2.768-1.213.515-2.114-4.982-3.267.733-1.175-2.767-1.819.772 1.88 4.428 3.032-1.287 1.174 2.768-1.212.514.47 1.107-3.638 1.545-.47-1.107-1.213.514-1.175-2.767 1.213-.515-.648-1.468-.844-1.941-.839-1.917a21.752 21.752 0 01-1.292-4.894l-1.819.772 2.35 5.535-1.213.515.705 1.66 1.213-.515.47 1.107-3.032 1.287-1.175-2.767 1.213-.515-1.175-2.768-1.212.515-.705-1.66 1.212-.515-1.409-3.321-1.448-.039.099 1.918-1.448-.039-.47-1.107-1.213.515 1.645 3.874-1.819.773-.47-1.107-1.212.514-1.175-2.767-1.819.772-.705-1.661 3.032-1.287-.47-1.107-3.032 1.287-1.879-4.428-1.213.515-1.175-2.768 1.213-.514-.502-1.124-.652-1.489-.649-1.47c-.5-1.329-.756-2.503-.88-3.924l-1.213.515-1.879-1.162-1.956-1.13-1.819.773.788 1.012c1.134 1.71 1.88 3.475 2.638 5.372l-1.819.772-1.175-2.767-1.584 1.325-.803-3.578-1.819.772-.47-1.107-1.819.772-.705-1.66-1.212.514-1.175-2.767-1.819.772c-.817-3.007-1.328-5.965-1.705-9.075 1.682.593 1.682.593 2.387 2.253l2.66-.476-.47-1.107-1.212.515-1.175-2.768-1.819.772c-1.629-1.691-3.102-3.382-4.403-5.316l-1.213.515-5.108-6.977-1.213.514-.47-1.107-2.19 1.583.94 2.214 1.819-.772.136-1.364 2.251 3.617 1.213-.515.704 1.661-1.212.515 2.819 6.642-2.796 1.84-.705-1.66 1.819-.773-2.35-5.535-1.819.772.47 1.107-1.213.515-1.174-2.767-1.819.772-.47-1.107 1.819-.772-4.836-9.706.978-1.068 1.175 2.767 1.819-.772-2.016-3.064-1.213.515-.705-1.66c-1.518 1.692-1.518 1.692-1.202 3.087a2814.742 2814.742 0 011.126 3.477l-1.212.515 1.175 2.767-1.819.773-3.055-7.196 1.213-.515-1.645-3.874-2.425 1.029.47 1.107-1.819.772-1.175-2.767 1.213-.515-.816-1.817c-.829-2.058-.829-2.058-.927-3.975l-4.851 2.059-1.311-1.404-7.746 1.982-.47-1.107-1.212.514-.705-1.66 1.212-.515-.469-1.107 2.053-.218.705 1.66 7.882-3.346c-2.018-.71-2.486-.438-4.528.289-2.659.948-2.659.948-4.528.29-1.711.303-1.711.303-3.267.733l-.47-1.107-2.425 1.029-1.076-.849c-1.381.16-1.381.16-2.661.476l-.469-1.107-5.222 2.869-.47-1.107 1.819-.772-.47-1.107-3.638 1.545-.47-1.107-3.873.99-.47-1.107-4.244 1.802-.47-1.107-4.479 1.248.94 2.214 3.266-.733 1.645 3.874-1.819.772-1.175-2.767-6.063 2.573-1.175-2.767-3.031 1.287-1.645-3.875 1.213-.515 1.546 1.957 5.692-1.763-.47-1.107-3.032 1.287-.705-1.66-2.425 1.029-.47-1.107-2.425 1.029-1.076-.849c-1.381.16-1.381.16-2.661.476l-.47-1.107-3.031 1.287-1.076-.85c-1.381.16-1.381.16-2.661.476l-.47-1.107-1.111.227a32.162 32.162 0 01-5.05.429l-1.076-.85-2.054.219-.47-1.107-2.426 1.029a57.993 57.993 0 01-3.365-1.184l-2.053.218-.47-1.107-1.147.038c-1.749-.115-1.749-.115-4.17-.762-2.065-.498-3.015-.723-5.051-.101l.469 1.107 1.819-.772.47 1.107 1.819-.772.47 1.107a127.365 127.365 0 01-4.009 2.355c-.841-.296-.841-.296-1.481-1.698l-.535-1.366-4.244 1.802-.705-1.661-1.819.773-.47-1.107-1.213.514-1.174-2.767-3.032 1.287-.705-1.661 1.213-.515-.705-1.66-1.584 1.325.47 1.107-1.213.515-.47-1.107-1.212.515.469 1.107-1.818.772-1.175-2.768 3.168-2.651-1.213.515c-.885.17-1.772.33-2.66.476l-1.546-1.957-3.638 1.544.47 1.108-1.819.772-1.175-2.768 2.425-1.029-.47-1.107-3.031 1.286-1.175-2.767-1.212.515 2.349 5.535-1.213.514-2.349-5.535-1.819.772 1.175 2.768-1.213.515-1.175-2.768-1.819.772-.705-1.66 1.819-.772a59.53 59.53 0 00-2.251-3.617l-1.447-.039 1.175 2.767-1.213.515-1.645-3.875 1.819-.772-1.076-.849c-1.686.287-1.686.287-3.266.733l1.174 2.768-1.819.772-1.174-2.768-2.426 1.03-.47-1.107-1.819.772-1.174-2.768 1.212-.515c-.462-.851-.928-1.701-1.396-2.551l-.785-1.435c-.765-1.379-.765-1.379-2.086-2.694l-3.031 1.286.47 1.107-1.819.773-.47-1.107-1.213.514-.705-1.66-1.819.772-.47-1.107-1.212.515-1.175-2.768-3.032 1.287-.704-1.661 1.212-.514-.47-1.107-4.244 1.801-.705-1.66 1.213-.515-.47-1.107-3.032 1.287-1.879-4.428 1.212-.515 1.175 2.767 1.819-.772-1.644-3.874 1.212-.515c1.334 2.074 2.539 4.087 3.426 6.385l1.213-.515-1.645-3.874 1.213-.515-.47-1.107-1.213.515-.47-1.107-1.213.514-2.387-2.253-1.213.515c-1.308-.343-1.308-.343-2.523-.888l-.47-1.107-2.054.218-.47-1.107-2.895-.077.705 1.66-1.213.515 1.251 2c1.252 2 1.252 2 1.098 3.535l-1.212.515-2.35-5.535-1.819.772.705 1.66-1.212.515-2.486-4.171-1.213.515.705 1.661-1.213.514-.705-1.66-1.819.772.705 1.661-1.212.514a7578.83 7578.83 0 01-1.88-4.428l-3.032 1.287-2.251-3.617 1.819-.772-1.54-1.102c-1.625-1.393-2.243-2.245-2.863-4.215l-1.213.515-1.174-2.768 1.819-.772-.47-1.107 6.063-2.573.47 1.107 4.479-1.248-.743 1.621 3.267-.733.47 1.107 1.376-.339c2.019-.421 3.954-.704 5.998-.831l1.076.849c1.381-.16 1.381-.16 2.66-.476l.47 1.107 1.411-.68c1.621-.607 1.621-.607 3.303-.014 1.299-.371 1.299-.371 2.685-1.012l1.558-.674 1.623-.722 1.642-.715c1.34-.584 2.677-1.173 4.013-1.767l-.569-3.025-1.213.515-.704-1.661 1.212-.515-.47-1.107 1.819-.772-.705-1.66 4.245-1.802.47 1.107-1.819.772 1.311 1.403 1.447.039-.183-1.065c-.152-1.421-.064-2.701.123-4.135l1.212-.515-.704-1.66-1.213.514-.705-1.66-1.819.772-.47-1.107 1.819-.772-.705-1.661 1.213-.514.705 1.66 2.425-1.029-.971-2.078c-.887-1.896-.924-2.286-.401-4.526l-4.108.438 1.175 2.767-1.212.515-4.23-9.963 1.918 1.146-.334-2.472-2.053.219-1.175-2.768.53 6.307-1.212.515a5238.15 5238.15 0 01-1.781-2.51l-1.213.515-.705-1.661-3.031 1.287-1.645-3.875-3.032 1.287-1.174-2.767 1.212-.515-.705-1.661-3.031 1.287-1.175-2.767-3.032 1.287-1.174-2.768-1.213.515-.705-1.661-1.819.772-.47-1.107-1.212.515-1.175-2.767-1.819.772-2.584-6.089-1.213.515-.47-1.107-1.819.772-.47-1.107-1.212.515 1.174 2.767-1.819.772-1.409-3.321 1.819-.772-.47-1.107 1.212-.515-.705-1.66c-2.248 1.33-2.248 1.33-3.539 3.462l-1.819.772-1.175-2.767 2.426-1.03-.47-1.107-3.873.991.568 3.025-1.212.514a507.978 507.978 0 01-1.404-3.201l-.789-1.8c-.627-1.641-.627-1.641-.725-3.559l-2.425 1.03 1.879 4.428-1.213.515-.704-1.661-1.819.772-.47-1.107 1.819-.772-2.486-4.171-1.213.515 1.175 2.768-3.032 1.287-.47-1.107 1.819-.773-1.644-3.874-1.819.772.94 2.214-1.213.515-4.601-9.152-1.447-.039-.495-1.587c-.715-1.874-.715-1.874-2.568-2.257-1.997-.772-2.107-1.133-2.862-2.95l-.729-2.14c-1.319.174-1.319.174-2.661.476-.697 1.523.341 3.147.83 4.588l.698 2.074.549 1.602-1.819.772-.47-1.107-1.213.515-.704-1.661 1.212-.515-4.229-9.963 2.895.078-.705-1.661-2.053.219-1.88-4.428-1.213.515-1.41-3.321-3.872.99 3.524 8.303-1.819.772-1.175-2.768-1.212.515-1.175-2.767 1.213-.515-1.175-2.768-1.213.515-1.88-4.428 1.82-.772-.705-1.661-1.82.773c-.154-.366-.31-.731-.47-1.107l-3.03 1.286-.706-1.66 1.213-.515-1.645-3.874 1.82-.772 1.174 2.767 1.82-.772-.706-1.661 1.213-.514-.47-1.107 1.213-.515-.705-1.661-1.213.515-.47-1.107 3.032-1.287.705 1.661 1.212-.515 1.683.592 1.819-.772-.705-1.66-1.213.514-.47-1.107 3.032-1.286 1.781 2.51 2.425-1.03.47 1.107-3.403 2.098c2.997 1.198 2.997 1.198 6.261 1.262l.469 1.107 1.187-.259c1.474-.217 1.474-.217 3.762.118l.47 1.107 4.01-2.355.47 1.107-.978 1.068 2.054-.218.47 1.107 4.244-1.802 1.076.85c1.991-.416 1.991-.416 3.873-.991l.47 1.107 10.072-4.929-.098-1.917 3.638-1.545 1.311 1.403 2.054-.218-.705-1.661 1.213-.514.704 1.66 4.616-2.612-.47-1.107 1.78-.733 2.327-.97 2.311-.958c1.675-.762 2.812-1.471 4.261-2.525 1.459-.541 1.459-.541 2.983-.981l1.541-.452 1.168-.33-.569-3.025 1.632-.897c1.789-1.213 2.281-1.729 2.885-3.633l.47 1.107 1.213-.515-.803-3.579 1.212-.514-1.175-2.768 1.584-1.325-2.819-6.643 3.032-1.286.705 1.66-1.213.515.801 1.783c.652 1.616 1.066 2.837 1.177 4.563l1.213-.515-.705-1.66 1.212-.515a407.75 407.75 0 00-1.225-2.991l-.689-1.683c-.557-1.452-.557-1.452-1.746-2.264-.709-1.445-1.277-2.935-1.88-4.428l-1.212.514-.705-1.66 1.212-.515-1.644-3.875-1.213.515-.705-1.66 1.213-.515-1.039-4.132-1.818.772 1.174 2.768-3.031 1.287-.705-1.661 1.212-.515-.469-1.107-1.213.515-.705-1.661 1.213-.514-.47-1.107-1.213.514-.705-1.66 1.213-.515-1.645-3.874-1.212.514-.705-1.66 1.212-.515-.704-1.66-3.032 1.286-.47-1.107-1.212.515-.705-1.66-3.032 1.286-2.819-6.642-1.819.773-4.229-9.964-1.819.772 1.174 2.768-2.425 1.029-1.879-4.428-1.819.773-.47-1.107 1.819-.773-.569-3.024-2.425 1.029-.705-1.661-1.819.773-.568-3.025-1.819.772-.705-1.661 4.479-1.248.47 1.107 1.819-.772-.705-1.66 1.213-.515 1.174 2.767 2.054-.218.718 1.9c.688 2.104.688 2.104 2.61 2.567.692 1.42.692 1.42 1.174 2.767l1.213-.515c-1.54-2.176-1.54-2.176-3.699-3.656-.713-1.441-1.276-2.936-1.879-4.428l-1.213.515-1.376-1.661c-1.206-1.677-1.206-1.677-2.322-1.995a368.064 368.064 0 01-1.773-3.029c-1.029-1.646-2.267-3.048-3.571-4.501l1.645 3.874.606-.257 2.486 4.171-1.212.514.47 1.107-1.819.772-1.175-2.767-1.213.515-1.076-.85-3.267.733-3.994-9.409-3.031 1.287-3.525-8.303 1.213-.515-.705-1.66-2.425 1.029-.705-1.66-1.819.772-.47-1.107 3.032-1.287.47 1.107 1.819-.772-2.251-3.617 1.212-.515-.855-1.066c-.968-1.51-1.268-2.698-1.494-4.469l-.606.257-1.819.772-.705-1.66-1.213.514c-.603-1.09-1.2-2.184-1.795-3.28l-1.009-1.845c-.776-1.642-1.19-3.036-1.425-4.838l1.819-.772-.47-1.107-1.819.772-.705-1.66 1.213-.515-.47-1.107-1.213.515-.705-1.661 3.032-1.287-2.35-5.535 1.213-.514-.705-1.661 1.819-.772-.47-1.107a6576.23 6576.23 0 004.245-1.802l.47 1.107 1.819-.772-.47-1.107 1.819-.772.704 1.661 1.213-.515 1.448 1.304c1.597 1.403 1.597 1.403 3.313 1.166l1.128-.397c1.306 1.653 2.005 2.856 2.115 4.982l.977-1.069-.098-1.918 1.819-.772 1.174 2.768-2.425 1.029c1.193 1.502 1.193 1.502 2.994 1.996l.841.296-.098-1.918 2.425-1.029.47 1.107-1.819.772.333 2.471 1.213-.515c1.308.343 1.308.343 2.524.889l.47 1.107 2.425-1.03 1.076.85 2.054-.219.47 1.107 3.638-1.544.47 1.107 3.266-.733.47 1.107 1.02-.759c1.592-.969 2.995-1.579 4.724-2.251 3.942-1.623 6.496-4.11 9.217-7.26l.978-1.068-2.054.218 1.302-1.042c1.429-1.242 1.429-1.242 1.253-2.737l-.327-1.086 3.032-1.287-.099-1.918.978-1.068.246-1.738c.398-1.802.398-1.802 1.533-2.814l1.055-.571-.568-3.024-1.213.514.47 1.107-1.584 1.326-1.879-4.428 1.819-.772.469 1.107 1.213-.515.136-1.364 1.819-.772c-.948-3.972-2.44-7.608-4.092-11.328l-1.213.515-1.879-4.428 1.819-.772.704 1.66 1.213-.515.47 1.107 1.213-.514.704 1.66-1.212.515.47 1.107 1.819-.772c-.831-2.089-1.706-4.041-2.888-5.96-1.182-1.919-2.057-3.871-2.888-5.96l-1.212.515-.705-1.661 1.819-.772-.705-1.66 1.213-.515 2.486 4.171 1.212-.515-.47-1.107 1.213-.515-1.137-6.05-.606.258 1.508 5.239-1.076-.85-1.213.515-3.054-7.196-1.213.515c-.47-1.107-.47-1.107-.018-2.36.662-1.18.662-1.18 1.875-1.694l1.781 2.51 1.819-.772-1.683-.593c-.832-1.632-.832-1.632-1.632-3.635l-.813-2.007-.609-1.553-1.213.514-.704-1.66 1.819-.772-.47-1.107 1.212-.515 3.562 5.02-1.212.515 1.546 1.957c1.104-2.412-1.478-6.835-2.367-9.054a301.852 301.852 0 00-2.059-4.745l1.212-.515 1.782 2.51c-.118-2.295-.957-4.057-1.876-6.103-1.766-3.933-1.766-3.933-1.611-5.481l1.213-.515.47 1.107 1.819-.772-1.645-3.875-1.819.772-.705-1.66 1.819-.772-.705-1.66 1.213-.516.705 1.66 1.819-.771-1.88-4.428 1.819-.772 1.076.85 1.349-1.88-.47-1.107-1.212.515-.705-1.66-1.213.514-.47-1.107c1.411-.68 1.411-.68 3.032-1.287l1.683.593-1.645-3.875 1.819-.772-.705-1.66 1.213-.515-.47-1.107 1.819-.773-1.41-3.32 1.819-.773.705 1.66 2.425-1.029-.705-1.66-1.212.515-.47-1.107zm-.175 4.646l.94 2.214 1.584-1.325-1.311-1.404-1.213.515zm-2.971 6.487l1.547 1.957.272-2.729-1.819.772zm4.442 2.034c-3.916 10.775-5.228 20.656-4.564 31.731.113 2.244.105 4.492.1 6.746.037 7.683.767 15.309 1.833 22.861 1.992 14.187 2.783 28.024-6.994 40.734-5.261 6.403-11.375 10.883-19.917 12.291-10.861 1.078-19.142-2.733-27.187-8.628l-1.212.515-1.312-1.404c-2.339-.546-3.37-.552-5.625.551-1.63 1.083-1.63 1.083-2.257 2.795.612 12.942 11.946 27.817 20.366 37.144 1.07 1.221 2.048 2.504 3.044 3.78 1.655 2.042 3.455 3.969 5.237 5.912 4.933 5.394 4.933 5.394 7.063 7.829 4.458 5.078 9.248 9.736 14.283 14.31 8.319 7.561 14.869 15.619 20.113 25.382l.82 1.489c2.931 5.993 3.907 13.942 1.34 20.457-3.417 8.322-9.462 14.778-17.363 19.782l-1.713 1.089c-8.979 4.949-18.978 9.03-29.073 10.673l-1.378.234c-7.5 1.246-13.531.945-20.613-1.053-3.048-.77-6.06-1.4-9.254-.617-1.255.787-1.255.787-2.08 1.945-.364 1.994.627 2.812 1.773 4.391 8.343 9.969 18.803 19.75 30.468 26.262l1.318.773c1.928 1.114 3.343 1.812 5.647 2.149 1.219.871 1.219.871 2.153 1.7l1.212-.515.81.723c1.73 1.258 3.622 2.125 5.603 3.006l1.279.574c3.332 1.463 6.743 2.681 10.216 3.855 4.739 1.606 8.926 3.609 13.181 6.081 4.244 2.252 4.244 2.252 8.763 3.997 1.784.657 2.456 1.071 3.349 2.621l1.212-.515.635.746a201.655 201.655 0 006.461 7.109c5.989 6.318 11.256 12.168 11.207 21.291-.286 2.483-1.218 4.307-2.425 6.575l.47 1.107-.867.934a46.171 46.171 0 00-1.926 2.257c-3.742 4.341-9.52 6.841-15.159 7.94-1.772.121-3.462.089-5.224.013-.951-.021-1.902-.04-2.853-.057a481.7 481.7 0 01-11.142-.356c-2.058-.014-3.166.228-4.96 1.273-.933 1.618-.933 1.618-.348 3.291 1.329 2.163 2.706 2.586 5.221 3.133 1.323.246 2.648.486 3.974.722 7.152 1.291 13.512 3.407 19.864 6.536 1.466.675 2.739 1.138 4.335 1.482 4.279 1.058 7.662 3.357 11.206 5.681 4.154 2.721 8.273 5.01 12.914 7.016 2.817 1.259 5.425 2.811 8.068 4.342 4.149 2.386 8.282 4.648 13.125 5.739l1.212-.515.839.731c5.785 4.263 12.882 6.025 20.17 7.019 3.524.507 6.968 1.287 10.421 2.05 7.519 2.256 7.519 2.256 15.014 1.841l.47 1.107 1.234.024c1.876.039 3.752.082 5.628.125l1.939.038c3.531.085 6.959.315 10.433.763 1.486.171 2.901.179 4.413.077l1.772-.114c1.595-.135 3.186-.285 4.78-.447 5.84-.586 11.423-.846 17.233-.558 1.839.178 1.839.178 3.135-.469l.47 1.107c2.222-.312 4.442-.631 6.663-.95l1.878-.264a132.598 132.598 0 0012.135-2.336c2.533 2.639 4.827 5.439 7.125 8.262 1.91 2.312 3.94 4.324 6.221 6.323 1.274 1.272 2.51 2.577 3.749 3.879 2.302 2.394 4.6 4.741 7.175 6.881a97.284 97.284 0 013.07 2.728c3.467 3.175 6.758 5.875 11.039 8.096 2.213 1.302 4.128 2.841 6.094 4.438 2.762 2.242 5.507 4.271 8.658 6.042 1.471.847 2.846 1.779 4.235 2.734 2.726 1.836 5.563 3.421 8.492 4.972 1.472.786 2.929 1.584 4.379 2.402 6.306 3.712 6.306 3.712 13.139 6.49l1.213-.515.47 1.107c1.28.459 1.28.459 2.856.829a75.538 75.538 0 017.124 2.243c3.331 1.184 6.081 2.161 9.789 1.357 2.417-1.617 3.3-3.33 3.9-5.983.009-1.817-.312-3.163-1.273-4.686-2.81-1.812-5.671-2.321-9.039-2.941-4.542-.971-8.614-2.738-12.572-4.893a77.838 77.838 0 00-4.249-2.093l-1.292-.594c-1.098-.502-1.098-.502-2.293.156l-.47-1.107-1.212.515-1.052-1.233c-1.726-1.729-3.612-3.019-5.725-4.301l-1.181-.726c-2.534-1.527-5.096-2.773-7.883-3.888a65.867 65.867 0 01-15.926-9.77c-3.098-2.463-6.575-4.488-10.053-6.47-4.53-2.66-7.984-5.948-11.537-9.62-2.107-2.143-4.307-4.203-6.491-6.278a118.641 118.641 0 01-5.986-6.16c-.958-.979-1.98-1.816-3.082-2.649l1.51-.763c1.959-1.382 2.67-2.556 3.874-4.498 1.447-1.869 3.205-3.354 5.013-4.909 4.228-3.665 7.623-7.601 10.976-11.967l1.246-1.55c2.189-2.831 3.238-5.2 4.066-8.534.727-2.249 1.969-4.137 3.293-6.151 2.22-3.432 3.793-6.45 4.914-10.285l.373-1.258c.265-.895.527-1.791.787-2.688.425-1.465.857-2.929 1.291-4.392 1.144-3.865 2.283-7.731 3.393-11.604l.689-2.387.593-2.079c.599-1.856.599-1.856 1.348-3.422.937-2.136 1.373-4.274 1.817-6.505l.568-2.701c.305-1.478.599-2.956.883-4.437.551-2.688 1.206-4.845 2.675-7.27 1.778-3.039 2.559-6.129 3.375-9.435l.394-1.59c.761-2.588.761-2.588.361-5.059l.881-.907c4.251-4.863 5.825-11.297 7.633-17.111.996-3.01 2.422-5.252 4.397-7.842 1.44-2.067 2.583-4.212 3.76-6.406 2.055-3.799 4.35-6.97 7.59-10.04l-.705-1.661.977-1.068c-1.02-1.979-1.627-2.914-3.833-3.762-12.892-1.369-27.642 9.589-37.744 16.775-2.067 1.482-4.105 2.963-6.049 4.59-3.303 1.584-5.922 2.28-9.565 2.754-7.868-17.475-7.868-17.475-8.753-25.68l-.204-1.843c-.65-8.466.063-17.18.728-25.711.304-4.193.438-8.384.589-12.574.229-5.905.789-11.745 1.74-17.629a454.297 454.297 0 001.765-12.385l.203-1.535c.409-2.466.409-2.466-.077-4.806l1.213-.515.109-1.738c.379-2.974 1.287-5.684 2.256-8.563.77-2.371 1.224-4.415 1.091-6.843l1.212-.515-.221-1.784c.028-2.376.302-2.494 1.979-4.188.53-.75 1.041-1.512 1.534-2.282l.839-1.299.859-1.343a908.435 908.435 0 012.507-3.893c.772-1.132.772-1.132 2.163-2.779 1.213-1.381 1.213-1.381.562-3.551l-.665-1.882c-4.33-.615-7.398.982-11.338 2.894l-1.95.938c-4.7 2.32-8.466 4.86-12.314 8.342-12.972 11.1-31.398 26.225-49.601 26.069-3.847-.275-6.644-1.04-9.916-2.765l-1.98-.647c-6.001-2.246-10.753-6.52-14.595-11.238-1.256-1.525-1.256-1.525-2.967-2.959-1.781-1.625-3.089-3.271-4.451-5.224l-1.304-1.848c-3.301-4.967-5.692-10.289-8.003-15.759l-.501-1.181c-2.032-4.813-3.968-9.64-5.501-14.643l-.394-1.287c-1.37-4.756-2.296-9.641-3.308-14.494-2.452-11.698-5.015-23.356-7.78-34.975-1.366-5.757-2.665-11.522-3.72-17.357-.509-2.655-1.051-4.794-2.9-6.879-2.235-.548-2.235-.548-4.002.474-1.762 1.182-1.762 1.182-2.62 2.858-1.353 2.25-2.944 4.137-4.702 6.129l-.934 1.083c-4.253 4.862-8.7 7.943-15.306 8.914-5.404.105-9.923-3.591-13.605-6.787-.977-1.019-1.853-2.089-2.743-3.176l-1.543-1.66c-7.055-7.592-11.746-15.442-15.787-24.818-4.212-10.578-4.212-10.578-12.812-17.56-3.872-.143-4.868 2.858-6.101 5.856zm-8.11 23.04l1.41 3.321c.876-1.913.623-2.733.174-4.647-.759.274-.759.274-1.584 1.326zm1.001 7.414l1.076.85-1.076-.85zm31.627-11.465l1.076.85-1.076-.85zm-30.703 25.444l1.312 1.403-1.312-1.403zm.319 14.236l.47 1.107-1.213.515 1.273 4.685 1.213-.515c.47-2.422-.101-3.911-1.137-6.05l-.606.258zm2.076 8.264l1.077.849-1.077-.849zm-1.622 4.607l1.88 4.429-.333-2.472 1.212-.515-.94-2.214-1.819.772zm-65.558 34.361l.47 1.107 1.213-.515-.47-1.107-1.213.515zm15.59-2.045l-.136 1.364 1.682.592-1.546-1.956zm-13.649 11.673l1.076.85-1.076-.85zm9.337 16.94l2.584 6.089.607-.258-2.585-6.088-.606.257zm4.032 6.127c.31.821.629 1.638.952 2.454l.536 1.38c.547 1.321.547 1.321 2.309 1.74.996 1.292.996 1.292 1.781 2.51l1.213-.514-2.721-4.725-1.213.515-1.644-3.874-1.213.514zm1.978 6.346l1.311 1.403-1.311-1.403zm.568 3.025l.705 1.661 1.819-.772-.705-1.661-1.819.772zm4.245-1.801l.361 1.16c.779 2.539 1.491 5.03 1.95 7.657l.705 1.66 1.213-.514c-.342-3.669-1.203-6.631-2.782-9.925l-1.447-.038zm10.277 19.154l.47 1.107 1.819-.772-.47-1.107-1.819.772zm5.987 3.991l.47 1.107 1.213-.515-.47-1.107-1.213.515zm5.184.412c.344 3.493 1.061 6.22 2.547 9.371l1.212-.515-1.174-2.767 1.212-.515 1.312 1.403c.557-.972.557-.972-.311-2.522l-.728-1.61-1.819.772-1.644-3.874-.607.257zm6.086 5.909l.705 1.66-1.213.515 1.175 2.768 2.425-1.03 1.547 1.957.606-.258-1.175-2.767-1.213.515-2.25-3.618-.607.258zm129.207-49.619l.47 1.107.977-1.068-1.447-.039zm-123.356 54.974l1.546 1.957-1.546-1.957zm1.41 3.321l1.311 1.403-1.311-1.403zm1.447.039l2.35 5.535 1.213-.515.181 1.27c.442 2.004 1.193 3.767 2.032 5.63l1.212-.515.137-1.364 1.781 2.51.977-1.069c-.701-1.934-.701-1.934-1.644-3.874l-1.683-.592a129.77 129.77 0 01-2.251-3.618l-.841-.296a129.72 129.72 0 01-2.251-3.617l-1.213.515zm15.249 27.495l1.312 1.404-1.312-1.404zm208.839-59.251l.705 1.661-1.212.514 1.311 1.404 1.349-1.88-.94-2.214-1.213.515zm-1.152 5.715l.47 1.107 1.213-.515-.47-1.107-1.213.515zM121.551 364.04l.705 1.661 1.213-.515-.705-1.66-1.213.514zm2.759 1.442l.47 1.107.977-1.068-1.447-.039zm2.524.889l1.076.849-1.076-.849zm1.917 1.145l.47 1.107 1.213-.514-.47-1.107-1.213.514zm5.283 2.331l1.076.849-1.076-.849zm1.917 1.146l1.076.849.137-1.364-1.213.515zm1.41 3.321l.705 1.66 1.819-.772-.705-1.66-1.819.772zm3.031-1.287l.705 1.66 1.213-.514-1.311-1.404-.607.258zm2.759 1.442l1.076.849-1.076-.849zm8.413 2.961l1.076.85-1.076-.85zm1.917 1.146l.47 1.107 1.213-.515-.47-1.107-1.213.515zm2.289.335l1.076.849-1.076-.849zm.804 3.578l.098 1.918 1.213-.515-1.311-1.403zm5.32-.952l.47 1.107 1.213-.514-.47-1.107-1.213.514zm-1.485 3.244l1.644 3.874 3.032-1.287 1.175 2.768 1.212-.515-2.114-4.981-2.054.218-1.076-.849-1.819.772zm6.768-.913c.109 2.126.808 3.329 2.114 4.981l1.213-.515-.47-1.107 1.213-.514a33.25 33.25 0 00-4.07-2.845zm4.911 3.141l1.076.849-1.076-.849zm-2.092 3.501l.47 1.107 1.213-.515-.47-1.107-1.213.515zm8.92.786l.29 2.367.163 1.332c.184 1.348.184 1.348.919 2.904l1.819-.772-2.486-4.171 1.213-.514 1.781 2.51 1.213-.515-2.016-3.064-1.213.515-.47-1.107-1.213.515zm-3.539 3.462l.705 1.66 1.213-.514-.705-1.661-1.213.515zm-26.92 42.782l.469 1.107 2.191-1.583-2.66.476zm47.762-18.967l1.077.849-1.077-.849zm187.353-79.527l.47 1.107 1.212-.514-.469-1.107-1.213.514zM153.428 445.882l.94 2.214 3.267-.734 1.175 2.768 1.818-.772-2.114-4.982-3.403 2.098-.47-1.107-1.213.515zm6.768-.913l.705 1.66.743-1.622-1.448-.038zm.94 2.214l.705 1.66 1.213-.515-.47-1.107 1.212-.514-.469-1.107c-1.293.451-1.293.451-2.191 1.583zm272.707-114.451l1.311 1.403-1.311-1.403zm-1.349 1.879l.47 1.107 1.213-.515-.47-1.107-1.213.515zm-266.31 114.348l1.076.85-1.076-.85zm260.27-103.292l.47 1.107-1.584 1.326.47 1.107-1.213.514.47 1.107c1.947-1.629 2.173-2.842 2.834-5.122l-1.447-.039zm-2.6 5.676l-.136 1.365 1.212-.515-1.076-.85zM185.669 454.406l2.153 1.7 1.584-1.326c-1.196-.5-1.196-.5-2.524-.888l-1.213.514zm237.071-100.63l1.076.849-1.076-.849zM186.609 456.62l.47 1.107 1.213-.514-.47-1.107-1.213.514zm3.873-.99l1.076.849-1.076-.849zm231.614-98.315l1.076.85-1.076-.85zM191.187 457.29l.705 1.661 1.212-.515-.098-1.918-1.819.772zm-2.797 1.84l.47 1.107 1.213-.514-.47-1.107-1.213.514zm6.298-2.02l.705 1.661-.705-1.661zm-2.091 3.501l1.644 3.875 1.213-.515-.47-1.107 1.819-.772.47 1.107 1.213-.515-.705-1.66-1.381.014c-1.514-.092-1.514-.092-2.591-.942l-1.212.515zm4.479-1.248l1.076.85-1.076-.85zm2.152 1.699l.47 1.107 1.213-.514-.47-1.107-1.213.514zm216.183-89.151l.47 1.107-1.212.515.568 3.025 1.584-1.326-.705-1.66 1.213-.515-.705-1.661-1.213.515zm-210.9 91.482l1.311 1.403-1.311-1.403zm209.513-86.32l.47 1.107 1.213-.515-.47-1.107-1.213.515zm-208.103 89.641l2.349 5.535 1.213-.515-1.978-6.346c-.76.274-.76.274-1.584 1.326zm2.66-.476l1.546 1.956 1.213-.514.568 3.025 2.425-1.03c-.947-2.232-2.346-2.816-4.54-3.952l-1.212.515zm7.2 3.476l.47 1.107 1.212-.515-.47-1.107-1.212.515zm2.289.335l1.311 1.403-1.311-1.403zm1.879 4.428l.94 2.214 1.819-.772-1.546-1.957-1.213.515zm3.032-1.287l.94 2.214 1.212-.515 1.311 1.404-.333-2.472-1.213.515-.705-1.661-1.212.515zm3.835 2.292l1.311 1.403.978-1.068-1.077-.85-1.212.515zm180.683-76.696l.098 1.918 1.213-.515-1.311-1.403zm-177.318 77.88l.47 1.107.977-1.068-1.447-.039zm1.682.593l1.312 1.403-.705-1.661-.607.258zm2.524.888l-.136 1.364 1.584-1.325-1.448-.039zm1.918 1.146l.47 1.107 1.212-.515-.47-1.107-1.212.515zm4.206 1.48l.47 1.107 1.213-.514-.47-1.107-1.213.514zm163.1-69.231l-.137 1.364 1.683.592-.334-2.471-1.212.515zm-1.114 2.432l.705 1.661 1.212-.515-.705-1.66-1.212.514zm-157.78 68.28l.47 1.107 1.213-.515-.47-1.107-1.213.515zm1.918 1.146l1.682.592.137-1.364-1.819.772zm2.289.335l.47 1.107 1.584-1.326-2.054.219zm2.289.335l-.273 2.728 1.212-.514-.469-1.107 1.11.508c1.589.589 1.589.589 3.839-.649l-.47-1.107-1.819.772-.47-1.107-2.66.476zm146.888-55.165l1.311 1.403-.098-1.918-1.213.515zm-.644 3.54l.47 1.107 1.212-.515-.47-1.107-1.212.515zm-.743 1.621l.47 1.107 1.213-.514-.47-1.107-1.213.514zm-5.298 9.435l.47 1.107 1.213-.515-.47-1.107-1.213.515zm-1.349 1.879l.47 1.107 1.584-1.326-2.054.219zm-.508 2.175l.705 1.661 1.213-.515-.705-1.661-1.213.515zm-.507 2.175l.333 2.472 1.213-.515-1.546-1.957zm-19.471 35.048c.032 1.222.032 1.222.334 2.471l1.682.592-1.409-3.321-.607.258zm-13.24 7.58l.47 1.107-1.213.514.705 1.661 2.425-1.03 2.153 1.7-1.41-3.321-1.213.514-1.311-1.403-.606.258zm13.778 18.974l.47 1.107 1.819-.772-.47-1.107-1.819.772zm18.47 9.797l.705 1.661.978-1.068-1.683-.593zm2.759 1.442l.705 1.661-.705-1.661zm-3.911 4.273l.705 1.661 1.584-1.326-1.076-.85-1.213.515zm6.299-2.02l.939 2.214 1.213-.515-.94-2.214-1.212.515zm-1.956 2.136l.569 3.025 1.819-.772-1.175-2.767-1.213.514zm12.248 5.253l2.721 4.725 1.212-.515c-.029-1.809-.275-2.41-1.548-3.752l-1.172-.972-1.213.514zm4.911 3.142l.705 1.66 1.213-.515-.705-1.66-1.213.515zm2.524.888l1.546 1.957-1.546-1.957zm-4.009 2.355l1.644 3.875 1.213-.515-1.038-4.132-1.819.772zm3.736.374l2.115 4.981 1.212-.514-2.114-4.982-1.213.515zm3.032-1.287l.333 2.471 1.213-.514-1.546-1.957zm2.387 2.253l.47 1.107.978-1.068-1.448-.039zm1.917 1.146l1.312 1.403-.099-1.918-1.213.515zm2.524.888l1.077.85.136-1.365-1.213.515zm2.153 1.699l1.546 1.957-.099-1.918-1.447-.039zm2.524.889l1.546 1.956-1.546-1.956zm-.273 2.728l.705 1.661 1.212-.515-.705-1.66-1.212.514zm2.66-.475l.47 1.106 1.584-1.325-2.054.219zm25.094-9.999l.47 1.107 1.212-.515.47 1.107 1.213-.514-.94-2.214-2.425 1.029zm-22.57 10.887l1.076.85.136-1.365-1.212.515zm2.289.335l.469 1.107.978-1.068-1.447-.039zm25.094-9.999l-.137 1.365 1.819-.772-.47-1.107-1.212.514zm-23.177 11.145l.47 1.107 1.213-.515-.47-1.107-1.213.515zm4.206 1.48l.47 1.107 1.213-.514-.47-1.107-1.213.514zm-11.285 5.444l.705 1.66 2.425-1.029-.704-1.661-2.426 1.03zm10.543-3.822l.47 1.107 1.212-.515-.47-1.107-1.212.515zm3.031-1.287l.47 1.107.978-1.068-1.448-.039zm1.918 1.146l.47 1.107 1.212-.515-.47-1.107-1.212.515zm4.812 1.223l1.077.85-1.077-.85zm1.918 1.146l.47 1.107 1.584-1.325-2.054.218zm.705 1.661l.705 1.66 1.819-.772-1.312-1.403-1.212.515z" fill="#FBFDF8"/><path d="M169.632 62.995l4.851-2.059.47 1.107 4.244-1.801 1.41 3.32-2.425 1.03.704 1.66c1.433.04 1.433.04 2.896.078l.469 1.107 1.819-.772-1.174-2.767 1.212-.515 1.175 2.767 1.819-.772.705 1.66-1.819.773.47 1.107-1.819.772 1.175 2.768 1.819-.772.704 1.66-2.425 1.03-1.076-.85 2.114 4.981.743-1.621c3.08 5.322 5.142 10.782 7.049 16.605l1.819-.772 5.737 15.202 1.213-.515.136-1.364.576 1.166c1.643 3.183 3.186 5.527 6.078 7.767l.607-.257 1.174 2.768 1.213-.515-.47-1.107 1.213-.515.252 1.648c.594 2.081 1.14 2.926 2.939 4.183l2.053-.218.743-1.622 2.425-1.03c.099 1.918.099 1.918-.037 3.283l12.361-4.594-.099-1.918a6576.23 6576.23 0 004.245-1.802l-1.781-2.51 6.336-5.302.136-1.365-4.616 2.613.47 1.107-1.819.772-1.174-2.767 3.638-1.545-.47-1.107 3.031-1.287.705 1.661 2.19-1.583-.568-3.025 4.244-1.802-1.175-2.767 1.819-.772c2.187 4.67 2.187 4.67 1.607 7.157l1.213-.515-.47-1.107 1.213-.515 2.485 4.171 1.213-.515-2.349-5.535 1.819-.772 1.174 2.768 1.213-.515 1.175 2.767-1.213.515.47 1.107-3.403 2.098a6941.17 6941.17 0 012.251 3.617l-1.213.515.569 3.025-1.213.514-1.311-1.403.703 1.965.897 2.541.465 1.297c1.13 3.219 1.13 3.219.716 4.122.679 2.078 1.43 4.125 2.179 6.179l.504 1.827-.977 1.068.596 1.347.778 1.785.773 1.762c.613 1.593.987 3.081 1.241 4.773l-1.213.515.904 2.025c.763 1.788 1.281 3.481 1.544 5.428l-1.213.515c1.817 2.238 1.817 2.238 3.934 4.209l1.819-.772-.47-1.107 1.819-.772 3.054 7.195-1.819.773-.705-1.661-4.009 2.355c.143 1.19.291 2.38.442 3.569l.248 2.007c.257 1.951.257 1.951 1.25 4.052l1.448.039.47 1.107 3.638-1.544.705 1.66 1.212-.514.705 1.66-1.213.515 2.35 5.535-1.819.772-1.175-2.767-1.212.514.469 1.107-1.212.515-1.076-.85c-.652 4.241.953 8.289 3.486 11.585l1.213-.514.469 1.107 1.819-.773 1.175 2.768-1.819.772.705 1.661 1.819-.772.47 1.107 1.213-.515-.47-1.107 1.819-.772.704 1.66-1.818.772.469 1.107-1.212.515.705 1.661 1.212-.515.47 1.107-3.031 1.287.855 1.066c.968 1.51 1.268 2.697 1.494 4.469l-1.819.772 2.524.888c.098 1.918.098 1.918-.038 3.283l1.213-.515.47 1.107 1.819-.772.704 1.66 1.213-.515.705 1.661-2.425 1.029-1.312-1.403a46849.3 46849.3 0 012.115 4.982l.978-1.068 2.251 3.617 1.212-.515 2.115 4.982.977-1.069c1.306 1.653 2.006 2.856 2.115 4.982l1.213-.515 1.174 2.768 1.213-.515 1.546 1.957 1.213-.515.705 1.66 2.054-.218c1.078.488 2.156.978 3.222 1.487 2.911 1.306 5.197 1.95 8.572 1.223l1.939-.701.47 1.107c4.482-.36 8.162-2.007 12.284-3.826l2.039-.883c1.65-.716 3.297-1.437 4.942-2.162l-.47-1.107c2.08-1.494 3.975-2.329 6.424-3.094l1.866-.59 1.412-.434-.47-1.107 1.025-.639c1.257-.851 1.257-.851 1.544-2.105 1.118-1.934 2.637-2.268 4.746-3.096l2.186-.875 1.685-.646.137-1.365 1.819-.772-1.683-.592c2.102-1.759 4.509-2.612 7.041-3.642l-.235-.553 4.616-2.613-.099-1.918 1.279-.497 1.668-.672 1.658-.658c1.655-.711 1.655-.711 2.807-2.626 2.368-1.693 4.434-2.487 7.276-3.088l-.705-1.66-1.819.772-1.174-2.768 1.819-.772.469 1.107 1.213-.515 2.251 3.617 3.267-.733-2.251-3.617 1.819-.772 1.174 2.767 1.213-.514a6941.17 6941.17 0 012.251 3.617l1.213-.515-.47-1.107 1.819-.772.568 3.025-1.819.772 2.213 6.899-1.584 1.326-1.447-.039-.705-1.66-1.213.514.47 1.107-3.032 1.287.705 1.661-1.819.772.47 1.107-1.584 1.326-.136 1.364-1.819.772.47 1.107-.978 1.068.841.296c.416.912.81 1.835 1.175 2.768l-1.819.772-.333-2.471-1.213.514.47 1.107-1.819.773.705 1.66-1.213.515.705 1.66-1.213.515.334 2.471-1.213.515 2.251 3.617-1.212.515.568 3.025-1.213.515.47 1.107-1.584 1.325-2.289-.335 2.721 4.725-1.212.514-.94-2.214-1.213.515.318 1.171c.33 2.443.192 4.839-.295 7.311l-.978 1.069 1.41 3.321-1.076-.85-1.213.515.94 2.214 2.425-1.03.705 1.661-2.425 1.029-.47-1.107-1.819.772 1.032.746c1.12.954 1.12.954 1.825 2.614l-1.213.515-.469-1.107-1.213.515.568 3.025-1.212.514.94 2.214-1.213.515 1.175 2.768-.978 1.068c-.105 1.274-.105 1.274-.031 2.667l.044 1.433.048 1.1-1.213.515.545 1.81c.487 2.292.438 4.066.084 6.415l-1.213.515 1.175 2.767-1.212.515.389 1.549c.401 1.966.553 3.847.611 5.865l-1.213.515.804 3.578-1.213.515 1.645 3.874-.978 1.069c.08 1.288.08 1.288.333 2.471l-1.212.515.854 1.801c.791 2.073.791 2.073.283 4.249.155 1.015.339 2.026.568 3.025l-1.213.514.755 1.349.967 1.758.968 1.748c.736 1.53.736 1.53.6 2.894l1.212-.514-1.174-2.768 1.311 1.403 1.819-.772-1.175-2.767 1.819-.773 2.35 5.536-1.819.772 1.174 2.767-2.425 1.03-1.175-2.768-1.212.515.9 1.692 1.159 2.211.594 1.114c.898 1.722 1.474 2.966 1.576 4.946l1.819-.772.705 1.66 1.818-.772-1.409-3.321 3.031-1.287 1.645 3.875-1.213.515.47 1.107 4.987-3.424-.235-.553 9.466-4.671-.234-.554 8.859-4.414-.47-1.107 1.819-.772.47 1.107 1.213-.515-.47-1.107 1.819-.772.47 1.107 1.213-.515-.47-1.107c3.146-2.07 3.146-2.07 5.456-2.316l.47 1.107 6.064-2.574-1.077-.849c4.466-2.137 4.466-2.137 6.416-1.744l.959.573.705-1.605c.78-1.638.78-1.638 1.387-1.896l1.174 2.768 6.063-2.574.705 1.661-3.031 1.287.47 1.107-1.819.772-.47-1.107-1.213.514 1.781 2.511-1.212.514.773.979c1.253 1.905 2.038 3.85 2.887 5.959l-2.22.249c-2.69.439-2.69.439-4.684 2.029l-.137 1.364-1.819.772 1.509 5.239-3.032 1.287.47 1.107-1.213.515.705 1.661-1.819.772-.333-2.472-.747 1.297c-.974 1.393-.974 1.393-2.793 2.165l.47 1.107.607-.257c1.087-.249 2.176-.494 3.266-.733l.705 1.66-3.032 1.287.47 1.107-1.819.772.705 1.661-2.19 1.583.333 2.471-1.212.515.47 1.107-1.213.514.289 1.103c.044 1.369.044 1.369-.904 2.506l-1.007.999-.136 1.365-1.213.514-1.311-1.403-.137 1.365-1.584 1.325-.136 1.365 2.054-.219.47 1.107-2.797 1.84.47 1.107 1.213-.514.47 1.107-3.403 2.097-.47-1.107-1.213.515 2.016 3.064-1.213.515.804 3.578-1.213.515.47 1.107-4.479 1.248.47 1.107-1.213.515.705 1.66-1.213.515.705 1.66c-.513 1.32-.513 1.32-1.114 2.433l1.213-.515-.47-1.107 1.212-.515.569 3.025-1.213.515.47 1.107-1.213.515-1.076-.85-.136 1.365-1.448-.039.184 1.065c.151 1.421.063 2.701-.123 4.135l-1.213.515.47 1.107 1.584-1.326.705 1.661-1.213.514.47 1.107-1.212.515.705 1.661-1.213.514-.47-1.107-.481 1.184c-.633 1.249-.633 1.249-1.846 1.764l.804 3.578 1.212-.515.705 1.661-1.213.515.47 1.107c-.452 1.253-.452 1.253-1.114 2.432l-1.212.515-.011 1.556c-.027 1.726-.027 1.726-.164 3.091l-1.212.514-1.312-1.403-.136 1.365-1.213.514.705 1.661-1.212.515-.038 3.282.371-.811 1.213-.515 1.175 2.768-2.426 1.029-.47-1.107-1.819.772 1.033.746c1.12.954 1.12.954 1.825 2.614l-1.213.515 1.175 2.767-1.819.772.098 1.918-1.212.515.47 1.107-1.213.515-.94-2.214-1.212.515.469 1.107c-.376 1.221-.376 1.221-1.114 2.432l-2.425 1.03 3.502-.18.469 1.107-.983.948c-1.199 1.211-1.199 1.211-.873 3.106l-1.213.515.47 1.107-1.213.515.705 1.66-1.213.515.099 1.918-1.213.515.47 1.107-3.031 1.286-.47-1.107-.372.811-2.425 1.03.47 1.107c-.376 1.221-.376 1.221-1.114 2.432l-2.425 1.03.47 1.107 1.447.039-3.638 1.544-.136 1.364c-1.34 1.148-2.754 2.172-4.178 3.223-1.341.927-1.341.927-1.317 2.376l-2.797 1.84-.136 1.365-2.425 1.029.47 1.107-2.797 1.84c.966 1.395 1.924 2.663 3.092 3.914l1.819-.772-1.781-2.511 1.819-.772-.705-1.66 1.819-.772 1.88 4.428 4.244-1.802.705 1.661-4.244 1.801.469 1.107 1.213-.514 1.175 2.767-1.819.772-1.175-2.767-1.212.514-.47-1.107-3.032 1.287 2.683 8.007 1.213-.515 2.016 3.064-.099-1.918 1.819-.772.289 1.168c.828 3.071 1.567 5.257 4.077 7.43l1.584-1.325 1.038 4.132 1.584-1.326.8 1.253.981 1.257 1.448.039.098 1.918 1.213-.515.136-1.364 1.41 3.321 1.114-2.433.593 1.504c.723 1.61 1.523 2.925 2.598 4.327l2.054-.218.939 2.214 1.213-.515 1.781 2.51 1.213-.515.705 1.661 1.584-1.326 1.409 3.321 1.213-.514c1.682.592 1.682.592 2.994 1.995l1.212-.515-1.546-1.956 1.819-.772.162 1.646c.832 2.506 2.108 2.986 4.476 4.224l.47 1.107 1.213-.515 1.781 2.51 1.213-.515.705 1.661 1.819-.772 1.174 2.767 1.213-.514c1.279.273 1.279.273 2.524.888l.94 2.214 2.66-.476-.137 1.364a686.581 686.581 0 001.819-.772l-.333-2.471 1.212-.515.705 1.661 1.213-.515.47 1.107-.978 1.068.099 1.918 1.212-.515.137-1.364.94 2.214c.832.314 1.675.608 2.523.888 1.352 1.182 1.352 1.182 2.388 2.253l1.819-.772c1.136.361 2.259.756 3.365 1.185l1.447.038-1.546-1.956 1.819-.772.705 1.66 4.244-1.801.705 1.66 1.819-.772c1.652 3.72 3.144 7.356 4.093 11.328l1.212-.515-.922-1.119c-.859-1.391-.859-1.391-.351-3.567l.705 1.661 1.819-.772 1.175 2.767-1.819.772.47 1.108-1.819.772 1.187 1.006c1.2 1.246 1.2 1.246 1.299 3.164l-7.883 3.346.94 2.214-3.031 1.287-.47-1.107-5.829 3.127-.704-1.66-3.032 1.286-2.486-4.17-1.213.514-.469-1.107-1.213.515-.705-1.66-1.819.772 1.175 2.767-1.213.515-2.349-5.535-1.819.772 1.175 2.768-1.213.514-2.115-4.981-3.266.733-1.175-2.767-1.819.772 1.88 4.428 3.031-1.287 1.175 2.767-1.213.515.47 1.107-3.638 1.544-.469-1.107-1.213.515-1.175-2.767 1.213-.515-.648-1.468-.844-1.941-.839-1.917a21.76 21.76 0 01-1.292-4.895l-1.819.772 2.35 5.535-1.213.515.705 1.661 1.212-.515.47 1.107-3.031 1.287-1.175-2.768 1.213-.514-1.175-2.768-1.213.515-.705-1.661 1.213-.514-1.41-3.321-1.447-.039.098 1.918-1.447-.039-.47-1.107-1.213.515 1.645 3.874-1.819.772-.47-1.107-1.213.515-1.174-2.768-1.819.772-.705-1.66 3.031-1.287-.47-1.107-3.031 1.287-1.88-4.428-1.212.515-1.175-2.768 1.212-.515-.502-1.124-.651-1.489-.65-1.47c-.5-1.329-.755-2.503-.88-3.923l-1.212.515-1.88-1.162-1.955-1.13-1.819.772.788 1.013c1.134 1.71 1.88 3.475 2.638 5.372l-1.819.772-1.175-2.768-1.584 1.326-.803-3.578-1.819.772-.47-1.107-1.819.772-.705-1.661-1.213.515-1.175-2.767-1.818.772c-.818-3.008-1.328-5.965-1.706-9.075 1.683.592 1.683.592 2.388 2.253l2.66-.476-.47-1.107-1.213.514-1.174-2.767-1.819.772c-1.629-1.692-3.102-3.382-4.404-5.316l-1.212.514-5.109-6.977-1.212.515-.47-1.107-2.191 1.583.94 2.214 1.819-.772.137-1.364 2.251 3.617 1.212-.515.705 1.661-1.213.514 2.82 6.642-2.797 1.841-.705-1.661 1.819-.772-2.349-5.535-1.819.772.47 1.107-1.213.515-1.175-2.768-1.819.772-.469-1.107 1.818-.772-4.835-9.705.978-1.069 1.174 2.768 1.819-.772-2.016-3.064-1.212.515-.705-1.661c-1.518 1.693-1.518 1.693-1.202 3.088l.405 1.252.721 2.225-1.212.515 1.174 2.767-1.819.772-3.054-7.195 1.213-.515-1.645-3.875-2.425 1.03.47 1.107-1.819.772-1.175-2.768 1.213-.514-.817-1.818c-.828-2.057-.828-2.057-.927-3.975l-4.85 2.059-1.311-1.403-7.746 1.981-.47-1.107-1.213.515-.704-1.66 1.212-.515-.47-1.107 2.054-.219.705 1.661 7.882-3.346c-2.018-.711-2.486-.438-4.528.289-2.659.947-2.659.947-4.529.289-1.711.303-1.711.303-3.266.734l-.47-1.107-2.425 1.029-1.077-.85c-1.38.16-1.38.16-2.66.476l-.47-1.107-5.222 2.87-.47-1.107 1.819-.772-.47-1.107-3.637 1.544-.47-1.107-3.873.991-.47-1.107-4.244 1.801-.47-1.107-4.479 1.248.939 2.215 3.267-.734 1.645 3.875-1.819.772-1.175-2.768-6.063 2.574-1.175-2.768-3.032 1.287-1.644-3.874 1.212-.515 1.546 1.957 5.692-1.763-.47-1.107-3.031 1.287-.705-1.661-2.425 1.03-.47-1.107-2.426 1.029-1.076-.85c-1.381.161-1.381.161-2.66.476l-.47-1.107-3.031 1.287-1.077-.849c-1.38.16-1.38.16-2.66.476l-.47-1.107-1.111.226a31.927 31.927 0 01-5.051.429l-1.076-.849-2.054.218-.47-1.107-2.425 1.03a57.264 57.264 0 01-3.365-1.185l-2.054.219-.47-1.107-1.147.037c-1.748-.115-1.748-.115-4.169-.761-2.066-.499-3.015-.723-5.052-.101l.47 1.107 1.819-.772.47 1.107 1.819-.772.47 1.107a128.515 128.515 0 01-4.009 2.355c-.842-.296-.842-.296-1.482-1.699l-.534-1.365-4.245 1.802-.705-1.661-1.819.772-.469-1.107-1.213.515-1.175-2.768-3.031 1.287-.705-1.66 1.212-.515-.704-1.661-1.584 1.326.469 1.107-1.212.515-.47-1.107-1.213.515.47 1.107-1.819.772-1.175-2.768 3.168-2.651-1.212.515c-.885.17-1.772.33-2.66.476l-1.546-1.957-3.638 1.544.469 1.107-1.818.772-1.175-2.767 2.425-1.03-.47-1.107-3.031 1.287-1.175-2.767-1.213.514 2.35 5.535-1.213.515-2.349-5.535-1.819.772 1.174 2.768-1.212.514-1.175-2.767-1.819.772-.705-1.661 1.819-.772a59.53 59.53 0 00-2.251-3.617l-1.447-.039 1.174 2.768-1.212.515-1.645-3.875 1.819-.772-1.076-.85c-1.687.288-1.687.288-3.267.734l1.175 2.767-1.819.772-1.175-2.767-2.425 1.029-.47-1.107-1.819.772-1.175-2.767 1.213-.515c-.463-.852-.929-1.702-1.396-2.551l-.785-1.435c-.765-1.379-.765-1.379-2.086-2.695l-3.032 1.287.47 1.107-1.819.772-.47-1.107-1.212.515-.705-1.661-1.819.772-.47-1.107-1.213.515-1.174-2.767-3.032 1.286-.705-1.66 1.213-.515-.47-1.107-4.244 1.802-.705-1.661 1.213-.514-.47-1.107-3.032 1.286-1.879-4.428 1.212-.514 1.175 2.767 1.819-.772-1.645-3.875 1.213-.514c1.334 2.074 2.539 4.087 3.426 6.384l1.212-.514-1.644-3.875 1.212-.515-.47-1.107-1.212.515-.47-1.107-1.213.515-2.387-2.253-1.213.515c-1.308-.343-1.308-.343-2.524-.889l-.47-1.107-2.054.219-.469-1.107-2.896-.078.705 1.661-1.212.515 1.251 2c1.252 2 1.252 2 1.098 3.535l-1.213.514-2.349-5.535-1.819.773.705 1.66-1.213.515-2.486-4.171-1.212.515.705 1.66-1.213.515-.705-1.66-1.819.772.705 1.66-1.213.515-1.879-4.428-3.032 1.287-2.251-3.618 1.819-.772-1.541-1.101c-1.624-1.393-2.242-2.246-2.862-4.215l-1.213.515-1.175-2.768 1.819-.772-.47-1.107 6.064-2.574.469 1.107 4.48-1.248-.743 1.622 3.266-.733.47 1.107 1.377-.34a41.656 41.656 0 015.998-.831l1.076.85c1.381-.16 1.381-.16 2.66-.476l.47 1.107 1.411-.681c1.621-.606 1.621-.606 3.303-.014 1.299-.37 1.299-.37 2.684-1.012l1.559-.674 1.622-.722 1.642-.714c1.34-.585 2.678-1.174 4.013-1.768l-.568-3.025-1.213.515-.705-1.66 1.213-.515-.47-1.107 1.819-.772-.705-1.661 4.244-1.801.47 1.107-1.819.772 1.312 1.403 1.447.039-.184-1.065c-.151-1.421-.063-2.701.123-4.135l1.213-.515-.705-1.661-1.212.515-.705-1.66-1.819.772-.47-1.107 1.819-.772-.705-1.661 1.213-.515.704 1.661 2.426-1.03-.972-2.078c-.886-1.896-.923-2.285-.4-4.525l-4.108.437 1.175 2.768-1.213.515-4.229-9.964 1.918 1.146-.334-2.471-2.054.218-1.174-2.767.53 6.307-1.213.515a1964.57 1964.57 0 00-1.781-2.51l-1.212.514-.705-1.66-3.032 1.287-1.644-3.875-3.032 1.287-1.175-2.768 1.213-.514-.705-1.661-3.032 1.287-1.174-2.768-3.032 1.287-1.175-2.767-1.212.514-.705-1.66-1.819.772-.47-1.107-1.213.515-1.174-2.768-1.819.772-2.585-6.088-1.212.515-.47-1.107-1.819.772-.47-1.107-1.213.514 1.175 2.768-1.819.772-1.41-3.321 1.819-.772-.47-1.107 1.213-.515-.705-1.66c-2.248 1.329-2.248 1.329-3.539 3.462l-1.819.772-1.175-2.768 2.425-1.029-.47-1.107-3.872.99.568 3.025-1.213.515a607.737 607.737 0 01-1.403-3.201l-.79-1.801c-.626-1.64-.626-1.64-.725-3.558l-2.425 1.03 1.88 4.428-1.213.514-.705-1.66-1.819.772-.47-1.107 1.819-.772-2.486-4.171-1.212.515 1.175 2.767-3.032 1.287-.47-1.107 1.819-.772-1.645-3.874-1.819.772.94 2.214-1.212.514-4.601-9.152-1.447-.039-.495-1.586c-.716-1.874-.716-1.874-2.568-2.258-1.997-.771-2.108-1.132-2.862-2.949l-.73-2.14c-1.319.174-1.319.174-2.66.476-.698 1.523.341 3.147.829 4.588l.699 2.074.549 1.602-1.819.772-.47-1.107-1.213.514-.705-1.66 1.213-.515-4.229-9.963 2.895.078-.705-1.661-2.054.219-1.879-4.428-1.213.514-1.41-3.321-3.873.991 3.525 8.303-1.82.772-1.174-2.768-1.213.515-1.174-2.768 1.212-.514-1.174-2.768-1.213.515-1.88-4.428 1.82-.772-.706-1.661-1.819.772-.47-1.107-3.031 1.287-.705-1.66 1.213-.515-1.645-3.875 1.819-.772 1.175 2.768 1.819-.772-.705-1.661 1.213-.515-.47-1.107 1.212-.514-.705-1.661-1.212.515-.47-1.107 3.031-1.287.705 1.66 1.213-.514 1.683.592 1.818-.772-.704-1.661-1.213.515-.47-1.107 3.032-1.287c.587.829 1.175 1.657 1.781 2.51l2.425-1.029.47 1.107-3.403 2.098c2.997 1.197 2.997 1.197 6.26 1.262l.47 1.107 1.187-.259c1.473-.217 1.473-.217 3.762.118l.47 1.107 4.009-2.355.47 1.107-.977 1.068 2.053-.219.47 1.107 4.245-1.801 1.076.849c1.991-.415 1.991-.415 3.873-.99l.47 1.107 10.072-4.929-.098-1.918 3.637-1.544 1.312 1.403 2.053-.219-.704-1.66 1.212-.515.705 1.661 4.616-2.613-.47-1.107 1.78-.732 2.327-.97 2.311-.958c1.674-.763 2.812-1.471 4.261-2.526 1.459-.54 1.459-.54 2.982-.98l1.541-.453 1.168-.33-.568-3.024 1.632-.897c1.789-1.213 2.281-1.729 2.885-3.634l.47 1.107 1.213-.515-.804-3.578 1.213-.515-1.175-2.767 1.584-1.326-2.819-6.642 3.031-1.287.705 1.661-1.212.515.801 1.782c.652 1.617 1.066 2.838 1.177 4.563l1.212-.514-.705-1.661 1.213-.515c-.404-.998-.814-1.995-1.225-2.991l-.689-1.682c-.557-1.453-.557-1.453-1.747-2.265-.709-1.444-1.276-2.935-1.879-4.428l-1.213.515-.705-1.661 1.213-.514-1.645-3.875-1.212.515-.705-1.661 1.212-.514-1.038-4.132-1.819.772 1.175 2.767-3.032 1.287-.704-1.66 1.212-.515-.47-1.107-1.212.515-.705-1.661 1.212-.515-.47-1.107-1.212.515-.705-1.66 1.213-.515-1.645-3.875-1.213.515-.704-1.66 1.212-.515-.705-1.661-3.031 1.287-.47-1.107-1.213.515-.705-1.661-3.031 1.287-2.82-6.642-1.819.772-4.229-9.963-1.819.772 1.175 2.768-2.425 1.029-1.88-4.428-1.819.772-.47-1.107 1.819-.772-.568-3.025-2.425 1.03-.705-1.661-1.819.772-.569-3.025-1.819.772-.704-1.66 4.479-1.248.47 1.107 1.819-.772-.705-1.661 1.212-.515 1.175 2.768 2.054-.219.717 1.901c.689 2.104.689 2.104 2.61 2.566.693 1.421.693 1.421 1.175 2.768l1.213-.515c-1.54-2.176-1.54-2.176-3.699-3.656-.713-1.442-1.277-2.936-1.88-4.428l-1.212.515-1.376-1.662c-1.207-1.676-1.207-1.676-2.323-1.994a380.349 380.349 0 01-1.772-3.03c-1.029-1.645-2.267-3.047-3.571-4.501l1.645 3.875.606-.257 2.486 4.17-1.213.515.47 1.107-1.819.772-1.174-2.767-1.213.514-1.076-.849-3.267.733-3.994-9.41-3.032 1.287-3.524-8.302 1.213-.515-.705-1.661-2.425 1.03-.705-1.661-1.819.772-.47-1.107 3.032-1.286.469 1.107 1.819-.773-2.251-3.617 1.213-.514-.855-1.067c-.968-1.51-1.268-2.697-1.494-4.469l-.607.258-1.819.772-.705-1.661-1.212.515a435.831 435.831 0 01-1.795-3.28l-1.01-1.845c-.775-1.642-1.189-3.036-1.424-4.838l1.819-.772-.47-1.107-1.82.772-.704-1.661 1.213-.514-.47-1.107-1.213.514-.705-1.66 3.032-1.287-2.35-5.535 1.213-.515-.705-1.66 1.819-.772-.47-1.107 4.244-1.802.47 1.107 1.819-.772-.47-1.107 1.819-.772.705 1.66 1.213-.514 1.448 1.304c1.596 1.403 1.596 1.403 3.312 1.166l1.129-.397c1.305 1.652 2.005 2.855 2.114 4.981l.978-1.068-.099-1.918 1.819-.772 1.175 2.768-2.425 1.029c1.193 1.502 1.193 1.502 2.994 1.995l.841.297-.099-1.918 2.426-1.03.469 1.107-1.819.772.334 2.472 1.213-.515c1.308.343 1.308.343 2.523.888l.47 1.107 2.426-1.029 1.076.85 2.054-.219.47 1.107 3.637-1.544.47 1.107 3.267-.733.47 1.107 1.019-.76c1.593-.968 2.995-1.578 4.725-2.25 3.941-1.623 6.496-4.111 9.217-7.26l.977-1.069-2.053.219 1.301-1.043c1.429-1.241 1.429-1.241 1.254-2.736l-.327-1.086 3.031-1.287-.098-1.918.978-1.068.246-1.738c.398-1.802.398-1.802 1.533-2.815l1.055-.57-.568-3.025-1.213.515.47 1.107-1.584 1.326-1.88-4.428 1.819-.773.47 1.107 1.213-.514.136-1.365 1.819-.772c-.949-3.972-2.441-7.607-4.093-11.327l-1.212.514-1.88-4.428 1.819-.772.705 1.661 1.213-.515.47 1.107 1.212-.515.705 1.661-1.213.515.47 1.107 1.819-.772c-.831-2.09-1.705-4.042-2.887-5.96-1.182-1.919-2.057-3.871-2.888-5.96l-1.213.514-.704-1.66 1.819-.772-.705-1.661 1.212-.514 2.486 4.17 1.213-.514-.47-1.107 1.213-.515-1.137-6.05-.607.257 1.509 5.239-1.077-.849-1.212.514-3.055-7.195-1.212.515c-.47-1.107-.47-1.107-.018-2.361.662-1.179.662-1.179 1.875-1.694.587.829 1.175 1.657 1.781 2.51l1.819-.772-1.683-.592c-.832-1.632-.832-1.632-1.632-3.635l-.813-2.007-.609-1.554-1.213.515-.705-1.66 1.819-.773-.47-1.107 1.213-.514 3.562 5.02-1.212.515 1.546 1.956c1.104-2.411-1.478-6.835-2.368-9.053a288.986 288.986 0 00-2.059-4.745l1.213-.515 1.781 2.51c-.118-2.295-.956-4.058-1.875-6.104-1.766-3.932-1.766-3.932-1.611-5.48l1.212-.516.47 1.107 1.819-.772-1.644-3.874-1.819.772-.705-1.66 1.819-.773-.705-1.66 1.213-.515.704 1.66 1.819-.772-1.879-4.428 1.819-.772 1.076.85 1.349-1.88-.47-1.106-1.212.515-.705-1.661-1.213.515-.47-1.107c1.411-.68 1.411-.68 3.032-1.287l1.682.592-1.644-3.874 1.819-.773-.705-1.66 1.212-.515-.47-1.107 1.819-.772-1.409-3.32 1.819-.773.705 1.66 2.425-1.029-.705-1.66-1.213.514-.47-1.107zm-.174 4.647l.94 2.214 1.584-1.326-1.311-1.403-1.213.515zm-2.971 6.487l1.546 1.956.273-2.728-1.819.772zm-3.668 25.073l1.41 3.322c.876-1.914.622-2.733.174-4.647-.759.273-.759.273-1.584 1.326zm1 7.415l1.077.849-1.077-.849zm31.628-11.466l1.076.85-1.076-.85zm-30.703 25.444l1.311 1.404-1.311-1.404zm.318 14.236l.47 1.107-1.212.515 1.273 4.686 1.213-.515c.47-2.422-.101-3.911-1.137-6.05l-.607.257zm2.077 8.264l1.076.85-1.076-.85zm-1.622 4.608l1.88 4.428-.334-2.471 1.213-.515-.94-2.214-1.819.772zm-65.558 34.36l.47 1.107 1.212-.514-.469-1.107-1.213.514zm15.59-2.045l-.136 1.365 1.682.592-1.546-1.957zm-13.65 11.674l1.076.849-1.076-.849zm9.338 16.94l2.584 6.088.606-.257-2.584-6.089-.606.258zm4.032 6.127c.309.821.629 1.638.952 2.454l.535 1.38c.548 1.321.548 1.321 2.31 1.74.995 1.292.995 1.292 1.781 2.51l1.212-.515-2.721-4.724-1.212.515-1.645-3.875-1.212.515zm1.978 6.346l1.311 1.403-1.311-1.403zm.568 3.025l.705 1.66 1.819-.772-.705-1.66-1.819.772zm4.244-1.802l.362 1.161c.779 2.538 1.491 5.03 1.95 7.657l.705 1.66 1.212-.515c-.341-3.668-1.202-6.63-2.781-9.924l-1.448-.039zm10.277 19.154l.47 1.107 1.819-.772-.47-1.107-1.819.772zm5.988 3.991l.47 1.107 1.212-.514-.469-1.107-1.213.514zm5.184.413c.344 3.493 1.061 6.219 2.546 9.371l1.213-.515-1.175-2.768 1.213-.514 1.311 1.403c.558-.972.558-.972-.31-2.522l-.728-1.61-1.819.772-1.645-3.875-.606.258zm6.086 5.908l.705 1.661-1.213.515 1.175 2.767 2.425-1.029 1.546 1.956.607-.257-1.175-2.767-1.213.514-2.251-3.617-.606.257zM278.8 202.175l.47 1.107.978-1.068-1.448-.039zM155.445 257.15l1.546 1.956-1.546-1.956zm1.41 3.321l1.311 1.403-1.311-1.403zm1.447.038l2.35 5.536 1.212-.515.182 1.27c.442 2.003 1.193 3.767 2.031 5.629l1.213-.514.136-1.365 1.781 2.51.978-1.068c-.701-1.934-.701-1.934-1.644-3.874l-1.683-.593a129.72 129.72 0 01-2.251-3.617l-.841-.296c-.77-1.194-1.521-2.4-2.251-3.617l-1.213.514zm15.249 27.496l1.311 1.403-1.311-1.403zm208.839-59.251l.705 1.66-1.213.515 1.311 1.403 1.35-1.879-.94-2.214-1.213.515zm-1.152 5.715l.47 1.107 1.213-.515-.47-1.107-1.213.515zM121.643 362.951l.705 1.66 1.212-.514-.705-1.661-1.212.515zm2.758 1.442l.47 1.107.978-1.068-1.448-.039zm2.524.888l1.077.85-1.077-.85zm1.918 1.146l.47 1.107 1.212-.515-.47-1.107-1.212.515zm5.282 2.33l1.077.85-1.077-.85zm1.918 1.146l1.076.85.136-1.364-1.212.514zm1.41 3.321l.704 1.661 1.819-.772-.705-1.661-1.818.772zm3.031-1.287l.705 1.661 1.213-.515-1.312-1.403-.606.257zm2.759 1.442l1.076.85-1.076-.85zm8.413 2.962l1.076.849-1.076-.849zm1.917 1.146l.47 1.107 1.213-.515-.47-1.107-1.213.515zm2.289.334l1.076.85-1.076-.85zm.803 3.579l.099 1.918 1.212-.515-1.311-1.403zm5.321-.952l.47 1.107 1.212-.515-.47-1.107-1.212.515zm-1.486 3.243l1.645 3.875 3.031-1.287 1.175 2.768 1.213-.515-2.115-4.982-2.054.219-1.076-.85-1.819.772zm6.768-.913c.11 2.126.809 3.329 2.115 4.982l1.212-.515-.469-1.107 1.212-.515a33.47 33.47 0 00-4.07-2.845zm4.911 3.142l1.077.849-1.077-.849zm-2.091 3.5l.47 1.107 1.212-.514-.47-1.107-1.212.514zm8.92.787l.29 2.367.162 1.332c.185 1.348.185 1.348.92 2.904l1.819-.772-2.486-4.171 1.213-.515c.587.829 1.175 1.657 1.781 2.51l1.212-.514-2.016-3.064-1.212.515-.47-1.107-1.213.515zm-3.539 3.462l.705 1.66 1.212-.515-.705-1.66-1.212.515zm-26.921 42.782l.47 1.107 2.19-1.583-2.66.476zm47.763-18.968l1.076.85-1.076-.85zm187.353-79.526l.469 1.107 1.213-.515-.47-1.107-1.212.515zM153.52 444.792l.94 2.214 3.266-.733 1.175 2.768 1.819-.772-2.114-4.982-3.403 2.098-.47-1.107-1.213.514zm6.768-.913l.705 1.661.743-1.622-1.448-.039zm.94 2.214l.705 1.661 1.212-.515-.469-1.107 1.212-.515-.47-1.107c-1.293.452-1.293.452-2.19 1.583zm272.707-114.451l1.311 1.404-1.311-1.404zm-1.349 1.88l.47 1.107 1.212-.515-.469-1.107-1.213.515zM166.276 447.87l1.076.85-1.076-.85zm260.269-103.292l.47 1.107-1.584 1.325.47 1.107-1.212.515.47 1.107c1.947-1.63 2.173-2.842 2.834-5.123l-1.448-.038zm-2.599 5.676l-.137 1.364 1.213-.515-1.076-.849zM185.761 453.317l2.153 1.699 1.584-1.325c-1.196-.5-1.196-.5-2.524-.889l-1.213.515zm237.071-100.631l1.076.85-1.076-.85zM186.701 455.531l.47 1.107 1.212-.515-.469-1.107-1.213.515zm3.873-.991l1.076.85-1.076-.85zm231.614-98.314l1.076.85-1.076-.85zm-230.909 99.975l.704 1.66 1.213-.514-.098-1.918-1.819.772zm-2.797 1.84l.47 1.107 1.213-.515-.47-1.107-1.213.515zm6.298-2.02l.705 1.66-.705-1.66zm-2.092 3.501l1.645 3.874 1.213-.514-.47-1.107 1.819-.772.47 1.107 1.212-.515-.705-1.661-1.38.015c-1.515-.092-1.515-.092-2.591-.942l-1.213.515zm4.48-1.248l1.076.849-1.076-.849zm2.152 1.699l.47 1.107 1.212-.515-.469-1.107-1.213.515zm216.183-89.151l.47 1.107-1.213.515.569 3.024 1.584-1.325-.705-1.661 1.212-.514-.704-1.661-1.213.515zm-210.9 91.481l1.311 1.404-1.311-1.404zm209.513-86.32l.47 1.107 1.213-.515-.47-1.107-1.213.515zm-208.104 89.641l2.35 5.536 1.212-.515-1.978-6.346c-.759.273-.759.273-1.584 1.325zm2.66-.476l1.547 1.957 1.212-.515.569 3.025 2.425-1.029c-.948-2.233-2.347-2.816-4.54-3.952l-1.213.514zm7.2 3.477l.47 1.107 1.213-.515-.47-1.107-1.213.515zm2.289.335l1.312 1.403-1.312-1.403zm1.88 4.428l.94 2.214 1.819-.772-1.546-1.957-1.213.515zm3.032-1.287l.939 2.214 1.213-.515 1.311 1.403-.333-2.471-1.213.515-.705-1.661-1.212.515zm3.835 2.291l1.311 1.403.977-1.068-1.076-.849-1.212.514zm180.682-76.695l.099 1.918 1.213-.515-1.312-1.403zm-177.317 77.88l.469 1.107.978-1.068-1.447-.039zm1.682.592l1.311 1.403-.705-1.66-.606.257zm2.524.889l-.136 1.364 1.584-1.326-1.448-.038zm1.917 1.145l.47 1.107 1.213-.514-.47-1.107-1.213.514zm4.207 1.481l.47 1.107 1.212-.515-.47-1.107-1.212.515zm163.1-69.232l-.137 1.365 1.683.592-.334-2.471-1.212.514zm-1.115 2.433l.705 1.66 1.213-.514-.705-1.661-1.213.515zm-157.779 68.28l.47 1.107 1.213-.515-.47-1.107-1.213.515zm1.918 1.146l1.682.592.137-1.365-1.819.773zm2.288.334l.47 1.107 1.584-1.325-2.054.218zm2.289.335l-.273 2.729 1.213-.515-.47-1.107 1.111.509c1.589.589 1.589.589 3.838-.65l-.47-1.107-1.819.772-.469-1.107-2.661.476zm146.889-55.164l1.311 1.403-.099-1.918-1.212.515zm-.645 3.539l.47 1.107 1.213-.515-.47-1.107-1.213.515zm-.742 1.622l.47 1.107 1.212-.515-.47-1.107-1.212.515zm-5.298 9.434l.47 1.107 1.212-.514-.469-1.107-1.213.514zm-1.349 1.879l.47 1.107 1.584-1.325-2.054.218zm-.508 2.176l.705 1.66 1.213-.515-.705-1.66-1.213.515zm-.508 2.175l.334 2.471 1.212-.514-1.546-1.957zm-19.47 35.047c.031 1.223.031 1.223.333 2.472l1.683.592-1.41-3.321-.606.257zm-13.241 7.58l.47 1.107-1.212.515.705 1.661 2.425-1.03 2.152 1.699-1.409-3.321-1.213.515-1.311-1.403-.607.257zm13.779 18.975l.47 1.107 1.819-.773-.47-1.107-1.819.773zm18.47 9.797l.705 1.66.978-1.068-1.683-.592zm2.759 1.442l.705 1.66-.705-1.66zm-3.911 4.273l.705 1.66 1.584-1.325-1.076-.85-1.213.515zm6.298-2.02l.94 2.214 1.213-.515-.94-2.214-1.213.515zm-1.955 2.136l.568 3.025 1.819-.772-1.174-2.768-1.213.515zm12.248 5.253l2.72 4.724 1.213-.514c-.029-1.81-.275-2.41-1.548-3.753l-1.173-.972-1.212.515zm4.911 3.141l.705 1.661 1.212-.515-.705-1.66-1.212.514zm2.524.889l1.546 1.956-1.546-1.956zm-4.01 2.355l1.645 3.874 1.213-.514-1.039-4.132-1.819.772zm3.737.373l2.114 4.982 1.213-.515-2.115-4.981-1.212.514zm3.031-1.286l.334 2.471 1.212-.515-1.546-1.956zm2.388 2.252l.47 1.107.977-1.068-1.447-.039zm1.917 1.146l1.311 1.403-.098-1.918-1.213.515zm2.524.889l1.076.849.137-1.364-1.213.515zm2.152 1.699l1.547 1.957-.099-1.918-1.448-.039zm2.524.888l1.546 1.957-1.546-1.957zm-.273 2.729l.705 1.661 1.213-.515-.705-1.661-1.213.515zm2.661-.476l.469 1.107 1.585-1.325-2.054.218zm25.094-9.998l.469 1.107 1.213-.515.47 1.107 1.213-.515-.94-2.214-2.425 1.03zm-22.571 10.887l1.077.849.136-1.364-1.213.515zm2.289.334l.47 1.108.978-1.069-1.448-.039zm25.094-9.998l-.136 1.364 1.819-.772-.47-1.107-1.213.515zm-23.176 11.144l.47 1.107 1.212-.514-.47-1.107-1.212.514zm4.206 1.481l.47 1.107 1.213-.515-.47-1.107-1.213.515zm-11.285 5.443l.705 1.661 2.425-1.029-.705-1.661-2.425 1.029zm10.542-3.821l.47 1.107 1.213-.515-.47-1.107-1.213.515zm3.032-1.287l.47 1.107.978-1.068-1.448-.039zm1.917 1.146l.47 1.107 1.213-.515-.47-1.107-1.213.515zm4.813 1.223l1.076.85-1.076-.85zm1.918 1.146l.469 1.107 1.584-1.326-2.053.219zm.704 1.66l.705 1.661 1.819-.772-1.311-1.403-1.213.514z" fill="#6D9773" fill-opacity=".1"/></svg>