<svg width="100" height="64" fill="none" xmlns="http://www.w3.org/2000/svg"><path d="M20 42V2" stroke="#BB8A52" stroke-width="3" stroke-linecap="round"/><path d="M32 38V6" stroke="#6D9773" stroke-width="3" stroke-linecap="round"/><path d="M44 39.5v-35" stroke="#FFBA00" stroke-width="3" stroke-linecap="round"/><path d="M56 34.5v-25" stroke="#6D9773" stroke-width="3" stroke-linecap="round"/><path d="M68 42V2" stroke="#BB8A52" stroke-width="3" stroke-linecap="round"/><path d="M80 40V4" stroke="#0C3E2E" stroke-width="3" stroke-linecap="round"/><path d="M4.497 60.195c-.658 0-1.235-.095-1.729-.286a4.032 4.032 0 01-1.235-.748 3.682 3.682 0 01-.76-.968l1.339-.91c.104.238.256.468.455.689.2.217.461.396.786.54.325.138.728.207 1.21.207.463 0 .842-.069 1.137-.208.295-.138.511-.32.65-.546.139-.225.208-.47.208-.734 0-.33-.091-.583-.273-.76a1.456 1.456 0 00-.715-.377 4.343 4.343 0 00-.943-.124 223.556 223.556 0 01-.923-.026h-.123v-1.482h.598c.126-.004.227-.009.305-.013.494-.022.9-.136 1.216-.344.32-.208.481-.516.481-.923 0-.395-.15-.705-.449-.93-.294-.225-.686-.338-1.176-.338-.46 0-.865.102-1.216.305-.346.204-.608.445-.786.722l-1.099-1.118c.317-.386.746-.71 1.287-.975.546-.269 1.166-.403 1.86-.403.407 0 .803.054 1.189.163.386.104.732.264 1.04.48.308.217.552.495.734.832.182.338.273.741.273 1.21 0 .428-.082.825-.247 1.189-.16.36-.385.654-.676.884.412.165.73.416.956.754.23.338.344.765.344 1.28 0 .607-.164 1.131-.494 1.573-.329.442-.775.785-1.339 1.027-.559.239-1.187.358-1.885.358zm8.32 0c-.711 0-1.335-.154-1.873-.462a3.287 3.287 0 01-1.26-1.28c-.3-.546-.45-1.174-.45-1.885 0-.767.148-1.432.443-1.995a3.229 3.229 0 011.228-1.32c.525-.312 1.131-.468 1.82-.468.728 0 1.346.171 1.853.514.511.337.89.816 1.137 1.436s.34 1.35.28 2.19H14.44v-.572c-.004-.762-.138-1.319-.403-1.67-.264-.351-.68-.526-1.248-.526-.641 0-1.118.199-1.43.598-.312.394-.468.972-.468 1.735 0 .71.156 1.261.468 1.651.312.39.767.585 1.365.585.386 0 .718-.084.995-.254a1.69 1.69 0 00.65-.747l1.547.468a3.135 3.135 0 01-1.248 1.476 3.414 3.414 0 01-1.853.526zm-2.419-3.27v-1.182h4.83v1.182h-4.83zM16.795 60v-1.313c.256.048.453.043.592-.013a.603.603 0 00.312-.338c.069-.165.13-.383.182-.657.069-.385.13-.83.182-1.332.056-.503.104-1.04.143-1.612.043-.572.082-1.157.117-1.755h5.167V60h-1.56v-5.551H19.7a104.105 104.105 0 01-.175 2.002 27.749 27.749 0 01-.24 1.827c-.1.507-.243.907-.43 1.202a1.22 1.22 0 01-.766.566c-.33.086-.76.071-1.294-.046zm11.713.195c-.71 0-1.335-.154-1.872-.462a3.286 3.286 0 01-1.261-1.28c-.3-.546-.449-1.174-.449-1.885 0-.767.148-1.432.442-1.995a3.228 3.228 0 011.229-1.32c.524-.312 1.13-.468 1.82-.468.728 0 1.345.171 1.852.514.512.337.89.816 1.138 1.436.247.62.34 1.35.28 2.19h-1.554v-.572c-.005-.762-.139-1.319-.403-1.67-.265-.351-.68-.526-1.248-.526-.642 0-1.118.199-1.43.598-.312.394-.468.972-.468 1.735 0 .71.156 1.261.468 1.651.312.39.767.585 1.365.585.385 0 .717-.084.994-.254.282-.173.499-.422.65-.747l1.547.468a3.136 3.136 0 01-1.248 1.476 3.414 3.414 0 01-1.852.526zm-2.418-3.27v-1.182h4.83v1.182h-4.83zM33.124 60v-7.02h1.566v2.769h3.153V52.98h1.566V60h-1.566v-2.782H34.69V60h-1.566zm10.063.195c-.508 0-.936-.095-1.287-.286a2.023 2.023 0 01-.8-.773 2.149 2.149 0 01-.267-1.06c0-.338.057-.641.17-.91.112-.273.285-.507.52-.702.233-.2.537-.362.91-.487a8.63 8.63 0 01.987-.247c.382-.074.794-.141 1.236-.202.446-.065.912-.134 1.397-.208l-.559.319c.004-.486-.104-.843-.325-1.073-.221-.23-.594-.345-1.118-.345-.316 0-.622.074-.916.222-.295.147-.501.4-.618.76l-1.43-.449c.173-.593.503-1.07.988-1.43.49-.36 1.148-.539 1.976-.539.624 0 1.172.102 1.645.306.476.203.83.537 1.059 1 .126.248.201.501.227.761.026.256.04.535.04.839V60H45.65v-1.521l.227.247c-.316.507-.686.88-1.111 1.118-.42.234-.947.351-1.58.351zm.312-1.248c.355 0 .658-.063.91-.189.25-.125.45-.279.598-.461a1.6 1.6 0 00.305-.514c.082-.199.128-.426.137-.682.013-.26.019-.47.019-.63l.481.143c-.472.073-.877.138-1.215.195-.339.056-.629.11-.872.162a5.545 5.545 0 00-.643.163c-.182.065-.336.14-.462.227a1.007 1.007 0 00-.292.299.78.78 0 00-.098.397c0 .173.044.327.13.461.087.13.213.234.377.312.17.078.377.117.624.117zM51.303 60v-7.02H57.4V60h-1.566v-5.551H52.87V60h-1.567zm9.885.195c-.507 0-.936-.095-1.287-.286a2.023 2.023 0 01-.8-.773 2.15 2.15 0 01-.266-1.06c0-.338.057-.641.17-.91.112-.273.285-.507.52-.702.233-.2.537-.362.91-.487.281-.091.61-.174.987-.247.382-.074.793-.141 1.235-.202.447-.065.913-.134 1.398-.208l-.56.319c.005-.486-.103-.843-.324-1.073-.221-.23-.594-.345-1.118-.345-.316 0-.622.074-.917.222-.294.147-.5.4-.617.76l-1.43-.449c.173-.593.503-1.07.988-1.43.49-.36 1.148-.539 1.976-.539.624 0 1.172.102 1.644.306.477.203.83.537 1.06 1 .126.248.201.501.227.761.026.256.04.535.04.839V60h-1.372v-1.521l.227.247c-.316.507-.686.88-1.111 1.118-.42.234-.947.351-1.58.351zm.312-1.248c.356 0 .66-.063.91-.189.252-.125.451-.279.598-.461.152-.182.254-.353.306-.514.082-.199.128-.426.136-.682.013-.26.02-.47.02-.63l.48.143c-.471.073-.877.138-1.215.195-.338.056-.628.11-.87.162a5.556 5.556 0 00-.644.163 1.99 1.99 0 00-.462.227 1.009 1.009 0 00-.292.299.78.78 0 00-.098.397c0 .173.044.327.13.461.087.13.213.234.377.312.17.078.377.117.624.117zM66.066 60v-1.313c.255.048.453.043.591-.013a.603.603 0 00.312-.338c.07-.165.13-.383.182-.657.07-.385.13-.83.182-1.332.056-.503.104-1.04.143-1.612.043-.572.082-1.157.117-1.755h5.168V60H71.2v-5.551h-2.23a104.105 104.105 0 01-.175 2.002 27.749 27.749 0 01-.24 1.827c-.1.507-.243.907-.43 1.202a1.22 1.22 0 01-.767.566c-.33.086-.76.071-1.293-.046zm8.65-8.086v-1.437h1.567v1.437h-1.566zm0 8.086v-7.02h1.567V60h-1.566zm5.276 0v-5.629h-2.347V52.98h6.26v1.391h-2.347V60h-1.566zm8.518.195c-.685 0-1.259-.163-1.722-.487a2.984 2.984 0 01-1.047-1.326c-.234-.564-.35-1.194-.35-1.892 0-.706.116-1.339.35-1.898.234-.559.576-.999 1.027-1.32.455-.325 1.016-.487 1.684-.487.663 0 1.237.163 1.722.488.49.32.869.76 1.138 1.319.268.555.403 1.187.403 1.898 0 .702-.133 1.332-.397 1.892a3.227 3.227 0 01-1.118 1.326c-.48.325-1.044.487-1.69.487zm-3.386 2.925V52.98h1.384v4.927h.195v5.213h-1.58zm3.146-4.329c.407 0 .743-.102 1.007-.305.264-.204.46-.48.585-.826.13-.351.195-.741.195-1.17 0-.425-.065-.81-.195-1.157a1.78 1.78 0 00-.604-.832c-.273-.208-.62-.312-1.04-.312-.4 0-.724.097-.975.292-.252.191-.438.46-.56.806a3.722 3.722 0 00-.175 1.203c0 .455.059.856.176 1.203.12.346.31.617.565.812.26.19.6.286 1.02.286zm6.84 1.404c-.507 0-.936-.095-1.287-.286a2.023 2.023 0 01-.8-.773 2.149 2.149 0 01-.266-1.06c0-.338.057-.641.17-.91.112-.273.285-.507.52-.702.233-.2.537-.362.91-.487.281-.091.61-.174.987-.247.382-.074.793-.141 1.235-.202.447-.065.913-.134 1.398-.208l-.56.319c.005-.486-.103-.843-.324-1.073-.221-.23-.594-.345-1.118-.345-.316 0-.622.074-.917.222-.294.147-.5.4-.617.76l-1.43-.449c.173-.593.502-1.07.988-1.43.49-.36 1.148-.539 1.976-.539.624 0 1.172.102 1.644.306.477.203.83.537 1.06 1 .126.248.201.501.227.761.026.256.04.535.04.839V60h-1.372v-1.521l.227.247c-.316.507-.686.88-1.111 1.118-.42.234-.947.351-1.58.351zm.312-1.248c.356 0 .659-.063.91-.189.252-.125.451-.279.598-.461.152-.182.254-.353.306-.514.082-.199.128-.426.136-.682.013-.26.02-.47.02-.63l.48.143c-.472.073-.877.138-1.215.195-.338.056-.628.11-.87.162a5.545 5.545 0 00-.644.163 1.99 1.99 0 00-.462.227 1.007 1.007 0 00-.292.299.78.78 0 00-.098.397c0 .173.044.327.13.461.087.13.213.234.377.312.17.078.377.117.624.117z" fill="#0C3E2E"/></svg>