<svg width="200" height="200" fill="none" xmlns="http://www.w3.org/2000/svg"><g clip-path="url(#clip0_1_180)"><path d="M44.922 48.828a38.66 38.66 0 013.515 3.125c-.037.547-.099 1.092-.17 1.636-.464 4.374-.88 8.77 1.96 12.445.874 1.204.987 2.442.945 3.888-.613 3.28-1.89 5.876-4.688 7.812-1.357.453-2.485.418-3.906.39-.031-2.71.001-5.405.14-8.112l.075-1.564c.038-.793.078-1.587.126-2.38.19-3.197.322-5.554-1.513-8.256-1.906-1.813-3.503-2.094-6.053-2.061-1.463.162-2.241.693-3.322 1.67-1.477 1.956-1.989 3.383-2.105 5.803l-.071 1.428-.072 1.55-.077 1.602c-.054 1.124-.106 2.248-.158 3.371-.053 1.14-.107 2.28-.163 3.42-.178 3.65-.338 7.3-.479 10.952l-.05 1.154c-.036.928-.062 1.857-.083 2.786l-.04 1.425c.166 1.223.358 1.682.987 2.69.748 1.32.748 1.32.699 2.36a28.537 28.537 0 01-1.107 2.617l-.461.953-.482.981c-2.091 3.809-2.091 3.809-2.965 7.946.508 1.234 1.229 2.063 2.11 3.064l1.08 1.255.555.646c.999 1.184 1.929 2.421 2.867 3.653a481.583 481.583 0 003.642 4.708c6.803 8.707 7.216 13.207 5.936 24.094l-.307 2.656c-.214 1.848-.43 3.695-.648 5.542-.277 2.36-.549 4.72-.819 7.081-.21 1.825-.422 3.651-.636 5.476-.102.87-.202 1.74-.302 2.61-.14 1.218-.283 2.435-.428 3.653l-.12 1.073c-.697 5.713-.697 5.713-2.359 7.841l-.795.611-.792.635c-2.304 1.556-4.3 1.59-7.044 1.318-2.518-.623-3.699-2.102-5.028-4.25-1.504-2.825-.813-6.192-.431-9.248l.129-1.076c.091-.764.184-1.528.278-2.292.148-1.21.293-2.42.438-3.631.41-3.439.827-6.877 1.245-10.316.256-2.108.508-4.217.76-6.326.096-.802.193-1.604.291-2.405.138-1.119.272-2.239.405-3.36l.126-.998c.23-1.978.44-3.9-.615-5.685l-.563-.659-.63-.752-.678-.784-1.404-1.677-.702-.834a98.99 98.99 0 01-2.581-3.275l-.94-1.232-.496-.65c-1.077-1.404-2.165-2.801-3.252-4.198l-.708-.91a1580.718 1580.718 0 00-4.79-6.122 583.08 583.08 0 00-2.71-3.42c-3.606-4.527-6.064-7.74-5.488-13.79 1.24-3.866 4.023-6.43 7.03-8.985 2.279-1.949 4.343-3.936 6.251-6.25l.754-.887c4.865-5.859 7.514-12.138 9.298-19.45 1.436-5.678 4.085-9.436 9.089-12.476 3.644-2.126 9.015-1.96 12.5.391z" fill="#000"/><path d="M71.875 89.844c2.626 1.105 4.118 2.445 5.86 4.687l.78-1.172-1.171-.39c-.05-.928-.05-.928 0-1.953l.781-.782c1.832.138 3.433.573 5.148 1.212l1.39.514 1.477.556 1.533.57c1.066.398 2.132.797 3.196 1.197 1.366.514 2.733 1.023 4.1 1.53 1.053.392 2.106.785 3.158 1.18l1.512.564c.703.261 1.405.526 2.106.79l1.211.454c.95.418.95.418 1.732 1.199.122.977.122.977 0 1.953-1.172.781-1.172.781-2.344.781-1.217 4.466-2.332 8.953-3.418 13.453l-.487 2.008c-.392 1.617-.783 3.235-1.173 4.852l8.189-3.209 2.779-1.089 4.023-1.577 1.311-.513a541.495 541.495 0 005.545-2.201l.837-.339c.701-.284 1.402-.571 2.102-.858.995-.37.995-.37 1.776-.37l-.342-1.05c-.048-1.294-.048-1.294.459-1.848l1.836-1.399c.508.983 1.012 1.968 1.514 2.954l.432.834c.867 1.71 1.496 3.335 1.961 5.196l-3.516.391-.391-1.563c-9.708 4.945-9.708 4.945-19.307 10.096-3.688 2.035-7.423 3.98-11.162 5.92l.579.523c.593.649.593.649.715 1.65-.122.952-.122.952-.903 1.733-1.953-.136-3.634-.651-5.457-1.342l-.779-.293c-.842-.318-1.683-.639-2.524-.96l-1.773-.671c-1.553-.587-3.104-1.177-4.656-1.768a1721.08 1721.08 0 00-3.776-1.432 2057.351 2057.351 0 01-10.722-4.081l-1.224-.466-1.067-.414-.902-.347c-.714-.335-.714-.335-1.495-1.116-.049-.953-.049-.953.39-1.954.684-.305.684-.305 1.514-.561 1.21-.399 1.555-.541 2.393-1.563 1.8-6.413-1.615-12.875-4.035-18.685-.262-.675-.262-.675-.262-1.066h3.906c.499 1.163.995 2.327 1.49 3.492l.421.983a71.523 71.523 0 012.386 6.463c1.461-1.86 2.505-3.924 3.613-6.006l.672-1.218.629-1.184.578-1.073c.45-1.305.334-2.088-.023-3.41-.609-.767-.609-.767-1.367-1.416-1.805-1.897-1.787-3.873-1.758-6.396z" fill="#BB8A52"/><path d="M70.44 18.997c2.453 2.012 4.301 4.56 5.341 7.566v1.171l1.035.307c4.787 1.735 9.974 6.09 12.247 10.63.264 1.963.264 1.963-.444 2.986-1.7 1.24-4.214.733-6.197.53-6.03-1.332-11.808-4.52-16.406-8.593-.447-.368-.894-.734-1.343-1.099A33.561 33.561 0 0162.5 30.47c2.51 4.518 6.69 8.44 10.938 11.328-.94 2.87-3.301 4.74-5.92 6.116-4.447 1.89-9.223 2.54-13.883.906-4.91-2.08-8-5.005-10.303-9.856-1.61-4.245-1.5-8.966.075-13.182 1.966-4.367 4.99-7.352 9.346-9.329 6.193-2.343 12.297-1.235 17.688 2.545zm-9.112 9.128l.391.781-.39-.78zm.391.781l.39.782-.39-.782zM39.77 57.495c1.11.92 1.481 1.715 2.026 3.052.094 1.07.129 2.036.096 3.1l-.014.917c-.018 1.005-.048 2.01-.082 3.014l-.034 1.072a513.035 513.035 0 01-.278 6.759c-.055 1.174-.106 2.348-.157 3.522l-.103 2.246-.045 1.06c-.119 2.439-.119 2.439-.555 3.31l.823.053c3.503.228 7.005.473 10.506.728l.904.066c1.84.135 3.681.276 5.52.424.595.047 1.19.093 1.784.137 7.848.585 7.848.585 9.956 2.693.998 1.664 1.109 2.965.976 4.883-.81 1.833-2.12 3.013-3.906 3.906-3.247.126-6.471-.206-9.703-.485l-1.796-.152-3.75-.321c-1.592-.137-3.184-.271-4.776-.404-1.235-.104-2.47-.21-3.705-.316l-1.76-.149c-8.859-.74-8.859-.74-10.68-2.439-1.36-1.868-1.224-3.758-1.135-5.987l.027-1.343c.04-1.604.102-3.207.169-4.81l.08-2.06c.184-4.627.389-9.253.653-13.876.043-.778.082-1.556.12-2.335l.076-1.25.057-1.03c.412-2.072 1.625-3.27 3.31-4.449 1.883-.627 3.608-.29 5.396.464zM43.75 21.875a17.866 17.866 0 01-1.148 3.906l-.4.977-.405.976-.246.952c-.685 1.282-1.541 1.784-2.715 2.611-1.116.867-2.096 1.835-3.079 2.846-.28.288-.28.288-.568.581-.777.799-1.55 1.6-2.321 2.405-3.73 3.886-7.325 6.917-12.897 7.134-3.564-.093-6.73-1.284-9.424-3.638-.986-1.204-1.526-2.307-1.66-3.882l.097-.806.757.318 1.197.464.788.354c2.035.827 3.337.928 5.384.096 2.94-1.541 5.14-3.867 7.358-6.294 5.423-5.933 10.688-10.719 19.282-9z" fill="#000"/><path d="M187.109 166.016c1.761 3.904 1.982 7.201.782 11.328l1.44.122c1.09.092 1.673.261 2.622.836 1.12.666 2.063.902 3.335 1.166 1.899.452 3.282.822 4.712 2.173.146 1.074.146 1.074 0 1.953-3.746 1.755-8.391 1.385-12.402.952-1.606-.167-3.022-.1-4.616.116a31.59 31.59 0 01-10.716-.678c-.391-.39-.391-.39-.611-1.269.263-1.283.486-1.411 1.538-2.124 1.572-.896 3.067-1.221 4.839-1.503.936-.142.936-.142 1.851-.792 1.523-.876 3.153-.855 4.883-.952.769-2.761.781-4.985.39-7.813l-.116-.88c-.085-.619-.178-1.237-.274-1.854 1.464-.781 1.464-.781 2.343-.781zM148.828 166.016c.781.39.781.39 1.114 1.132 1.09 3.489 1.292 6.725.058 10.196l1.44.122c1.088.092 1.666.257 2.608.836 1.535.9 3.142 1.086 4.875 1.408 1.377.411 2.148.949 3.186 1.931.367.83.367.83.391 1.562-1.847 1.847-5.55 1.615-8.032 1.636-1.6-.023-3.17-.124-4.761-.293-1.606-.167-3.022-.1-4.616.116-3.64.397-7.143.043-10.716-.678-.229-.924-.229-.924-.391-1.953 1.171-1.809 3.12-2.165 5.078-2.734 1.564-.508 1.564-.508 3.1-1.09 1.641-.664 2.907-.999 4.713-.863.934-3.27 1.019-5.673 0-8.985v-1.562c.928-.415.928-.415 1.953-.781z" fill="#BB8A52"/><path d="M162.109 157.813c-1.091 4.248-2.571 7.57-6.25 10.156-1.421.473-2.413.545-3.906.39-1.395-1.152-2.259-1.992-2.466-3.808.179-1.858.9-2.931 2.306-4.154 2.923-2.064 6.778-2.831 10.316-2.584zM173.438 156.25c3.744.147 7.707.631 10.62 3.198 1.124 1.288 1.556 2.458 1.62 4.164-.241 1.546-.91 2.164-2.084 3.185-1.684.709-3.026.251-4.688-.391-1.868-1.349-2.811-2.53-3.833-4.638l-.691-1.389c-.574-1.445-.793-2.594-.944-4.129zM135.547 156.25c3.797.149 7.797.599 10.62 3.369 1.024 1.141 1.456 1.812 1.636 3.369-.196 1.959-.673 2.477-2.1 3.809-1.684.709-3.026.251-4.687-.391-1.869-1.349-2.811-2.53-3.833-4.638l-.692-1.389c-.574-1.445-.793-2.594-.944-4.129zM200 157.813c-.984 4.057-2.651 7.794-6.25 10.156-1.421.473-2.413.545-3.906.39-1.395-1.152-2.26-1.992-2.466-3.808.179-1.858.9-2.931 2.306-4.154 2.923-2.064 6.778-2.831 10.316-2.584zM151.563 149.219c1.395 3.336 1.98 5.948.775 9.434-.385.722-.385.722-1.556 1.503-1.426.186-2.175.085-3.467-.561-1.047-1.263-1.092-1.99-.992-3.592.405-2.313 2.523-6.784 5.24-6.784zM189.454 149.219c1.133 2.672 1.584 5.307 1.171 8.203-.559 1.095-1.084 1.866-1.953 2.734-1.524.133-2.618.078-3.906-.781-.739-1.478-.634-3.082-.391-4.687.812-1.733 2.933-5.469 5.079-5.469z" fill="#0C3E2E"/><path d="M187.891 126.172l1.953 1.953-.782 1.172c-.756-.269-.756-.269-1.562-.781-.293-1.026-.293-1.026-.391-1.954l.782-.39zM184.375 122.656c1.12.224 1.508.337 2.344 1.172-.147.83-.147.83-.391 1.563h-1.172c-.683-.708-.683-.708-1.172-1.563l.391-1.172zM181.641 118.75l1.953 1.562-.782 1.563-1.171-.391c-.464-1.001-.464-1.001-.782-1.953l.782-.781zM165.234 108.203l2.735.781-.391 1.563c-1.855-.342-1.855-.342-2.734-.781l.39-1.563zM193.75 134.375c.558.92.815 1.36.635 2.441l-.244.684c-1.172-.391-1.172-.391-1.953-1.562v-1.172c.781-.391.781-.391 1.562-.391zM169.531 132.812l1.172.391c.464 1.001.464 1.001.781 1.953l-1.562.391c-1.172-1.465-1.172-1.465-1.172-2.344l.781-.391zM157.031 132.422c.806.268.806.268 1.563.781.293.83.293.83.39 1.563l-1.562.39c-1.172-1.465-1.172-1.465-1.172-2.344l.781-.39zM168.359 118.75l2.344 1.172-.391 1.562c-.732-.097-.732-.097-1.562-.39-.513-.757-.513-.757-.781-1.563l.39-.781zM138.672 118.75c1.855.342 1.855.342 2.734.781l-.39 1.563c-1.856-.293-1.856-.293-2.735-1.172l.391-1.172zM177.734 115.625c1.025.41 1.482.644 2.051 1.611l.293.733c-.708.268-.708.268-1.562.39-.708-.463-.708-.463-1.172-1.171.122-.855.122-.855.39-1.563zM173.828 112.891c.952.293.952.293 1.953.781.318.83.318.83.391 1.562-1.563 0-1.563 0-2.734-.781l.39-1.562zM169.922 110.156l2.344 1.172-.391 1.563a39.495 39.495 0 01-2.344-.782l-.39-.781.781-1.172zM160.547 106.641l2.734.39v1.953l-2.734-.781v-1.562zM176.172 144.922l.781.39c.244 1.197.244 1.197.391 2.344l-1.563.391-.781-2.344 1.172-.781zM159.766 135.938h.781l1.172 2.343-1.563.781-1.172-2.343.782-.781zM180.469 132.422c.732.073.732.073 1.562.39.489 1.001.489 1.001.781 1.954l-1.562.39c-.61-.708-.61-.708-1.172-1.562l.391-1.172zM190.625 130.078c.806.684.806.684 1.563 1.563-.098.879-.098.879-.391 1.562h-1.172l-.781-2.344.781-.781zM166.406 129.297c.733.098.733.098 1.563.391.488.805.488.805.781 1.562l-1.562.781c-.611-.708-.611-.708-1.172-1.562l.39-1.172zM153.906 128.906c1.235.535 1.56.777 2.344 1.953l-1.562.782-1.563-1.953.781-.782zM163.281 125.781c1.024.41 1.482.645 2.051 1.612l.293.732c-.708.269-.708.269-1.563.391-.708-.464-.708-.464-1.171-1.172.122-.855.122-.855.39-1.563zM175.391 125c.756.293.756.293 1.562.781.293.83.293.83.391 1.563l-1.563.39-1.172-1.953.782-.781zM160.156 122.656l1.953 1.172-.39 1.563c-.733-.098-.733-.098-1.563-.391-.488-.806-.488-.806-.781-1.562l.781-.782zM155.859 120.312c.928.123.928.123 1.953.391l.782 1.172-.391.781c-.928-.122-.928-.122-1.953-.39l-.781-1.172.39-.782zM160.547 114.453l1.953.391.391 1.562c-1.172.391-1.172.391-2.027.025l-.708-.415.391-1.563zM138.672 113.672l2.734.39v1.563l-2.734-.391v-1.562zM166.406 152.734h1.563l.39 2.735-1.953-.391v-2.344zM163.672 144.141c.806.171.806.171 1.562.39l.391 1.953-1.563.391-.781-2.344.391-.39zM173.828 141.016c.806.171.806.171 1.563.39l.39 1.953-1.562.391-.781-2.344.39-.39zM162.891 139.844c.57 1.034.781 1.521.781 2.734l-1.172.391c-1.172-1.856-1.172-1.856-1.172-2.735.781-.39.781-.39 1.563-.39zM195.312 138.672c.977.849 1.343 1.457 1.563 2.734l-1.563.391c-.57-1.034-.781-1.521-.781-2.735l.781-.39zM171.875 136.719c.757.293.757.293 1.562.781.293.83.293.83.391 1.562l-1.562.391c-.782-1.172-.782-1.172-.635-2.026l.244-.708zM182.812 136.328h1.172l.782 2.344-1.563.39-.781-2.343.39-.391zM178.125 128.516c.757.293.757.293 1.562.781.293.83.293.83.391 1.562l-1.562.391c-.782-1.172-.782-1.172-.635-2.026l.244-.708zM150.781 125.781l1.953 1.563-.39 1.172c-.733-.098-.733-.098-1.563-.391-.488-.806-.488-.806-.781-1.563l.781-.781zM146.875 123.047l2.344 1.172-.391 1.562c-.952-.317-.952-.317-1.953-.781l-.391-1.172.391-.781zM171.875 121.875c.732.098.732.098 1.563.391.488.805.488.805.781 1.562l-1.172.781-1.563-1.562.391-1.172zM142.969 120.703c.952.318.952.318 1.953.781l.39 1.172-.39.782c-.952-.318-.952-.318-1.953-.782l-.391-1.172.391-.781zM151.953 117.969c.789.235 1.571.497 2.344.781l.391.781-.391.781c-1.856-.341-1.856-.341-2.735-.781l.391-1.562zM134.375 117.188l2.344.39.39 1.563-.781.39c-1.025-.366-1.025-.366-1.953-.781v-1.562zM164.453 116.406l2.344.782v1.562c-1.856-.342-1.856-.342-2.735-.781l.391-1.563zM147.656 116.016l2.735.781-.391 1.562c-1.855-.293-1.855-.293-2.734-1.171l.39-1.172zM143.359 114.844l2.735.39-.391 1.563-2.344-.391v-1.562zM133.984 112.891l2.735.39v1.563l-2.735-.391v-1.562zM151.562 111.328l2.735.391v1.562l-2.735-.39v-1.563zM142.578 109.766l2.734.39v1.563l-2.734-.391v-1.562zM136.328 109.375v1.563l-2.734.39v-1.562c.973-.269 1.71-.391 2.734-.391zM134.766 105.859v1.563l-2.735.39v-1.562c.973-.268 1.711-.391 2.735-.391zM155.859 105.469l2.735.39v1.563l-2.735-.391v-1.562zM139.453 105.078v1.563l-2.734.39v-1.562c.962-.481 1.671-.419 2.734-.391zM151.172 104.688l2.734.39v1.563l-2.734-.391v-1.562zM165.234 148.438c.806.17.806.17 1.563.39l.391 1.953-1.563.391-.781-2.344.39-.39zM156.25 112.5l2.344.781v1.563l-2.344-.391-.391-1.172.391-.781zM146.484 104.688h2.735v1.562h-2.735v-1.562zM141.406 104.688h2.735v1.562h-2.735v-1.562zM147.266 110.547h2.343l.391 1.172-.781.781c-1.026-.146-1.026-.146-1.953-.391v-1.562zM138.281 109.375l2.344.391v1.562l-2.734-.39.39-1.563zM168.75 157.031v1.953h-1.562v-1.562c1.171-.391 1.171-.391 1.562-.391zM197.656 142.969l.782 1.562-1.563.391-.391-1.563 1.172-.39zM184.375 140.625h1.563l.39 1.172-1.953.391v-1.563zM131.25 116.406h1.562l-.39 1.563h-1.563l.391-1.563zM130.469 112.891h1.953l-.391 1.562-1.562-.391v-1.171zM130.078 109.766h1.563v1.562l-1.563.391v-1.953zM176.953 149.609h1.172l.391 1.563-1.954-.391.391-1.172zM130.078 107.031l-.39 1.953-1.172-.39v-1.172c.781-.391.781-.391 1.562-.391z" fill="#000"/></g><defs><clipPath id="clip0_1_180"><path fill="#fff" d="M0 0h200v200H0z"/></clipPath></defs></svg>