<?xml version="1.0" encoding="utf-8"?><svg xmlns="http://www.w3.org/2000/svg" xmlns:xlink="http://www.w3.org/1999/xlink"><symbol viewBox="0 0 59 12" id="arrow" xmlns="http://www.w3.org/2000/svg"><path d="m.553 6 10 5.774V.226L.553 6zm9 1h49V5h-49v2z" /></symbol><symbol viewBox="0 0 16 26" id="arrow-down" xmlns="http://www.w3.org/2000/svg"><path d="M7.293 25.038a1 1 0 0 0 1.414 0l6.364-6.364a1 1 0 0 0-1.414-1.414L8 22.917 2.343 17.26A1 1 0 0 0 .93 18.674l6.364 6.364zM9 24.331V0H7v24.331h2z" /></symbol><symbol viewBox="0 0 24 24" id="facebook" xmlns="http://www.w3.org/2000/svg"><path d="M22 12c0-5.52-4.48-10-10-10S2 6.48 2 12c0 4.84 3.44 8.87 8 9.8V15H8v-3h2V9.5C10 7.57 11.57 6 13.5 6H16v3h-2c-.55 0-1 .45-1 1v2h3v3h-3v6.95c5.05-.5 9-4.76 9-9.95z" /></symbol><symbol viewBox="0 0 70 60" id="hamburger" xmlns="http://www.w3.org/2000/svg"><path d="M11.667 15h46.666M11.667 30h46.666M11.667 45h46.666" stroke="#0C3E2E" stroke-width="2" stroke-linecap="round" stroke-linejoin="round"/></symbol><symbol viewBox="0 0 24 24" id="instagram" xmlns="http://www.w3.org/2000/svg"><path d="M13.028 2.001c.73-.003 1.46.005 2.189.022l.194.007c.224.008.445.018.712.03 1.064.05 1.79.218 2.427.465.66.254 1.216.598 1.772 1.154.508.5.901 1.104 1.153 1.771.247.637.415 1.364.465 2.428.012.266.022.488.03.712l.006.194c.017.73.025 1.459.023 2.188v2.056c.003.73-.005 1.46-.022 2.19l-.006.193c-.008.224-.018.445-.03.712-.05 1.064-.22 1.79-.466 2.427a4.884 4.884 0 0 1-1.153 1.772c-.5.509-1.105.902-1.772 1.153-.637.247-1.363.415-2.427.465-.267.012-.488.022-.712.03l-.194.006c-.73.018-1.46.026-2.19.023l-.745.001h-1.31c-.73.003-1.459-.005-2.188-.023l-.194-.006a60.403 60.403 0 0 1-.712-.03c-1.064-.05-1.79-.22-2.428-.466a4.888 4.888 0 0 1-1.771-1.153 4.904 4.904 0 0 1-1.154-1.772c-.247-.637-.415-1.363-.465-2.427a74.175 74.175 0 0 1-.03-.712l-.005-.194A76.078 76.078 0 0 1 2 13.028v-2.056a78.81 78.81 0 0 1 .022-2.188l.007-.194c.008-.224.018-.446.03-.712.05-1.065.218-1.79.465-2.428A4.88 4.88 0 0 1 3.68 3.68a4.897 4.897 0 0 1 1.77-1.155c.638-.247 1.363-.415 2.428-.465l.712-.03.194-.005A79.763 79.763 0 0 1 10.972 2l2.056.001zm-1.028 5a5 5 0 1 0 0 10 5 5 0 1 0 0-10zm0 2a3 3 0 1 1 0 6 3 3 0 1 1 0-6zm5.25-3.5a1.25 1.25 0 0 0 0 2.498 1.25 1.25 0 0 0 0-2.5v.002z" /></symbol><symbol viewBox="0 0 52 49" id="telegram" xmlns="http://www.w3.org/2000/svg"><path d="M25.805 4.004c-12.053 0-21.835 9.194-21.835 20.522 0 11.328 9.782 20.521 21.835 20.521 12.052 0 21.834-9.193 21.834-20.521 0-11.328-9.782-20.522-21.834-20.522zM35.936 17.96c-.328 3.242-1.747 11.123-2.467 14.755-.306 1.539-.917 2.052-1.485 2.114-1.267.102-2.227-.78-3.45-1.54-1.921-1.19-3.013-1.928-4.87-3.078-2.16-1.334-.763-2.072.481-3.263.328-.307 5.917-5.089 6.027-5.52a.385.385 0 0 0-.006-.197.404.404 0 0 0-.104-.172c-.13-.103-.305-.062-.458-.041-.197.04-3.253 1.95-9.214 5.725-.874.554-1.66.841-2.358.821-.787-.02-2.271-.41-3.385-.76-1.375-.41-2.445-.636-2.358-1.354.044-.37.59-.739 1.616-1.128 6.376-2.607 10.611-4.33 12.73-5.151 6.07-2.38 7.314-2.791 8.144-2.791.174 0 .59.04.851.246a.8.8 0 0 1 .306.554c-.022.123.022.493 0 .78z" /></symbol></svg>