<svg width="228" height="333" fill="none" xmlns="http://www.w3.org/2000/svg"><path d="M70.16 290.032C42.708 292.679 0 282.001 0 282.001v41.615s42.63 8.295 70.16 7.301c20.45-.738 35.079-1.703 51.888-7.301 16.809-5.597 36.603-6.642 55.543-19.712 21.749-15.009 29.477-36.505 41.657-53.297 0 0 10.757-27.961 5.116-44.535-5.396-15.853-14.343-23.705-29.233-31.394-13.131-6.78-22.896-3.143-37.272-6.571-21.069-5.024-37.98-1.574-52.62-17.522-7.251-7.899-10.758-13.646-13.155-24.093-3.29-14.347 2.896-22.814 5.847-37.234 2.412-11.79 5.825-17.993 7.308-29.934 1.582-12.733 5.142-21.097 0-32.854-4.686-10.715-10.625-16.148-21.194-21.173-16.592-7.888-29.06.23-46.773 5.11C21.991 14.62 0 26.47 0 26.47v69.358s47.718-20.046 59.197 0c3.92 6.846 4.392 11.827 4.385 19.713-.014 15.054-11.966 20.561-16.078 35.044-1.91 6.725-4.799 10.627-3.654 17.522 1.56 9.401 8.443 12.407 15.347 18.983 14.69 13.992 27.608 15.606 46.042 24.093 13.479 6.205 26.222 2.706 35.08 14.601 5.064 6.802 7.407 11.966 7.308 20.443-.096 8.209-2.181 13.297-7.308 19.712-6.296 7.878-13.409 8.376-22.656 12.412-17.507 7.64-28.487 9.848-47.504 11.681z" fill="#6D9773" fill-opacity=".2" stroke="#FBFDF8" stroke-width="2.569"/></svg>