<svg width="311" height="408" fill="none" xmlns="http://www.w3.org/2000/svg"><path d="M215.385 53.058C252.795 49.824 311 62.87 311 62.87V12.02s-58.098-10.135-95.615-8.92c-27.871.902-47.808 2.082-70.716 8.92-22.908 6.84-49.884 8.117-75.696 24.087-29.64 18.339-40.171 44.605-56.771 65.122 0 0-14.66 34.166-6.972 54.418 7.353 19.37 19.547 28.965 39.84 38.359 17.894 8.285 31.202 3.84 50.795 8.029 28.714 6.139 51.76 1.923 71.712 21.41 9.882 9.652 14.662 16.674 17.928 29.439 4.485 17.53-3.947 27.876-7.968 45.496-3.287 14.405-7.939 21.985-9.96 36.576-2.156 15.558-7.008 25.778 0 40.144 6.386 13.092 14.479 19.73 28.884 25.87 22.612 9.638 39.603-.28 63.743-6.245C281.03 389.581 311 375.101 311 375.101v-84.748s-65.032 24.494-80.676 0c-5.341-8.365-5.985-14.451-5.975-24.087.018-18.395 16.307-25.123 21.911-42.82 2.602-8.216 6.54-12.984 4.98-21.41-2.126-11.487-11.507-15.159-20.916-23.194-20.02-17.098-37.624-19.069-62.747-29.439-18.369-7.582-35.736-3.306-47.808-17.842-6.902-8.311-10.095-14.621-9.96-24.978.131-10.03 2.973-16.248 9.96-24.086 8.581-9.626 18.274-10.235 30.876-15.166 23.86-9.336 38.823-12.033 64.74-14.273z" fill="#6D9773" fill-opacity=".2" stroke="#FBFDF8" stroke-width="4.297"/></svg>