<svg width="267" height="240" fill="none" xmlns="http://www.w3.org/2000/svg"><path d="M92.86 18.098l1.808.505c5.543 1.65 10.157 4.04 14.707 7.64 1.656.757 1.656.757 3.049 1.17l-.192 1.568 1.845.823a68.616 68.616 0 015.93 3.314c3.084 1.883 6.136 3.164 9.544 4.355-.803.823-1.621 1.633-2.444 2.436l-1.376 1.37c-2.091 1.466-3.047 1.732-5.601 1.404a55.347 55.347 0 01-5.202-4.37c-3.652-3.303-7.107-6.082-11.569-8.258-1.544-.762-1.544-.762-3.018-1.763-1.566-1.009-3.008-1.572-4.775-2.153a56.341 56.341 0 01-6.028-2.363c-11.842-4.603-25.08-3.388-36.574 1.52-7.985 3.702-15.718 9.249-21.29 16.075l-1.231 1.437c-7.45 9.337-10.453 21.125-9.562 32.917.422 2.79.964 5.523 1.566 8.28l.437 2.584c1.103 6.319 3.285 11.52 6.108 17.247a675.29 675.29 0 011.748 3.592c.578 1.197 1.166 2.39 1.763 3.579 1.145 2.366 1.979 4.237 2.182 6.872-.893 2.438-2.255 3.52-4.256 5.154l-2 1.659-1.55 1.237c-1.982-.54-2.877-.933-4.101-2.616a429.142 429.142 0 01-2.984-5.913l-1.07-2.049c-1.99-3.972-3.037-6.917-2.712-11.446l.073-2.198.1-2.058a60.137 60.137 0 00-.481-10.127c-.127-1.586-.127-1.586.258-4.722l-1.573-.193-.221-2.234-.295-2.902-.291-2.89c-.198-2.359-.198-2.359-.895-4.12.474-9.448 1.438-19.426 5.825-27.931l1.573.193.567-1.771c.7-2.053.7-2.053 1.776-4.308l1.573.193.398-1.67c2.427-6.009 9.512-10.82 15.09-13.935l2.328-1.302c6.31-3.35 12.781-6.392 20.063-5.498l.192-1.568c10.597-.953 20.598.371 30.789 3.234z" fill="#BB8A52" fill-opacity=".2"/><path d="M98.975 13.356l2.417.912c9.767 3.912 18 10.563 25.335 17.988 1.863 1.575 3.142 2.188 5.523 2.693l2.009-.313c2.02.011 2.02.011 3.988 1.658l1.948 2.216c2.706 3.05 2.706 3.05 5.772 5.717 1.877 1.481 2.992 2.93 4.299 4.92l1.211 1.818c.966 1.582.966 1.582 1.56 3.247l-3.836-1.267.192-1.568-1.573-.193.193-1.568-1.573-.193-.979 1.471.192-1.567-1.839-.873-1.901-1.178-.498-2.449-1.572-.193c-1.018-1.517-1.018-1.517-2.073-3.437l-1.068-1.922-.808-1.492c-1.779.63-2.868 1.472-4.318 2.653l-2.167-1.858-1.544 1.601c-2.025 1.879-4.047 3.16-6.401 4.586-2.008 2.081-2.008 2.081-2.893 4.867-1.215 2.586-1.215 2.586-2.798 3.287l-1.756.48-1.875 1.86-1.752 1.674-2.359-.29a157.191 157.191 0 00-3.222 3.584c-1.979 2.031-4.246 3.457-6.614 5-5.124 3.272-5.124 3.272-8.204 8.3-1.65.842-1.65.842-3.339 1.181l-1.477-.977-.909 2.525c-1.437 2.976-1.911 3.397-4.772 4.735-3.044 2.143-3.044 2.143-5.4 4.957-1.372 2.008-3.216 2.818-5.29 4.076-3.15 2.627-5.276 4.838-6.66 8.731l.498 2.449-2.264-1.074c-1.616.757-1.616.757-3.183 1.947l-1.649 1.162-1.25.919.497 2.448-1.36-.714c-1.685-.646-1.685-.646-3.168.208-1.39 1.386-1.39 1.386-1.348 3.664-.4 2.438-.4 2.438-2.642 4.45l-2.171 1.424-.305-4.016-1.766 1.375-2.263-1.074 2.052-1.703c4.329-3.613 8.61-7.227 12.65-11.163 4.157-4.036 8.578-7.711 13.03-11.412a187.773 187.773 0 005.86-5.07c3.173-2.868 6.448-5.614 9.723-8.367a487.71 487.71 0 008.13-6.996c3.758-3.281 7.677-6.316 11.646-9.335 2.113-1.59 2.113-1.59 3.885-3.779l1.573.194.697-1.252c1.641-2.2 3.582-3.58 5.785-5.214a104.732 104.732 0 004.304-3.35l.192-1.569c1.402-.634 2.81-1.255 4.222-1.869a127.403 127.403 0 003.531-2.75l-2.348-1.074-3.083-1.432-1.543-.704c-2.968-1.387-5.461-2.87-7.986-4.992l-1.477-.977.193-1.568-1.593-.444c-2.178-.799-4.037-1.842-6.028-3.019-12.82-7.445-28.156-8.867-42.732-9.086l-.192 1.568-2.72.487c-7.723 1.477-13.997 3.433-20.65 7.784l-1.894 1.133c-5.122 3.188-9.992 7.501-12.615 13.001l-1.573-.193-.566 1.77c-.701 2.053-.701 2.053-1.777 4.309l-1.573-.194-.323 1.443-.436 1.896-.427 1.878c-.466 1.742-.466 1.742-1.542 3.998-.577 3.009-.927 6.05-1.315 9.089l-.357 2.502c-.593 4.632-.697 8.498.513 13.03.482 2.17.2 4.084-.235 6.242l1.573.193c.92 6.873 1.714 13.869.643 20.769l-1.765 1.375c-6.777-19.44-12.015-40.957-2.823-60.725 3.976-7.662 8.848-13.813 15.096-19.732l1.777-1.87C47.167 6.87 74.525 2.856 98.975 13.356z" fill="#BB8A52" fill-opacity=".2"/><path d="M98.927 13.57l2.417.912c9.767 3.912 18 10.564 25.335 17.988 1.863 1.575 3.142 2.188 5.523 2.693l2.009-.313c2.019.012 2.019.012 3.988 1.658l1.948 2.216c2.717 3.059 2.717 3.059 5.792 5.738 1.782 1.4 2.765 2.66 3.971 4.563a106.486 106.486 0 0010.597 13.607c2.187 2.42 4.196 4.915 6.153 7.523l1.588 2.11a467.295 467.295 0 013.215 4.348l1.582 2.085 1.405 1.896c1.416 1.505 1.416 1.505 3.422 1.475 2.342-.504 4.434-1.217 6.659-2.104l2.67-1.053 2.838-1.137 4.405-1.735c.994-.39 1.987-.782 2.981-1.174 4.686-1.85 9.386-3.66 14.098-5.444l2.114-.813c11.241-4.244 11.241-4.244 16.236-3.151-.851 20.317-10.175 50.819-25.004 65.344a302.624 302.624 0 01-7.615 6.696 287.504 287.504 0 00-5.12 4.494c-2.978 2.668-5.999 5.284-9.028 7.894a424.929 424.929 0 00-5.075 4.505c-4.138 3.698-8.44 7.191-12.737 10.702l-1.849 1.52-1.669 1.365c-1.376 1.111-1.376 1.111-2.296 2.631 11.857 3.587 23.691 5.543 35.959 7.051l2.23.282c2.126.265 4.252.518 6.379.766l1.935.239c5.928.654 9.878-.271 14.972-3.476 4.656-2.836 9.398-5.457 14.249-7.948l1.937-1.027c3.842-1.948 6.643-2.902 10.972-2.511 1.581 2.017.251 6.471-.042 8.94-1.045 7.736-2.782 15.323-4.52 22.927l-.442 1.97a691.905 691.905 0 01-1.309 5.661l-.383 1.705c-.954 3.954-2.475 7.194-4.473 10.742-3.905-.865-6.404-2.538-9.35-5.127l-1.313-1.114a469.568 469.568 0 01-6.825-5.931c-.443-.383-.885-.767-1.342-1.161-.844-.731-1.68-1.471-2.505-2.223-3.018-2.599-5.163-3.043-9.082-3.299-2.167.162-4.263.374-6.41.668l-1.834.234c-1.928.246-3.855.502-5.781.758-2.515.329-5.03.653-7.545.976l-1.879.244c-5.254.669-10.518 1.187-15.796 1.637-2.853.055-2.853.055-5.36 1.147-2.109.122-4.209.206-6.32.269-5.914.208-11.789.578-17.673 1.208-3.228.323-6.222.457-9.451.105-10.126-.883-15.869 3.217-23.362 9.441a306.191 306.191 0 00-5.79 5.006c-1.83 1.525-1.83 1.525-4.383 2.803-4.501-.954-7.766-5.408-10.93-8.504l-1.19-1.162c-5.408-5.31-10.631-10.768-15.76-16.346a360.24 360.24 0 00-6.018-6.35A537.168 537.168 0 0141.807 168.1a315.465 315.465 0 00-4.275-4.805c-5.496-6.114-10.816-12.357-15.903-18.813l-1.083-1.369c-3.148-4.034-3.148-4.034-3.202-7.214.739-3.082 1.967-4.244 4.272-6.321 1.108-1.183 1.108-1.183.903-2.741-.383-1.865-.99-3.217-1.89-4.893l-.965-1.835-1.039-1.958c-4.948-9.605-9.053-19.252-11.459-29.806l-.37-1.62C3.412 70.4 5.971 53.103 14.714 38.962c3.088-4.549 6.75-8.36 10.733-12.133l1.777-1.87C47.119 7.085 74.477 3.07 98.927 13.57z" fill="#BB8A52" fill-opacity=".1"/><path d="M93.913 24.089c1.527.556 3.056 1.11 4.587 1.657 3.83 1.456 6.518 3.1 9.683 5.665l2.418 1.332c3.1 1.767 5.572 4.038 8.148 6.48l1.381 1.288a693.593 693.593 0 013.318 3.12c-2.856 2.608-5.717 5.21-8.592 7.797l-1.462 1.319c-1.957 1.682-3.983 3.25-6.028 4.824a4641.267 4641.267 0 00-6.946 5.364l-1.822 1.4a172.758 172.758 0 00-10.16 8.506c-2.191 1.971-4.447 3.861-6.706 5.754-6.86 5.778-13.61 11.652-20.223 17.71-3.547 3.24-7.183 6.362-10.848 9.469-2.929 2.562-5.704 5.268-8.47 8.003-1.672 1.502-3.243 2.56-5.237 3.584-3.345-5.811-6.385-11.638-8.99-17.815l-1.242-2.729c-1.426-3.397-2.142-6.846-2.827-10.453l-.377-1.879c-2.893-14.711-1.4-27.402 6.73-40.256 3.466-4.732 7.8-8.483 12.383-12.113l1.845-1.465c14.119-10.443 33.14-14.075 49.437-6.562z" fill="#FBFDF8"/><path d="M224.648 82.64l1.573.192c-.454 5.68-1.697 10.637-3.706 15.958l-.814 2.199c-5.542 14.753-11.414 25.796-23.525 36.142a287.568 287.568 0 00-5.121 4.494c-2.977 2.668-5.998 5.284-9.027 7.894a454.922 454.922 0 00-5.095 4.516c-3.423 3.056-6.924 6.011-10.454 8.943l-1.815 1.524a109.722 109.722 0 01-11.366 8.297c-.247-5.302-.247-5.302.962-7.84 1.689-.339 1.689-.339 3.243-.397l1.171-3.04 3.146.387.709-1.306c1.559-2.042 3.386-2.959 5.567-4.29l1.075-2.255c1.718-1.011 1.718-1.011 3.785-1.972 2.084-.98 3.817-1.821 5.636-3.237l2.36.289.374-1.723c1.164-2.734 2.566-3.527 5.057-5.12 5.644-3.717 5.644-3.717 10.057-8.762l1.573.193 1.172-3.039 2.359.29.289-2.352 1.573.193.385-3.136 1.573.193.481-3.919-2.263-1.074c-1.139-1.442-1.139-1.442-2.3-3.217l-1.251-1.894c-.985-1.527-1.965-3.057-2.942-4.589-1.56-2.451-1.56-2.451-3.366-4.69-1.628-2.077-2.961-4.212-4.347-6.453-1.771-2.373-3.366-4.329-5.619-6.26l.193-1.568-2.954-1.954.193-1.568 4.623 1.364-.193 1.568c2.715.246 5.431.475 8.147.702l2.336.212 2.247.182c.682.06 1.365.118 2.068.178 2.021.097 2.021.097 4.367-1.309 2.318-.35 4.637-.591 6.969-.832l1.971-.457 1.075-2.255c3.697-1.934 3.697-1.934 5.795-1.676l2.054-3.727z" fill="#BB8A52" fill-opacity=".2"/><path d="M249.245 162.919c1.581 2.017.251 6.471-.042 8.94-1.045 7.737-2.782 15.323-4.52 22.927l-.442 1.97a691.905 691.905 0 01-1.309 5.661l-.383 1.705c-.954 3.955-2.475 7.194-4.473 10.742-2.274-.578-2.274-.578-4.622-1.363l-.594-1.665 5.505.676.191-1.779.265-2.343.257-2.318c.304-1.916.736-3.458 1.518-5.223l1.573.194 1.443-11.76-3.242.398-1.075 2.255-1.573-.193-.193 1.568c-4.617 2.369-7.907 2.985-12.969 1.591-4.52-2.209-6.73-5.507-8.588-10.107l-.385-1.34-4.719-.579 1.076-2.256-1.357-.131c-4.659-.45-9.317-.907-13.974-1.367-1.739-.171-3.477-.341-5.216-.509-2.499-.241-4.997-.488-7.495-.736l-2.357-.225-2.2-.221-1.933-.189c-1.743-.28-1.743-.28-3.363-.949-1.563-.725-1.563-.725-3.584.378-5.278 1.652-10.98.257-16.128-1.532 1.01-2.265 2.055-3.728 3.862-5.445 3.285-1.224 4.707-.496 7.886.741 9.036 3.375 18.25 4.659 27.774 5.785 2.244.267 4.486.551 6.728.836 1.44.176 2.88.351 4.32.524l2.01.257c6.023.691 9.985-.17 15.17-3.431 4.712-2.893 9.543-5.457 14.495-7.919l2.037-1.015c6.593-3.259 6.593-3.259 10.626-2.553z" fill="#BB8A52" fill-opacity=".2"/></svg>