<svg width="201" height="200" fill="none" xmlns="http://www.w3.org/2000/svg"><g clip-path="url(#clip0_1_171)"><path d="M163.057 157.117l-1.171 1.563h1.562l-.391-1.563z" fill="#0C3E2E"/><path d="M131.417 175.086l-2.344 1.953c-.05.283-2.686-.274-2.734 0h-.782l-.39-1.172a17.98 17.98 0 00-2.637.806l-.879.366-1.172-3.125h-.781l-1.562 3.125-1.172-1.172c-1.563 0-1.563 0-2.442.391l-.683.391-1.563-1.563-1.172 1.953c-.781-.781-.781-.781-1.513-1.098-.83-.074-.83-.074-1.709.488l-.684.61-.781-3.125h-.781l-.635.977-.537.976-.391-.781c-.781 0-.781 0-1.611.781l-.733.782-2.343-2.344-.391 2.344-1.563-1.953-2.343 1.953-.39-1.563-2.345 1.953c0-1.213-.21-1.7-.78-2.734l-1.808 1.807-.927.927-.782-1.953h-.78l-.782 1.563-1.953-1.563-1.953 1.953c-.44-1.382-.91-2.602-1.563-3.906l-1.953 3.516-1.562-.782c-.751.266-.751.266-1.465.733l-1.27.83-1.172-3.516h-.78l-.782 3.516-2.344-1.953-1.953 1.562-1.563-1.953-.732.781c-.735.871-.735.871-1.611.782l-.39-.782c-1.173 0-1.173 0-2.027.586l-.708.586-1.172-3.125h-.781l-.635.977-.537.976-.39-.781-2.735 1.953c0-1.021 0-1.021-1.172-2.734h-.781l-.391 1.953c-.537-.781-.537-.781-1.172-1.562h-.781c-.416.832-.895 1.314-1.563 1.953l-.39-1.563h-.782l-.78 1.953h-.782c-.146-1.147-.146-1.147-.39-2.343l-.782-.391a49.427 49.427 0 01-1.562 2.344h-.782l-.78-1.563h-.782l-.781 1.563-1.954-1.563-1.953 1.953c-.44-1.382-.91-2.602-1.562-3.906l-1.953 3.516-1.563-.782c-.75.266-.75.266-1.465.733l-1.27.83-1.171-3.516h-.781l-1.172 3.125a22.152 22.152 0 00-2.735-1.562l-1.953 1.562-.78-1.953h-.782l-.781 1.563-1.075-.464c-1.27-.318-1.27-.318-2.197.22l-.635.634-1.172-3.125h-.78l-.636.977-.537.976-.39-.781-2.735 1.563-1.172-2.344h-.78v3.125l-1.563.781c-.084 1.038-.161 1.712.429 2.596.743.529.743.529 1.888.677l1.434.001c.85.006 1.7.01 2.55.006.627-.002 1.255-.003 1.884-.001 1.73.007 3.461.01 5.193.007 1.893-.003 3.786-.001 5.68.003 3.709.007 7.419.01 11.128.008 3.048-.002 6.096-.003 9.145-.001l1.309.001 2.634.002c8.245.006 16.49.005 24.734 0 7.565-.004 15.131-.001 22.697.008 7.794.01 15.589.016 23.384.013 4.37-.001 8.741-.002 13.112.004 3.752.006 7.505.009 11.258.004l.675-.002c1.695-.003 3.39-.006 5.085-.002a944.125 944.125 0 007.279-.003c4.56.03 8.577-.375 12.955-1.758 5.984-2.388 10.415-6.895 13.109-12.696 2.472-6.003 2.398-12.144.099-18.164-2.31-5.298-6.741-9.443-12.036-11.718-4.928-1.792-10.526-1.884-15.367.16-5.494 2.507-9.106 6.094-11.367 11.754-1.251 4.154-1.312 9.314.461 13.313l.491.944c1.565 3.125 3.406 5.249 6.299 7.201 4.047 2.435 8.692 3.28 13.33 2.272 4.293-1.431 7.715-3.979 10.059-7.91 1.844-3.659 2.15-7.46 1.123-11.426-1.166-3.342-3.11-5.955-6.201-7.715-3.613-1.762-6.963-2.179-10.816-.952-3.184 1.304-5.393 3.317-6.825 6.465-.853 2.932-.704 6.122.453 8.94 1.537 2.393 3.485 3.977 6.25 4.688 2.659.309 4.613.04 6.861-1.44 1.458-1.384 2.405-2.637 2.624-4.642.022-1.841.082-3.384-1.159-4.856-1.514-1.309-2.631-1.963-4.664-1.928-1.473.409-2.02.671-2.88 1.928-.383 1.427-.587 2.297.024 3.663.757.634.757.634 2.002.927l1.099.098 1.171-1.563.391 1.563h-1.562v1.172l-.782-.391-.781.781-.781-.781-1.172.781-.391-1.562-1.562.391v-2.344l.39-1.172-1.562-.391 1.562-.781v-.781l-.781-.391 1.172-.39-.391-1.172 1.563-.391-.391-1.172 1.563.391.781-1.563.488.586c.684.586.684.586 2.246.586l1.172-.781.391.781 1.172.391v-.781h.781v1.171h1.953l-1.172 1.172 1.563.782-.391.39 1.563 1.172-.782.391v.781l1.172.391-1.172 1.562 1.954.391-1.563 1.172.781 1.171-1.562.782 1.172 1.172-1.953.39.781 1.172h-1.953l.39 1.953-.781.391-.781 1.172-1.172-.391-.391 1.563h-.781l-.781-1.563-.781 1.563-.782-1.172-.781 1.172c-.441-.977-.582-1.463-1.562-1.954l-.782 1.563-.781-1.953-1.172 1.172-.39-1.172-1.172.39-.391-1.953-1.562 1.563-.391-1.563-1.953.391c0-1.007 0-1.007-1.172-3.125l-.781-.391v-1.562l.781-1.172-.781-.781.781-.391v-.781l-1.172-.781 1.563-1.172-1.954-1.172 1.563-.781-1.563-1.954h1.172v-.781l1.172-.39-.781-1.563h1.562l-.39-2.344 2.344.782-.391-1.954 1.172.782.39-1.563 1.172.391.782-1.563 1.171.391.391-1.172c.44.44.44.44 1.953 1.172l.391-1.563.39.782 1.172.39.391-1.562.781 1.172.391-1.172h.781v1.172l.781.781 1.172-1.953.781 1.172 1.172-.782 1.172 1.172 1.172-.39v1.172h1.172l.391 1.953 1.953-1.172 1.172 3.515h1.953c-.782.782-.782.782-.782 1.954l2.344.39v.781l-1.562.782 1.953.39-1.563 1.953 1.953.391-1.953 2.344 2.344.39c-.976.538-.976.538-1.953 1.172v.782l2.344.781c-.339.886-.339.886-1.392 1.221l-.952.341 1.562 1.563-1.953.781.782 2.734h-1.563l.391 1.563h-2.735v3.125l-2.343-.391v2.344l-2.344-.781v2.734c-.879-.439-.879-.439-2.735-1.172v2.344l-3.906-1.562-.39 2.343-3.125-1.562-.782 1.172h-.781c-.899-.94-1.434-1.339-2.734-1.563l-1.172 1.953-1.953-1.953c-.923.987-1.432 1.519-2.735 1.953l-1.172-1.562-1.171 1.562c-.891-.395-.891-.395-1.807-1.391l-.928-.952-1.172 1.953-1.172-1.563-1.562 1.563c-.45-.964-.8-1.581-1.563-2.344l-1.953 2.344-1.953-1.563-.781 1.953-1.953-1.953z" fill="#0C3E2E"/><path d="M118.122 83.81c3.614 2.92 6.502 6.963 9.366 10.59a165.041 165.041 0 002.952 3.538 196.17 196.17 0 014.46 5.438 161.107 161.107 0 002.889 3.448 143.137 143.137 0 014.321 5.323 127.163 127.163 0 004.81 5.81c6.11 6.987 6.11 6.987 6.068 10.256-.182 1.636-1.196 2.876-2.431 3.904-1.434.479-2.811.675-4.296.391-1.832-1.025-3.115-2.316-4.419-3.931l-.56-.677c-.557-.675-1.11-1.354-1.662-2.033l-.935-1.136a947.456 947.456 0 01-3.26-3.997l-.169-.207a363.622 363.622 0 00-4.84-5.817 199.35 199.35 0 01-4.43-5.406 190.665 190.665 0 00-3.548-4.228 73.036 73.036 0 01-3.741-4.79l-.561-.59h-1.172l-.202-1.299-.287-1.704-.129-.854c-.319-1.84-.759-2.984-2.117-4.347-1.861-1.095-3.317-1.36-5.41-1.031-1.734.517-2.794 1.549-3.721 3.107-.74 3.184.048 6.497.538 9.668.148.964.294 1.929.439 2.894l.198 1.285c.41 3.612.41 3.612-.57 5.038l-.946.939c-1.325 1.366-2.435 2.647-3.418 4.272l.857.229c1.948.525 3.879 1.056 5.783 1.724l.116.943.177 1.255.165 1.236c.814 3.157 3.095 4.664 5.597 6.503l1.096.82c.755.565 1.511 1.127 2.269 1.689 1.078.799 2.153 1.603 3.227 2.409l1.011.759 1.969 1.48a237.586 237.586 0 004.295 3.172l.709.518c.603.441 1.21.875 1.818 1.31 2.241 2.161 3.127 5.487 4.157 8.361l.44 1.223c.304.849.607 1.698.909 2.548.462 1.294.932 2.584 1.402 3.875l.886 2.486.426 1.158c.982 2.806 1.637 5.662.41 8.524-1.006 2.017-2.469 3.134-4.516 4.028l-7.715-1.391c-2.501-1.598-3.322-5.515-4.272-8.155l-.565-1.493a105.754 105.754 0 01-2.9-8.907c-2.169-9.674-2.169-9.674-7.975-17.119-2.102-.908-4.285-1.38-6.53-1.781-4.137-.77-8.053-2.334-11.999-3.76a270.769 270.769 0 00-4.014-1.394l-2.514-.868-1.159-.388c-2.967-1.043-5.652-2.319-7.193-5.183-1.589-4.248-.466-8.873 1.345-12.875 5.3-10.966 14.996-24.183 26.975-28.483 4-1.291 8.659-.637 12.096 1.693zM4.761 192.258H203.59c.781 4.688.781 4.688.781 7.813h-200c0-4.297 0-4.297.39-7.813z" fill="#000"/><path d="M83.704 131.701c1.436.377 2.866.773 4.296 1.172l.837.23c13.831 3.823 13.831 3.823 16.088 7.259.926 2.001 1.274 3.999 1.435 6.183l.203 1.457c.178 2.389-.259 4.473-1.766 6.355-2.649 2.158-5.679 3.814-8.642 5.494l-2.023 1.157-1.376.786a768.205 768.205 0 00-6.758 3.916l-1.146.669a1457.948 1457.948 0 00-6.066 3.558l-1.283.753c-.808.475-1.615.952-2.422 1.43-5.793 3.4-5.793 3.4-9.346 2.941-2.454-.777-3.814-2.002-5.371-4.004-.95-2.088-1.106-4.148-.537-6.372 1.445-3.596 5.27-5.532 8.52-7.276l2.388-1.318 1.219-.672a236.485 236.485 0 005.646-3.283l1.065-.633 2.072-1.232c1.62-.962 3.246-1.917 4.87-2.872l.86-.505 1.924-1.13c-.24-1.795-.716-3.35-1.369-5.037l-.287-.749c-.3-.782-.604-1.563-.907-2.344-.305-.788-.609-1.576-.912-2.365l-.824-2.13c-.388-1.047-.388-1.047-.388-1.438zM143.037 64.775c2.034 1.667 3.439 3.258 4.264 5.776.741 2.069 1.871 2.824 3.692 3.969 2.713 1.763 5.28 3.915 6.537 6.944.147 1.294.147 1.294 0 2.344-1.007 1.007-1.452.92-2.856.952-7.003-.126-13.486-5.006-18.167-9.839l-.461-.488c1.983 4.056 5.338 7.185 8.984 9.765-1.106 2.457-3.019 3.805-5.468 4.834-4.014 1.305-8.051 1.106-11.853-.714-3.539-2.06-5.698-4.763-6.849-8.685-.883-4.057-.426-7.534 1.596-11.166 2.23-3.398 5.142-5.424 9.113-6.383 4.234-.666 7.985.186 11.468 2.691zm-7.772 8.486l.39.781-.39-.781zM113.538 87.945c2.409 2.295 2.557 5.883 2.995 9.024l.205 1.415c.142.983.282 1.965.42 2.949.212 1.503.43 3.005.648 4.507l.411 2.872a621.184 621.184 0 01.532 3.742c.118 1.148.129 2.268.111 3.421l.67.308c.976.517 1.799 1.118 2.675 1.793l1.033.792 1.091.842 2.233 1.714 1.084.832a348.17 348.17 0 003.519 2.654 589.553 589.553 0 014.907 3.711l.65.494c2.705 2.076 2.705 2.076 3.232 3.656.151 1.848.188 2.757-.66 4.419-1.313 1.527-2.178 2.148-4.199 2.369-2.708-.285-4.614-1.912-6.689-3.54l-1.764-1.366a594.22 594.22 0 01-.941-.731c-1.728-1.337-3.467-2.659-5.205-3.983l-1.056-.805a405.869 405.869 0 00-6.684-4.997c-2.466-1.968-3.613-3.46-4.073-6.57l-.213-1.415-.221-1.529-.233-1.583a950.063 950.063 0 01-.483-3.324c-.202-1.405-.41-2.809-.62-4.212a738.449 738.449 0 01-.478-3.276c-.111-.765-.226-1.53-.34-2.294-1.23-8.683-1.23-8.683.226-10.842 2.037-2.115 4.605-2.208 7.217-1.047z" fill="#000"/><path d="M42.379 30.263c2.43 1.91 3.641 4.345 4.605 7.237.321 4.393-.008 7.552-2.832 11.035-2.605 2.794-5.542 4.177-9.375 4.346-3.704-.091-6.63-1.386-9.299-3.94-2.69-3.165-3.41-6.613-3.103-10.66.835-3.944 3.086-6.587 6.25-8.984 4.062-2.602 9.946-1.57 13.754.966zM27.526 33.91c-1.84 2.28-2.652 4.348-2.554 7.279.37 2.696 1.73 4.979 3.653 6.857 2.835 1.735 5.51 2.479 8.8 1.727 3.097-1.051 5.102-3.087 6.63-5.95.515-3.29.63-6.265-1.368-9.058-1.757-2.035-3.829-3.77-6.584-4-3.773-.084-5.975.36-8.577 3.145z" fill="#FFBA00"/><path d="M27.526 33.911c-1.84 2.28-2.652 4.348-2.554 7.279.37 2.696 1.73 4.979 3.653 6.857 2.835 1.735 5.51 2.479 8.8 1.727 3.097-1.051 5.102-3.087 6.63-5.95.515-3.29.63-6.265-1.368-9.058-1.757-2.035-3.829-3.77-6.584-4-3.773-.084-5.975.36-8.577 3.145z" fill="#FFBA00"/></g><defs><clipPath id="clip0_1_171"><path fill="#fff" transform="translate(.5)" d="M0 0h200v200H0z"/></clipPath></defs></svg>