<svg width="201" height="200" fill="none" xmlns="http://www.w3.org/2000/svg"><g clip-path="url(#clip0_1_150)"><path d="M66.516 105.469c1.803 1.391 3.48 2.927 5.166 4.457a73.99 73.99 0 002.89 2.428c2.645 2.144 5.234 4.353 7.829 6.559a473.813 473.813 0 007.625 6.356 337.533 337.533 0 014.288 3.604 259.886 259.886 0 004.038 3.354 407.069 407.069 0 016.563 5.493c.685.58 1.372 1.158 2.059 1.735l.692.581c.434.366.87.731 1.305 1.095 3.121 2.629 3.121 2.629 3.638 4.181a576.908 576.908 0 01-4.931 1.587l-1.409.462-1.365.431-1.253.403c-1.331.269-2.232.19-3.542-.148-.932-.684-.932-.684-1.83-1.563a68.466 68.466 0 00-4.127-3.637 207.48 207.48 0 01-4.98-4.175 260.547 260.547 0 00-5.944-4.967 250.695 250.695 0 01-3.675-3.09 134.872 134.872 0 00-6.006-4.834l-.188.916c-.71 3.166-1.578 5.538-3.89 7.849-1.131.69-2.032.879-3.344 1.001-.39-1.994-.488-3.943-.558-5.966l-.087-2.124a657.508 657.508 0 01-.126-3.32 454.306 454.306 0 00-.13-3.223l-.03-.991c-.12-2.654-.61-4.863-2.316-6.984-1.694-1.338-3.05-1.703-5.176-1.538-1.478.221-2.527.496-3.686 1.49-2.442 3.459-1.967 7.16-1.75 11.229l.079 1.567c.068 1.373.14 2.745.211 4.117.058 1.103.113 2.206.168 3.309l.202 4.019.04.788a324.379 324.379 0 00.49 8.188c.056.777.119 1.553.182 2.33-.013 1.173-.166 1.759-.794 2.734l1.045-.272c1.6-.146 2.047.166 3.328 1.1l1.132.81 1.184.877 2.442 1.753 1.167.848a97.921 97.921 0 003.422 2.355l1.023.677c.752.495 1.506.989 2.26 1.481 1.137.743 2.272 1.49 3.407 2.236l1.13.734 1.049.691.95.622.68.541v.781c-.821.394-1.643.784-2.466 1.172l-1.387.659c-1.226.513-1.226.513-2.397.513l.732.911c1.044 1.578 1.68 3.029 1.611 4.948-1.147 3.298-3.355 6.22-5.294 9.101-.975 1.459-1.882 2.953-2.776 4.463l-.445.749-.873 1.473c-5.134 8.66-5.134 8.66-8.19 9.605-3.008.311-5.394.352-7.812-1.563-1.842-1.802-2.746-3.517-2.93-6.079.14-4.362 3.49-8.481 5.713-12.085a2751.89 2751.89 0 002.198-3.59 734.097 734.097 0 004.627-7.664l1.33-2.222-1.247.394c-1.548.488-3.098.966-4.65 1.442-.667.206-1.333.414-1.999.625-7.119 2.254-12.48 2.48-19.327-.972-4.146-2.343-8.178-5.815-9.704-10.475-.616-2.62-.185-5.034.989-7.42 1.786-2.759 4.152-4.916 6.58-7.091 7.344-6.592 12.438-13.898 15.084-23.47l.303-1.09c.193-.705.382-1.412.565-2.12 1.249-4.627 3.694-8.45 7.831-11.037 4.202-2.154 9.236-2.734 13.387-.114zM95.715 79.736c2.33 1.945 4.52 4.485 5.273 7.471.624 1.971 2.369 2.56 4.094 3.479 3.498 1.972 7.478 5.118 9.09 8.923.171 1.392.171 1.392 0 2.735-1.082 1.048-1.854 1.161-3.345 1.318-7.942-.384-16.338-5.708-21.551-11.438A47.84 47.84 0 0188 90.625c1.801 4.946 6.678 9.217 10.938 12.109-1.489 3.341-4.498 5.351-7.813 6.641-4.532 1.525-9.751 1.329-14.062-.781-1.146-.686-2.133-1.453-3.125-2.344l-.716-.607c-3.26-2.969-4.88-6.784-5.241-11.109-.2-5.187 1.302-9.425 4.785-13.284 6.44-6.133 15.7-6.669 22.949-1.514zm-8.496 9.717l.39.781-.39-.78z" fill="#000"/><path d="M166.906 150.391c1.245 3.008 1.396 5.743 1.172 8.984l-.391.781h8.985c.026 3.99.048 7.98.061 11.97.006 1.852.014 3.705.027 5.558.013 1.788.02 3.576.023 5.364.002.682.006 1.364.013 2.046.008.956.009 1.911.009 2.867l.013.853c-.011 1.712-.266 2.794-1.318 4.155-.924.462-1.5.447-2.531.46l-1.098.015-1.19.008-1.22.01c-.853.005-1.706.01-2.559.013-1.306.006-2.612.024-3.917.041l-2.484.01-1.186.02-1.105-.003-.971.007c-1.27-.275-1.696-.692-2.442-1.753a19.214 19.214 0 01-.178-3.082v-.936c.001-1.019.013-2.037.025-3.056l.007-2.122c.006-1.859.021-3.719.039-5.579.015-1.898.023-3.796.03-5.695.017-3.724.045-7.447.077-11.171h10.156c.127-4.556.127-4.556-.781-8.984 1.034-.571 1.521-.781 2.734-.781z" fill="#BB8A52"/><path d="M60.266 112.5c1.76.881 2.658 1.76 3.515 3.516.137 1.231.137 1.231.128 2.632 0 .533.002 1.065.003 1.598l-.004.849c0 1.503.04 3.005.074 4.507.042 1.904.073 3.806.051 5.711-.283 6.976-.283 6.976 2.223 13.214 2.184 1.953 4.622 3.258 7.266 4.485 1.942.97 3.65 2.244 5.396 3.527.635.45 1.271.899 1.909 1.346l.885.623c1.117.777 2.247 1.53 3.383 2.279a208.017 208.017 0 014.492 3.052l1.039.725c1.238 1.063 1.925 2.06 2.258 3.666.055 2.306-.314 3.514-1.913 5.193-1.292 1.028-2.753 1.071-4.34 1.048-1.871-.304-3.251-1.434-4.759-2.527l-1.071-.745a299.863 299.863 0 01-2.23-1.567 286.703 286.703 0 00-4.325-2.972 830.567 830.567 0 01-3.208-2.186 1236.033 1236.033 0 00-4.48-3.052c-11.464-7.782-11.464-7.782-11.979-9.863-.187-1.162-.268-2.293-.325-3.469l-.07-1.439-.072-1.548-.078-1.608a2112.61 2112.61 0 01-.158-3.372 1796.99 1796.99 0 00-.204-4.274 2465.11 2465.11 0 01-.157-3.325l-.112-2.327c-.066-1.441-.12-2.881-.169-4.322l-.056-1.498-.032-1.455-.035-1.296c.196-1.945.881-3.189 2.32-4.491 1.686-.812 2.996-.961 4.835-.635zM117.593 145.891l.859-.006c2.361.062 4.073.725 6.047 1.991 1.006 1.569.955 3.057.61 4.858-1.97 4.364-5.942 7.109-9.985 9.351l-2.498 1.416-1.22.688a90.863 90.863 0 00-3 1.802l-.812.507c-.483.304-.965.612-1.443.924-.859.535-1.525.931-2.55.962-1.154-.633-1.953-1.561-2.808-2.539l-.543-.596c-1.313-1.471-1.313-1.471-1.313-2.358l-.826.341-1.078.44-1.071.439c-.93.342-.93.342-1.712.342-1.172-2.588-1.172-2.588-1.172-3.906l3.516-1.563c-.13-2.449-.258-4.898-.39-7.422a159.862 159.862 0 019.149-3.096 143.32 143.32 0 001.894-.601c3.45-1.116 6.701-1.956 10.346-1.974zM69.25 82.422c.31.896.456 1.383.128 2.289l-.421.738a15.507 15.507 0 00-1.367 3.272c-.463 1.273-.959 1.814-2.077 2.565-1.925 1.381-3.49 3.029-5.125 4.734-4.202 4.295-8.157 7.906-14.386 8.286-3.183-.021-6.05-.78-8.513-2.843-1.583-1.634-2.614-3.065-2.614-5.37.996.185 1.581.405 2.417 1.002 1.862.951 3.561.888 5.545.273 3.942-1.743 7.04-5.134 9.787-8.37 4.485-5.27 9.68-7.598 16.626-6.576z" fill="#000"/><path d="M132.171 175.038c.751.353.751.353 1.16 1.108.962 3.426 1.159 6.406-.019 9.792l1.221.122c1.514.268 1.514.268 2.564.805 1.577.774 3.136 1.107 4.847 1.477 1.201.349 2.081.761 3.087 1.502.318 1.245.318 1.245.391 2.344-1.814.693-3.519.954-5.444 1.049l-.882.049c-2.373.109-4.689-.043-7.056-.246-1.54-.075-3.031.015-4.562.148-3.133.244-7.301.439-10.181-1 .024-1.075.024-1.075.391-2.344 1.917-1.492 3.959-1.919 6.301-2.451a13.66 13.66 0 002.634-.943c1.292-.542 2.179-.614 3.565-.512 1.035-3.625.835-6.516 0-10.157 1.171-.781 1.171-.781 1.983-.743z" fill="#BB8A52"/><path d="M118.859 165.234c3.758-.216 7.395.438 10.329 2.915 1.196 1.18 1.718 2.055 1.927 3.726-.202 1.615-.709 2.629-1.977 3.662-1.739.47-3.221.215-4.83-.505-2.695-1.701-3.93-4.576-5.058-7.454-.27-1.343-.27-1.343-.391-2.344zM179.407 142.187c-.952 3.924-2.427 7.43-5.881 9.742-1.08.59-1.868.832-3.104.805-1.53-.51-2.182-.937-3.1-2.27-.489-1.465-.512-2.127-.025-3.589 1.693-2.565 3.871-3.656 6.812-4.395 1.782-.354 3.485-.35 5.298-.293zM152.844 140.625c3.553-.205 7.38.365 10.156 2.734 1.294 1.238 2.075 2.135 2.173 3.931-.24 1.679-.58 2.324-1.782 3.491-1.261.631-2.112.547-3.516.391-3.122-1.114-4.31-3.51-5.674-6.318-.644-1.398-1.142-2.692-1.357-4.229zM145.032 166.797c-.749 4.288-2.331 7.148-5.86 9.765-1.25.626-2.549.586-3.906.391-1.098-.701-1.761-1.179-2.344-2.344-.22-1.378-.238-2.332.487-3.553 1.871-2.312 3.925-3.303 6.715-4.161 1.634-.16 3.268-.127 4.908-.098z" fill="#0C3E2E"/><path d="M25.694 15.625c1.367.733 1.367.733 2.344 1.563v.78c-.326.01-.326.01-.66.018-3.328.208-5.321 1.5-7.519 3.962-.63.75-1.149 1.396-1.587 2.27l-.672-.228c-4.227-1.425-7.194-2.339-11.437-.552.075-1.622.29-2.237 1.416-3.443 1.218-1.04 2.487-1.13 4.053-1.245 1.463.218 1.463.218 2.905.562l1.463.34 1.1.27.83-1.074c2.056-2.47 4.534-3.68 7.764-3.223zM51.476 0c.92.567 1.307 1.063 1.953 1.953l-.772.116c-3.634.622-5.78 2.26-8.213 4.962l-.78 1.172c-1.26-.203-2.379-.549-3.565-1-2.577-.874-5.108-1.007-7.642.024l-.903.586c.108-1.551.3-2.236 1.318-3.443 1.43-1.191 2.546-1.35 4.382-1.336 1.8.175 3.515.731 5.237 1.263l.53-.642C45.54.672 47.423-.68 51.476 0zM47.57 25c.957.558 1.557 1.148 2.343 1.953v.39l-1.538.05c-2.677.31-4.557 1.627-6.322 3.622a53.18 53.18 0 00-1.905 2.579l-.674-.229c-4.226-1.425-7.193-2.339-11.436-.552.071-1.527.319-2.252 1.27-3.467 1.884-1.416 4.318-1.044 6.543-.83 1.086.192 2.07.45 3.125.781l.61-.855c2.12-2.445 4.624-4.03 7.983-3.442z" fill="#FFBA00"/><path d="M81.189 145.776c1.952 1.464 3.122 2.997 3.686 5.396.057 1.052.036 2.07 0 3.125-1.88 0-2.75-.673-4.224-1.709l-1.56-1.071-.81-.561c-.832-.568-1.671-1.12-2.516-1.667l-.816-.532c-.522-.339-1.045-.677-1.569-1.013-.61-.4-1.2-.827-1.786-1.26v-.781c2.995-1.114 6.747-1.622 9.595.073z" fill="#000"/><path d="M168.078 132.812c1.718 1.406 1.972 3.345 2.246 5.445.142 1.741.032 3.086-.683 4.712-.851 1-1.405 1.51-2.735 1.637-1.383-.084-2.126-.261-3.149-1.222-.65-2.124-.491-4.073.508-6.069a22.542 22.542 0 013.813-4.503zM134.875 158.203c1.216 2.867 1.834 5.966.929 9.023-.343.645-.343.645-1.32 1.524-1.556.402-2.715.236-4.101-.562-.896-1.53-.946-2.789-.586-4.516.964-2.124 2.487-5.469 5.078-5.469z" fill="#0C3E2E"/><path d="M79.797 167.578a41.517 41.517 0 012.344 1.563c-.391 1.172-.391 1.172-1.068 1.591l-.872.379-.947.415-.995.422-.991.436c-2.43 1.054-2.43 1.054-3.33 1.054-1.172-2.588-1.172-2.588-1.172-3.907a195.7 195.7 0 012.417-1.196l1.36-.673c1.37-.5 1.903-.565 3.254-.084z" fill="#000"/></g><defs><clipPath id="clip0_1_150"><path fill="#fff" transform="translate(.5)" d="M0 0h200v200H0z"/></clipPath></defs></svg>