<svg width="201" height="200" fill="none" xmlns="http://www.w3.org/2000/svg"><path d="M49.329 105.859c1.864 1.781 3.473 3.854 3.543 6.528l-.028.894-1.216-.598c-4.461-2.165-4.461-2.165-9.33-2.136-1.74.853-2.809 1.929-3.907 3.515-.598 1.794-.758 3.663-.11 5.471 1.258 2.348 3.089 3.535 5.463 4.593l1.257.566 1.3.576 2.57 1.152 1.146.51c.874.414.874.414 1.265.804-.094 3.388-.828 6.793-1.383 10.128a73.008 73.008 0 00-.789 7.031l-.051.81a913.38 913.38 0 00-.121 1.953l.885-.237c2.773-.742 5.548-1.478 8.325-2.208 1.427-.375 2.853-.752 4.278-1.135 1.38-.37 2.76-.734 4.141-1.094.523-.137 1.046-.277 1.568-.418 3.773-1.024 8.067-2.136 11.833-.547 2.218 1.322 3.698 3.21 4.517 5.639.25 1.32.42 2.648.59 3.979l.162 1.212c.176 1.32.349 2.641.52 3.961l.365 2.757c.254 1.926.507 3.853.758 5.779.322 2.467.648 4.933.975 7.399l.75 5.694.36 2.728c.168 1.272.334 2.544.499 3.817l.151 1.134c.456 3.547.57 6.391-1.224 9.587-1.653 1.955-3.824 3.294-6.386 3.639-2.75.132-5.092-.468-7.203-2.289-3.036-3.267-3.239-7.609-3.786-11.83l-.258-1.919c-.179-1.336-.356-2.671-.53-4.007-.224-1.712-.453-3.423-.682-5.133-.22-1.636-.437-3.272-.654-4.907l-.126-.943c-.117-.881-.232-1.761-.347-2.642l-.2-1.517c-.14-1.264-.14-1.264-.14-2.827l-1.262.355a599.458 599.458 0 01-12.637 3.393c-1.008.259-2.014.522-3.02.784l-1.956.503-.895.235c-5.761 1.468-12.946 2.002-18.292-1.046-3.902-2.8-5.687-6.629-6.47-11.255-.502-3.414-.476-6.86-.484-10.302-.004-.988-.016-1.975-.028-2.962-.042-6.296.83-12.283 2.612-18.328l.365-1.258c.342-1.162.693-2.321 1.05-3.478l.267-.859c1.64-5.138 4.453-8.875 9.109-11.641 4.03-1.991 9.183-2.428 12.89.39z" fill="#000"/><path d="M142.688 16.797h4.687c-.265 6.949-.791 13.875-1.323 20.808-.182 2.379-.363 4.758-.543 7.138l-.19 2.472-.115 1.507-.101 1.324a42.299 42.299 0 00-.072 2.688c5.902-1.977 9.186-4.476 12.644-9.616 1.047-1.528 2.188-2.982 3.323-4.446l1.248-1.634c3.184-4.156 3.184-4.156 4.27-5.397h.39c.313 2.654-.597 3.903-2.197 5.957l-.685.911c-.481.64-.964 1.276-1.449 1.912-.751.991-1.487 1.992-2.219 2.998l-.726.997-.707.97a197.476 197.476 0 01-2.564 3.442l-.549.75c-1.534 1.967-3.307 2.956-5.53 4.035l-1.954.983-.866.425-.866.448-1.065.48c-.999.63-.999.63-1.171 1.842l-.045 1.415-.03.777c-.098 3.175.019 6.351.138 9.524l.062 1.84c.049 1.478.102 2.956.158 4.434l2.244-.772 1.446-.497c1.046-.36 2.09-.723 3.133-1.088 4.449-1.554 4.449-1.554 6.516-2.124 4.383-1.247 7.02-3.654 10.155-6.902 1.43-1.434 2.977-2.76 4.556-4.028 2.056-1.7 3.484-3.514 4.918-5.753l.664-1.01c.691-1.053 1.376-2.11 2.061-3.168.694-1.065 1.389-2.13 2.086-3.192a2303.227 2303.227 0 011.874-2.878l.513-.793c.459-.607.459-.607 1.24-.998.101 1.754-.084 2.78-.974 4.29l-.633 1.098-.688 1.155c-.471.805-.941 1.61-1.41 2.416l-.709 1.21a79.927 79.927 0 00-1.72 3.175c-1.935 3.74-3.773 6.315-7.147 8.922-.709.576-1.417 1.154-2.124 1.733l-1.025.816c-1.153.94-1.153.94-2.146 1.972-3.14 3.161-6.418 4.74-10.526 6.367l-1.793.739c-1.148.474-2.299.941-3.453 1.403a251.51 251.51 0 00-5.416 2.265c-.861.33-.861.33-1.642.33l.077.678c.296 2.742.436 5.477.533 8.233l.05 1.384c.14 4.121.161 8.238.121 12.361l.749-.345 2.228-1.024c.853-.392 1.707-.786 2.56-1.18 1.946-.896 3.891-1.782 5.875-2.592 3.263-1.34 5.767-2.661 8.302-5.2 1.358-1.356 2.846-2.523 4.344-3.719.958-.766.958-.766 1.783-1.669l.721-.677c1.325.063 1.791.228 2.735 1.172-2.001 2.037-4.004 4.04-6.177 5.894-1.453 1.269-2.845 2.606-4.245 3.932-3.05 2.709-6.573 4.681-10.135 6.629l-2.53 1.394-1.115.611-1.189.68-.784.341c-.925.455-1.606.884-2.341 1.612-.485 1.442-.459 2.849-.456 4.36l-.034 1.337a293.414 293.414 0 00-.058 4.4c-.019 1.033-.04 2.067-.062 3.1a823.511 823.511 0 00-.115 7.371 1239.1 1239.1 0 01-.133 8.182c-.084 4.476-.157 8.953-.223 13.43-.077 5.213-.178 10.425-.298 15.637l-.024 1.039a741.39 741.39 0 01-.55 16.535l1.489.415.838.233c.873.21.873.21 1.97-.257.743.242.743.242 1.567.645l.896.431.93.462.944.457c.77.373 1.537.75 2.304 1.13v1.953c1.459.421 1.459.421 2.856-.074 1.286-.388 1.566-.175 2.734.416.476.273.951.547 1.441.83l-.781 3.515h-1.172l-.269.708c-.705 1.175-1.182 1.518-2.466 2.027-1.346.056-2.616.009-3.906-.391l-.52-.786c-.586-.859-.586-.859-1.555-.971l-1.05-.002-1.147-.022-1.197-.001c-.781-.004-1.562-.012-2.344-.026l-1.049-.001c-1.082-.173-1.361-.52-2.075-1.316-1.991.004-3.861.695-5.591 1.636-1.007.544-1.34.712-2.515.659a19.512 19.512 0 01-2.441-1.123v.781c-.675.199-1.351.393-2.027.586l-1.14.33c-1.073.243-1.988.304-3.083.256a573.85 573.85 0 00-.391-.781 35.627 35.627 0 00-3.003-.489l-.838-.122c-1.82-.228-3.01-.044-4.753.611-2.373.085-4.479-.659-6.64-1.563-.12-1.277-.085-2.315.39-3.515 1.686-1.298 3.729-2.178 5.884-1.905 1.148.342 1.148.342 1.929.733v-2.735c1.609-.504 2.995-.883 4.687-.781v-.781a605.608 605.608 0 013.614-1.563l1.033-.451.999-.428.917-.396c.859-.287.859-.287 2.422-.287.819-5.813 1.287-11.662 1.794-17.508.127-1.463.256-2.925.384-4.388l.725-8.289a38917.237 38917.237 0 011.754-20.061l.214-2.456.26-2.982c.2-2.28.424-4.548.728-6.816l-.903-.256c-6.609-2.409-11.473-5.991-15.347-11.82-.78-1.163-1.626-2.266-2.476-3.378l-.814-1.105a48.331 48.331 0 00-1.593-1.99c-2.078-2.467-2.078-2.467-2.085-4.132l.171-1.147c1.29.98 2.334 1.94 3.32 3.222a205.63 205.63 0 002.965 3.727l.645.789c.446.542.893 1.083 1.341 1.622.98 1.188 1.867 2.328 2.664 3.651 2.684 4.429 7.478 5.849 12.112 7.692.32-1.988.465-3.936.507-5.949l.023-.937c.025-1.012.047-2.025.07-3.037a5157.184 5157.184 0 00.18-7.667c.043-1.89.088-3.78.133-5.671.088-3.705.174-7.41.259-11.114l-1.086-.351c-1.446-.495-2.794-1.133-4.162-1.808a3495.715 3495.715 0 01-6.297-3.08l-1.85-.904c-2.577-1.26-5.16-2.507-7.748-3.745l-1.047-.503-.982-.469-.927-.446a29.608 29.608 0 00-1.824-.763c-2.463-.953-3.699-2.3-5.327-4.337-.475-.523-.956-1.04-1.442-1.552l-.744-.788-.768-.81-1.637-1.733-.831-.88a1112.109 1112.109 0 01-3.953-4.223l-.717-.768-1.627-1.746c.544-1.36 1.028-1.75 2.344-2.344l.507.547c10.371 11.65 10.371 11.65 23.84 18.884 2.713.928 5.318 2.128 7.942 3.28 1.485.648 2.976 1.28 4.468 1.915 2.583 1.099 2.583 1.099 3.477 1.546.65-5.254.65-5.254-1.339-9.92a75.014 75.014 0 00-2.958-2.97c-4.004-4.086-5.052-8.42-6.322-13.903a114.95 114.95 0 00-1.02-3.919l-.339-1.234c-.213-.772-.427-1.543-.643-2.313l-.282-1.052-.251-.913c-.149-1.036.008-1.83.264-2.839l1.171-.39.205.767c.705 2.646 1.423 5.288 2.149 7.928.269.984.534 1.97.796 2.956.379 1.421.769 2.839 1.161 4.256l.346 1.33c.783 2.77 1.732 4.364 3.937 6.2.735.822 1.446 1.657 2.156 2.5.55.668.55.668 1.36 1.016l.048-.686c.384-5.517.768-11.034 1.154-16.55.186-2.668.373-5.336.558-8.005l.54-7.727.205-2.945c.095-1.377.192-2.754.289-4.132l.084-1.223c.16-2.268.371-4.521.638-6.78z" fill="#BB8A52"/><path d="M50.5 167.188c.995 2.529 1.99 5.06 2.982 7.591l1.015 2.582c.487 1.237.973 2.475 1.458 3.712l.46 1.167.426 1.089.376.957c1.107 3.069.818 5.72-.467 8.683-1.182 2-2.98 3.017-5.078 3.906-1.32.256-2.594.264-3.936.247l-1.14.008c-1.235.007-2.468-.001-3.703-.009l-2.59.003c-1.805.001-3.61-.005-5.414-.016a761.38 761.38 0 00-6.926-.003c-1.781.004-3.562 0-5.343-.006-.852-.002-1.703-.002-2.554.001-1.19.002-2.381-.006-3.572-.017l-1.056.008c-2.656-.04-4.715-.71-6.744-2.461l-.528-.66-.547-.658c-1.518-2.326-1.576-4.676-1.26-7.374.799-2.773 2.18-4.347 4.616-5.837 1.555-.754 2.917-.852 4.637-.848h1.35l1.452.006 1.49.001c1.305.002 2.61.006 3.915.01 1.333.004 2.666.006 3.998.008 2.613.004 5.226.011 7.839.019l-.395-.992c-.481-1.212-.961-2.425-1.44-3.638l-.626-1.576c-.3-.754-.598-1.508-.896-2.263l-.546-1.376c-.394-1.093-.394-1.093-.394-1.874 2.915.352 2.915.352 4.224.594 4.245.64 8.327.166 12.483-.728 1.262-.256 1.262-.256 2.434-.256zM63.146 74.194c1.026.806 1.026.806 1.835 1.784 1.543 1.315 2.89 1.46 4.855 1.756 8.76 1.54 8.76 1.54 11.523 4.688.489 1.172.489 1.172.39 2.344-1.815 2.23-4.26 2.765-7.03 3.125-6.945.517-14.365.01-20.703-3.125 4.492 3.519 10.172 4.918 15.625 6.25-.496 3.713-2.586 6.905-5.495 9.242-3.794 2.685-8.026 3.689-12.645 3.038-4.223-.916-7.705-3.022-10.376-6.421-2.575-4.071-3.322-8.341-2.49-13.086.934-3.628 3.024-6.911 6.006-9.18 6.012-3.54 12.37-3.937 18.505-.415zM95.03 109.497l.782.659.66.464c1.003 1.386 1.312 2.956 1.276 4.636-.405 2.452-1.945 3.661-3.89 5.056-1.82 1.042-3.699 1.951-5.59 2.857-.792.386-1.583.773-2.374 1.161l-1.57.767a185.603 185.603 0 00-6.212 3.199c-1.13.597-2.261 1.19-3.394 1.782l-.895.472c-.885.463-1.776.912-2.67 1.359l-.784.417c-2.035.994-3.624 1.099-5.807.486-1.844-.719-3.618-1.572-5.395-2.441a3746.551 3746.551 0 00-3.92-1.879c-1.83-.881-3.671-1.734-5.521-2.572l-1.496-.681c-.94-.427-1.881-.851-2.823-1.273-5.045-2.309-5.045-2.309-6.382-4.557-.495-2.13-.58-3.562.464-5.469 1.928-2.368 1.928-2.368 3.939-2.754 3.58-.273 6.556 1.545 9.66 3.096a572.02 572.02 0 002.559 1.249l.85.413.845.411c.843.41 1.688.817 2.533 1.223l.868.418c.842.4 1.687.791 2.534 1.18l.765.366c1.654.744 2.69.901 4.426.38a42.562 42.562 0 002.76-1.34l.79-.41c.557-.29 1.113-.581 1.668-.873.868-.457 1.738-.909 2.61-1.36a285.735 285.735 0 007.585-4.054l1.103-.607c.65-.359 1.297-.726 1.938-1.103 2.556-1.408 5.367-1.878 8.109-.678z" fill="#000"/><path d="M116.906 49.219c1.172.39 1.172.39 1.772 1.43 1.975 4.398 3.261 7.864 1.762 12.626-.516.995-1.001 1.402-1.971 1.96-1.833.33-3.423.251-5.078-.611-1.389-1.693-1.652-3.378-1.563-5.518.485-3.75 2.709-7.031 5.078-9.887zM109.094 68.36c1.185 1.243 1.516 2.016 1.758 3.71-.239 1.667-.642 2.452-1.758 3.711-3.761 1.948-7.963 1.605-11.914.39a76.377 76.377 0 01-2.149-.78c0-1.566.557-2.027 1.57-3.16 3.397-3.277 7.782-5.82 12.493-3.872z" fill="#0C3E2E"/><path d="M102.062 89.844h1.172c1.537 2.752 1.693 5.806.902 8.853-.767 1.92-1.797 3.409-3.636 4.428a42.332 42.332 0 01-5.664 1.929c-1.06.328-1.06.328-1.472 1.373-.894 1.315-1.561 1.39-3.094 1.703l-1.286.276-.984.188c.193-1.913 1.147-3.229 2.222-4.761.355-.518.71-1.037 1.063-1.556l.524-.767c1.009-1.507 1.917-3.07 2.832-4.635l4.687.781c1.128-1.475 1.128-1.475 1.628-3.082l.202-.84.196-.863a257.161 257.161 0 00.708-3.027zM96.984 100v1.172l1.172-.391V100h-1.172z" fill="#000"/><path d="M143.078 0h1.172c3.047 3.386 4.461 6.818 4.505 11.322-.253 1.436-.768 2.091-1.77 3.131-1.366.683-2.807.605-4.297.39-1.638-1.01-2.103-2.123-2.539-3.93-.564-3.991 1.016-7.494 2.929-10.913zM87.22 37.5c3.38.531 6.334 2.378 8.445 5.05 1.22 1.835 1.81 3.182 1.515 5.4-.678 1.469-1.117 2.058-2.539 2.831-1.967.281-2.698.263-4.395-.781-1.779-1.702-2.932-4.185-3.071-6.646l.006-.819.004-.892.01-.92.005-.939c.005-.761.012-1.523.02-2.284zM105.578 41.406c2.675 2.02 4.786 4.593 5.86 7.813.225 2.08.371 3.734-.806 5.517-1.374.878-2.252 1.123-3.882 1.123-1.647-.674-2.339-1.552-3.125-3.125-1.152-3.456-.092-6.866 1.172-10.156l.781-1.172zM98.747 58.88c.737.628 1.028 1.15 1.362 2.057.12 1.744-.087 3.115-1.147 4.517-2.056.965-3.95.944-6.1.23-2.445-1.123-4.651-2.715-6.424-4.746-.292-.878-.292-.878-.391-1.563 4.186-1.535 8.555-2.73 12.7-.494zM159.485 22.656c-.11 3.304-1.092 6.47-3.415 8.922-1.366 1.047-2.679 1.625-4.398 1.625-1.611-.674-2.45-1.514-3.125-3.125-.075-1.689.528-2.667 1.538-3.955 2.424-2.62 5.923-3.546 9.4-3.467zM139.172 26.563c1.139.945 1.163 1.095 1.343 2.685-.058 1.122-.222 1.726-.684 2.783-1.425 1.06-2.474 1.08-4.222.994-2.964-.56-4.954-2.728-6.862-4.927-.531-.782-.739-1.393-.903-2.317 3.746-1.427 7.948-1.45 11.328.782zM156.75 9.766c.914 2.743.973 7.047-.269 9.716-.909 1.229-1.42 1.88-2.856 2.393-1.261-.052-2.117-.28-3.247-.83-1.012-1.125-1.025-1.97-1.05-3.467.523-3.04 2.648-4.965 4.994-6.793 1.461-1.02 1.461-1.02 2.428-1.02zM130.969 12.89c3.57.69 6.566 1.63 9.009 4.444.539 1.51.545 2.541.366 4.15-.586.977-.586.977-1.563 1.563-1.552.254-2.482.332-3.88-.39-2.311-1.75-3.271-4.176-3.722-6.98a44.77 44.77 0 01-.21-2.786zM171.812 96.452c2.088.982 4.098 2.196 5.641 3.939v.781l-1.855.757-1.044.425c-2.403.907-4.788 1.234-7.208.234-1.221-.635-1.221-.635-2.002-1.416-.219-1.195-.2-2.319 0-3.516 1.634-2.16 4.095-2.055 6.468-1.204zM180.188 76.172c.042 1.115.073 2.229.097 3.345l.04.946c.037 2.304-.403 3.568-1.7 5.475l-.488.756c-1.209.734-2.468.686-3.809.415-1.196-.78-1.196-.78-1.953-1.953-.037-2.312.459-3.66 1.953-5.469 3.619-3.515 3.619-3.515 5.86-3.515zM166.906 77.344h1.172c.254.552.506 1.106.757 1.66l.426.934c1.003 2.435 1.203 4.897.233 7.367-.635.976-.635.976-1.416 1.367-2.857.181-2.857.181-3.882-.513-.943-1.498-.944-2.84-.805-4.565.758-2.333 1.954-4.37 3.515-6.25zM183.703 90.234c-.527 1.615-1.189 2.48-2.466 3.59l-.898.797c-1.975 1.464-3.62 1.7-6.011 1.473-1.086-.752-1.458-1.29-1.929-2.515-.032-1.345.319-1.904 1.148-2.954 2.762-2.148 7.095-1.921 10.156-.39zM158.703 82.813c2.363 1.703 3.992 3.651 4.486 6.596.086 1.777.105 2.797-1.019 4.219-1.309.598-2.046.754-3.467.513-.899-.73-1.437-1.312-1.953-2.344-.307-3.18.082-5.757 1.562-8.594l.391-.39zM190.343 30.86l.782.39c.042 1.05.073 2.099.097 3.15l.04.89c.039 2.238-.401 3.502-1.7 5.335-1.172.781-1.172.781-2.539.708-1.377-.32-1.715-.419-2.539-1.49-.386-1.517-.273-2.944.403-4.357 1.436-2.075 3.301-3.362 5.456-4.627zM186.828 51.88l1.44.008c1.033.052 1.877.15 2.857.456-.985 2.112-2.322 3.767-4.273 5.053-1.408.49-2.45.583-3.931.416-.946-.6-1.127-1.053-1.513-2.1-.065-1.356.293-1.92 1.123-2.979 1.387-.937 2.656-.873 4.297-.854zM172.766 44.531c2.881.343 4.78 1.323 6.584 3.58.447.717.447.717.716 1.962-.269 1.099-.269 1.099-1.099 2.051-1.123.61-1.123.61-2.295.66-1.953-.733-2.807-2.087-3.637-3.907-.33-1.5-.322-2.812-.269-4.346zM194.641 42.969c-.77 2.676-1.499 4.645-3.907 6.25-1.096.167-2.001.089-3.125 0-.972-1.458-.993-2.182-.781-3.907 2.284-2.414 4.683-2.453 7.813-2.343zM178.234 35.547c1.979 1.484 3.626 2.973 4.042 5.516.049 1.14-.01 2.061-.55 3.078-1.214.626-2.156.557-3.492.39-1.26-1.092-1.392-2.295-1.562-3.906.204-1.24.204-1.24.537-2.466l.327-1.24c.308-.981.308-.981.698-1.372z" fill="#0C3E2E"/><path d="M99.328 87.89h.781c.586 1.171.577 2.314.684 3.614l.14 1.544c-.046 1.619-.326 2.483-1.214 3.827-1.66.553-2.625.076-4.297-.39.597-1.992 1.45-3.773 2.392-5.616l.441-.871 1.073-2.107zM100.109 103.906c-.197 2.434-1.299 4.475-2.343 6.641-2.984-1.978-2.984-1.978-3.54-3.418.024-.879.024-.879.415-1.66a33.424 33.424 0 012.319-.83l1.28-.418c1.088-.315 1.088-.315 1.869-.315zM142.688 195.703l.39.781c-.342 1.026-.342 1.026-1.172 1.953-1.187.175-2.324.113-3.515 0l-.782-1.953c1.851-1.128 2.969-1.319 5.079-.781zM111.047 195.703l.391.781c-.342 1.026-.342 1.026-1.172 1.953-1.188.175-2.324.113-3.516 0l-.781-1.953c1.851-1.128 2.968-1.319 5.078-.781zM121.984 196.875c.977.781.977.781 1.563 1.562-.61.806-.61.806-1.563 1.563-1.314-.068-2.334-.191-3.515-.781-.244-1.001-.244-1.001-.391-1.953 1.245-.623 2.555-.597 3.906-.391zM106.359 192.578l-.39 2.735c-1.319-.123-1.319-.123-2.735-.391-.781-1.172-.781-1.172-.781-2.344 1.473-1.019 2.314-.651 3.906 0zM93.86 121.094l1.171.39c.13 1.676.258 3.352.39 5.078l-1.952-.39c-.384-1.583-.423-3.062-.39-4.688l.78-.39zM164.27 194.458l1.074.464-.391 2.734-2.734-.39-.781-1.953c1.064-1.065 1.322-1.232 2.832-.855zM167.688 192.969l1.953.39.39 2.344-2.343.391c-.44-.904-.44-.904-.782-1.953l.782-1.172zM88.39 124.219v1.953l-1.953.39c.147-.952.147-.952.391-1.953.781-.39.781-.39 1.563-.39z" fill="#000"/></svg>